<?xml version="1.0" standalone="no"?>
<!DOCTYPE svg PUBLIC "-//W3C//DTD SVG 1.1//EN" "http://www.w3.org/Graphics/SVG/1.1/DTD/svg11.dtd" >
<svg xmlns="http://www.w3.org/2000/svg">
<metadata></metadata>
<defs>
<font id="TitilliumBdItalic" horiz-adv-x="1146" >
<font-face units-per-em="2048" ascent="1536" descent="-512" />
<missing-glyph horiz-adv-x="450" />
<glyph horiz-adv-x="0" />
<glyph horiz-adv-x="2048" />
<glyph unicode=" "  horiz-adv-x="450" />
<glyph unicode="&#x09;" horiz-adv-x="450" />
<glyph unicode="&#xa0;" horiz-adv-x="450" />
<glyph unicode="!" horiz-adv-x="542" d="M133 0v313h279v-313h-279zM133 1434h279l-9 -906h-266z" />
<glyph unicode="&#x22;" horiz-adv-x="794" d="M98 1409h256l-10 -514h-235zM440 1409h256l-10 -514h-235z" />
<glyph unicode="#" d="M33 338v229h196v217h-196v230h196v338h238v-338h213v338h238v-338h196v-230h-196v-217h196v-229h-196v-338h-238v338h-213v-338h-238v338h-196zM467 567h213v217h-213v-217z" />
<glyph unicode="$" d="M131 958q0 217 111 316.5t346 99.5q29 0 45 -2l43 207h174l-47 -223q41 -6 81.5 -14t60.5 -12l20 -5l-13 -215q-98 10 -198 18l-70 -331q96 -35 152.5 -65t99.5 -75.5t59.5 -107.5t16.5 -154q0 -219 -110.5 -319.5t-344.5 -100.5q-29 0 -45 2l-45 -221h-174l49 236 q-44 5 -88.5 13t-67.5 13l-22 5l12 219q107 -13 213 -21l78 363q-181 64 -258.5 148t-77.5 226zM410 997q0 -54 23 -82t91 -57l58 279q-94 -3 -133 -35t-39 -105zM563 215q89 0 129.5 35t40.5 121q0 64 -22.5 97t-81.5 60z" />
<glyph unicode="%" d="M39 1139q0 -148 63 -223.5t183 -75.5q119 0 182 75.5t63 223.5t-62.5 222.5t-182.5 74.5t-183 -74.5t-63 -222.5zM229 12l504 1463l176 -62l-503 -1462zM240 1139q0 74 9 103.5t36 29.5t36 -29.5t9 -103.5t-9 -104.5t-36 -30.5t-36 30.5t-9 104.5zM616 299 q0 148 63 222.5t183 74.5t183 -74.5t63 -222.5t-63 -223.5t-183 -75.5t-183 75.5t-63 223.5zM817 299q0 -74 9 -104.5t36 -30.5t36 30.5t9 104.5t-9 103.5t-36 29.5t-36 -29.5t-9 -103.5z" />
<glyph unicode="&#x26;" horiz-adv-x="1308" d="M41 406q0 145 73 238.5t210 158.5q-61 79 -87 136t-26 130q0 187 97 267.5t296 80.5q198 0 295.5 -81.5t97.5 -268.5q0 -107 -59.5 -186.5t-202.5 -167.5l176 -183q31 54 56 218h247q-3 -90 -40 -209.5t-80 -190.5q13 -12 92.5 -91t103.5 -101q-168 -181 -178 -181 l-176 170q-105 -90 -198 -130t-236 -40q-224 0 -342.5 113.5t-118.5 317.5zM324 387q0 -74 51.5 -126t134.5 -52q76 0 133.5 21t116.5 69l-301 340q-70 -50 -102.5 -109.5t-32.5 -142.5zM494 1051q0 -53 21 -90.5t85 -100.5q60 41 87.5 83t27.5 106q0 62 -26 100.5t-85 38.5 q-110 0 -110 -137z" />
<glyph unicode="'" horiz-adv-x="452" d="M98 1409h256l-10 -514h-235z" />
<glyph unicode="(" horiz-adv-x="583" d="M70 616q0 126 22.5 267t54 251.5t63.5 203.5t54 144l23 50h254q-8 -22 -20.5 -60t-44.5 -151t-57 -219.5t-45 -242.5t-20 -243t19.5 -235.5t47 -236.5t54.5 -200.5t47 -145.5l19 -52h-254q-9 17 -23.5 48t-52 127.5t-66 194t-52 236t-23.5 264.5z" />
<glyph unicode=")" horiz-adv-x="583" d="M43 -242q8 22 20.5 60t44.5 151t56.5 219.5t44.5 242.5t20 243t-19 235.5t-46.5 236.5t-55 200.5t-46.5 145.5l-19 52h254q9 -17 23.5 -48t52 -127.5t66 -194t52 -236t23.5 -264.5t-22.5 -267t-54 -251.5t-63.5 -203.5t-54 -144l-23 -50h-254z" />
<glyph unicode="*" horiz-adv-x="833" d="M63 938l216 160l-209 149l94 129l207 -149l80 248l153 -52l-78 -249h252v-152h-252l78 -246l-149 -45l-84 248l-211 -162z" />
<glyph unicode="+" d="M102 391v246h347v344h245v-344h350v-246h-350v-348h-245v348h-347z" />
<glyph unicode="," horiz-adv-x="495" d="M43 -266l82 577h291l-152 -577h-221z" />
<glyph unicode="-" horiz-adv-x="743" d="M102 420v246h539v-246h-539z" />
<glyph unicode="." horiz-adv-x="483" d="M102 0v313h279v-313h-279z" />
<glyph unicode="/" horiz-adv-x="892" d="M49 41l545 1429l250 -88l-545 -1431z" />
<glyph unicode="0" d="M72 668q0 196 33.5 334.5t99.5 219.5t156 117.5t212 36.5t212 -36.5t156.5 -117.5t100 -219.5t33.5 -334.5q0 -157 -22.5 -276t-63.5 -198t-104 -128t-138.5 -70t-173.5 -21q-123 0 -212 34t-156 112.5t-100 214.5t-33 332zM360 668q0 -247 49.5 -349t165.5 -102 t163.5 101.5t47.5 349.5q0 251 -48 359t-163 108t-165 -109t-50 -358z" />
<glyph unicode="1" d="M160 1057l432 295h260v-1352h-281v1026l-280 -190z" />
<glyph unicode="2" d="M137 0v229l291 306q106 111 157 172t81 121.5t30 119.5q0 101 -43.5 144t-148.5 43q-62 0 -148.5 -7.5t-141.5 -15.5l-56 -8l-13 209q25 7 66.5 17.5t150.5 28t193 17.5q204 0 317 -95t113 -292q0 -69 -15 -130.5t-37.5 -109.5t-64 -100.5t-80 -91.5t-100.5 -96 l-237 -219h557v-242h-871z" />
<glyph unicode="3" d="M117 39l24 201q174 -23 377 -23t203 184q0 75 -51 117.5t-138 42.5h-262v215l262 19q66 4 115 56.5t49 106.5q0 96 -43 136.5t-151 40.5q-71 0 -158.5 -6.5t-139.5 -12.5l-52 -6l-15 201q25 7 66 18t143.5 29t175.5 18q248 0 355.5 -89.5t107.5 -282.5 q0 -105 -38.5 -171.5t-117.5 -119.5q47 -25 76.5 -48.5t55.5 -58t37.5 -83t11.5 -115.5q0 -216 -111 -324.5t-340 -108.5q-89 0 -199.5 16t-176.5 32z" />
<glyph unicode="4" d="M88 231v205l342 916h307l-370 -887h290v369h279v-369h125v-234h-125v-239h-279v239h-569z" />
<glyph unicode="5" d="M109 53l30 203q195 -39 408 -39q93 0 145.5 55t52.5 152q0 101 -44 145.5t-136 44.5q-64 0 -124.5 -10t-89.5 -20l-29 -11l-179 45l45 736h805v-242h-583l-37 -309q128 53 239 53q100 0 175 -21.5t132 -69t86 -129t29 -196.5q0 -232 -123.5 -348.5t-349.5 -116.5 q-84 0 -197 19.5t-184 39.5z" />
<glyph unicode="6" d="M84 625q0 165 26.5 293t73.5 214t116.5 141t151.5 79t183 24q68 0 166.5 -11t163.5 -23l65 -11l-24 -227q-209 31 -371 31q-125 0 -185.5 -85t-78.5 -251q15 7 41 17t92.5 27t116.5 17q454 0 454 -432q0 -225 -126 -339t-359 -114q-506 0 -506 650zM373 547 q0 -145 56 -237.5t161 -92.5q91 0 143.5 56.5t52.5 154.5q0 93 -50 141.5t-140 48.5q-49 0 -104 -9.5t-85 -18.5l-30 -10q-4 -16 -4 -33z" />
<glyph unicode="7" d="M152 1110v242h843v-322l-475 -1067l-262 74l457 997v76h-563z" />
<glyph unicode="8" d="M68 365q0 114 46 191.5t124 139.5q-86 69 -117 136t-31 176q0 171 135 270.5t346 99.5q137 0 246 -42.5t174.5 -128t65.5 -201.5q0 -119 -29 -178.5t-119 -131.5q85 -55 126.5 -127.5t41.5 -181.5q0 -138 -68.5 -233.5t-180.5 -139t-259 -43.5q-88 0 -162 13.5 t-137.5 43.5t-107.5 75t-69 111.5t-25 150.5zM356 410q0 -93 57.5 -145t155.5 -52q99 0 159 52.5t60 144.5q0 50 -32 90t-92 63h-181q-127 -50 -127 -153zM379 963q0 -95 104 -166h181q104 71 104 166q0 77 -54.5 125.5t-140.5 48.5q-85 0 -139.5 -49t-54.5 -125z" />
<glyph unicode="9" d="M68 924q0 216 134 334t349 118q248 0 379 -174t131 -518q0 -158 -26.5 -279.5t-74 -202t-117.5 -132t-152 -73.5t-183 -22q-68 0 -166.5 11t-163.5 22l-65 12l24 244q209 -31 371 -31q129 0 195.5 82.5t66.5 227.5l-40 -13q-40 -13 -102.5 -27t-105.5 -14 q-210 0 -332 110.5t-122 324.5zM358 924q0 -92 50 -138.5t139 -46.5q49 0 105.5 7.5t87.5 15.5l32 8q0 159 -56 254.5t-163 95.5q-88 0 -141.5 -52t-53.5 -144z" />
<glyph unicode=":" horiz-adv-x="483" d="M102 0v313h279v-313h-279zM102 606v314h279v-314h-279z" />
<glyph unicode=";" horiz-adv-x="530" d="M55 -266h221l152 577h-291zM131 606v314h279v-314h-279z" />
<glyph unicode="&#x3c;" d="M135 401v226l832 374v-278l-535 -203l535 -221v-279z" />
<glyph unicode="=" d="M119 178v248h909v-248h-909zM119 604v248h909v-248h-909z" />
<glyph unicode="&#x3e;" d="M180 20v279l535 221l-535 203v278l832 -374v-226z" />
<glyph unicode="?" horiz-adv-x="866" d="M49 1354q223 63 348 63q216 0 315 -87t99 -288q0 -110 -47.5 -189.5t-173.5 -203.5q-44 -44 -63 -76t-19 -67v-80h-266q-17 67 -17 137q0 40 9 72.5t34.5 68t53 64.5t81.5 82q68 64 92.5 102.5t24.5 89.5q0 73 -37 101t-118 28q-44 0 -115.5 -7.5t-121.5 -15.5l-50 -7z M225 0v342h283v-342h-283z" />
<glyph unicode="@" horiz-adv-x="1871" d="M61 535q0 326 92 525.5t290 294.5t522 95q235 0 397 -51.5t264 -162.5t147.5 -277t45.5 -404q0 -118 -19 -213t-61.5 -174.5t-120 -123.5t-184.5 -44q-60 0 -98.5 6t-75.5 25.5t-63 57.5t-48 99q-52 -95 -131.5 -141.5t-161.5 -46.5q-192 0 -274 119.5t-82 380.5 q0 97 10.5 172.5t39 143.5t74.5 112.5t119 70t172 25.5q68 0 182 -10t193 -20l80 -9v-663q0 -54 14.5 -73.5t49.5 -19.5q71 0 104 74.5t33 251.5q0 128 -10.5 220.5t-37.5 170t-70.5 127.5t-112 84.5t-160 49t-215.5 14.5q-182 0 -306.5 -38.5t-202.5 -123.5t-112.5 -212.5 t-34.5 -311.5q0 -363 153.5 -548.5t493.5 -185.5q35 0 104 4.5t121 9.5l52 5l8 -228q-193 -20 -285 -20q-461 0 -678 242.5t-217 720.5zM778 528q0 -163 27 -229t108 -66q30 0 59.5 14.5t50.5 35.5t37.5 42t25.5 35l8 15v403q-7 2 -68.5 7.5t-85.5 5.5q-89 0 -125.5 -62.5 t-36.5 -200.5z" />
<glyph unicode="A" horiz-adv-x="1128" d="M27 0l290 1393h496l287 -1393h-283l-51 242h-401l-56 -242h-282zM412 487h305l-137 660h-31z" />
<glyph unicode="B" horiz-adv-x="1150" d="M131 0v1393h479q98 0 177.5 -21t139.5 -63.5t93 -112.5t33 -164q0 -121 -36 -185.5t-120 -121.5q96 -48 138 -122t42 -202q0 -209 -118 -305t-341 -96h-487zM414 242h200q88 0 130 45t42 135q0 89 -41 129.5t-131 40.5h-200v-350zM414 827h196q76 0 115 44t39 124 q0 156 -154 156h-196v-324z" />
<glyph unicode="C" horiz-adv-x="1015" d="M80 702q0 381 117.5 548t382.5 167q64 0 157.5 -12.5t154.5 -24.5l62 -12l-12 -221q-209 24 -315 24q-138 0 -197 -106.5t-59 -362.5q0 -123 12 -207.5t41 -148.5t81 -94.5t130 -30.5q44 0 120.5 5.5t131.5 11.5l55 6l10 -224q-198 -45 -372 -45q-118 0 -205 32 t-143.5 90t-90.5 150.5t-47.5 201t-13.5 253.5z" />
<glyph unicode="D" horiz-adv-x="1212" d="M131 0v1393h449q113 0 198 -17.5t146 -55t101 -89.5t63 -129t32.5 -164.5t9.5 -204.5q0 -126 -9.5 -221.5t-32.5 -181t-63 -144t-100.5 -102t-146.5 -64t-198 -20.5h-449zM414 246h166q40 0 73.5 7.5t58.5 20.5t44.5 35t33 45t23 58t15 66.5t8 77.5t3.5 84t1 93 q0 68 -1.5 110.5t-7 91.5t-16.5 77.5t-29.5 57.5t-46.5 44t-67.5 24t-91.5 9h-166v-901z" />
<glyph unicode="E" horiz-adv-x="1028" d="M131 0v1393h827v-246h-544v-328h430v-246h-430v-327h544v-246h-827z" />
<glyph unicode="F" horiz-adv-x="993" d="M131 0v1393h827v-246h-544v-420h430v-246h-430v-481h-283z" />
<glyph unicode="G" horiz-adv-x="1171" d="M78 711q0 361 129 533.5t422 172.5q106 0 216 -13.5t167 -27.5l57 -14l-8 -217q-246 26 -404 26q-59 0 -105 -15t-77.5 -45.5t-52.5 -69.5t-32.5 -93t-16 -110t-4.5 -127q0 -94 6 -163.5t24 -134t48.5 -104.5t81 -64t120.5 -24l137 8v312h-120v233h403v-762 q-307 -37 -461 -37q-150 0 -255.5 53t-164.5 154.5t-84.5 230t-25.5 298.5z" />
<glyph unicode="H" horiz-adv-x="1255" d="M131 0v1393h283v-557h428v557h282v-1393h-282v590h-428v-590h-283z" />
<glyph unicode="I" horiz-adv-x="544" d="M131 0v1393h283v-1393h-283z" />
<glyph unicode="J" horiz-adv-x="577" d="M33 104q47 1 74.5 9.5t41.5 30t17.5 46t3.5 70.5v1133h283v-1135q0 -60 -2 -101.5t-9.5 -84t-20 -70t-34 -53.5t-52 -41t-74 -27.5t-99.5 -17t-129 -4.5v245z" />
<glyph unicode="K" horiz-adv-x="1126" d="M131 0v1393h283v-598l149 16l215 582h314l-281 -674l297 -719h-313l-224 565l-157 -16v-549h-283z" />
<glyph unicode="L" horiz-adv-x="870" d="M131 0v1393h283v-1147h442v-246h-725z" />
<glyph unicode="M" horiz-adv-x="1611" d="M131 0v1393h471l207 -1057l205 1057h467v-1393h-262v1147h-37l-203 -1086h-346l-201 1086h-39v-1147h-262z" />
<glyph unicode="N" horiz-adv-x="1329" d="M131 0v1393h442l334 -1092h23v1092h268v-1393h-426l-336 1112h-22v-1112h-283z" />
<glyph unicode="O" horiz-adv-x="1212" d="M80 711q0 265 52.5 419t170.5 222q113 65 303 65q197 0 311 -70t165 -222t51 -414q0 -277 -57 -440t-185 -234q-112 -62 -285 -62q-288 0 -407 171.5t-119 564.5zM371 711q0 -285 46 -387.5t189 -102.5q69 0 117 25q68 37 93.5 142.5t25.5 322.5q0 145 -9 229t-36 138.5 t-71.5 73.5t-119.5 19q-68 0 -114 -18q-71 -30 -96 -127t-25 -315z" />
<glyph unicode="P" horiz-adv-x="1118" d="M131 0v1393h463q236 0 354.5 -117t118.5 -377q0 -143 -32 -244t-95 -160t-147 -85.5t-197 -26.5h-182v-383h-283zM414 629h161q69 0 111 23t66 85.5t24 171.5q0 139 -48 188.5t-155 49.5h-159v-518z" />
<glyph unicode="Q" horiz-adv-x="1212" d="M80 711q0 265 52.5 419t170.5 222q113 65 303 65q197 0 311 -70t165 -222t51 -414q0 -245 -44.5 -400t-142.5 -237l160 -246l-244 -141l-157 295q-54 -7 -99 -7q-288 0 -407 171.5t-119 564.5zM371 711q0 -285 46 -387.5t189 -102.5q69 0 117 25q68 37 93.5 142.5 t25.5 322.5q0 145 -9 229t-36 138.5t-71.5 73.5t-119.5 19q-68 0 -114 -18q-71 -30 -96 -127t-25 -315z" />
<glyph unicode="R" horiz-adv-x="1150" d="M131 0v1393h471q233 0 349 -105.5t116 -353.5q0 -308 -180 -408l209 -526h-295l-174 465h-213v-465h-283zM414 707h188q92 0 133 54t41 173q0 118 -40.5 167.5t-133.5 49.5h-188v-444z" />
<glyph unicode="S" horiz-adv-x="1030" d="M61 987q0 224 114 327t357 103q82 0 179.5 -12.5t154.5 -25.5l56 -13l-13 -221q-233 26 -356 26q-114 0 -159.5 -31t-45.5 -112q0 -70 44.5 -102.5t203.5 -89.5q64 -22 107 -40t86 -40t69.5 -45t50 -53t36 -66t19.5 -81.5t7 -102.5q0 -225 -113.5 -329t-355.5 -104 q-82 0 -184 12t-163 24l-61 12l15 227q270 -29 393 -29q95 0 138.5 36t43.5 126q0 32 -4 54.5t-17 41.5t-27.5 32t-45.5 27t-59.5 24.5t-81.5 27.5q-209 68 -298.5 156t-89.5 241z" />
<glyph unicode="T" horiz-adv-x="935" d="M20 1147v246h895v-246h-303v-1147h-282v1147h-310z" />
<glyph unicode="U" horiz-adv-x="1224" d="M123 473v920h283v-944q0 -124 45 -176t161 -52t161.5 52t45.5 176v944h283v-920q0 -262 -115 -380t-375 -118t-374.5 118t-114.5 380z" />
<glyph unicode="V" horiz-adv-x="1134" d="M25 1393h282l225 -1147h68l229 1147h283l-305 -1393h-481z" />
<glyph unicode="W" horiz-adv-x="1767" d="M35 1393h278l189 -1133h28l201 1112h305l199 -1112h31l188 1133h279l-265 -1393h-415l-172 1016l-166 -1016h-416z" />
<glyph unicode="X" horiz-adv-x="1071" d="M8 0l365 700l-357 693h299l220 -490l219 490h297l-346 -693l358 -700h-299l-229 498l-228 -498h-299z" />
<glyph unicode="Y" horiz-adv-x="1030" d="M-2 1393h299l217 -533l217 533h297l-381 -832v-561h-262v561z" />
<glyph unicode="Z" horiz-adv-x="997" d="M74 0v268l516 830v49h-516v246h850v-269l-518 -829v-49h518v-246h-850z" />
<glyph unicode="[" horiz-adv-x="673" d="M125 -250v1780h487v-234h-221v-1312h221v-234h-487z" />
<glyph unicode="\" horiz-adv-x="1030" d="M55 1438h287l629 -1438h-285z" />
<glyph unicode="]" horiz-adv-x="673" d="M61 -16h222v1312h-222v234h488v-1780h-488v234z" />
<glyph unicode="^" d="M37 641l397 711h234l397 -711h-287l-223 444l-231 -444h-287z" />
<glyph unicode="_" horiz-adv-x="1245" d="M164 -164h917v-256h-917v256z" />
<glyph unicode="`" horiz-adv-x="1060" d="M180 1354l76 227l498 -184l-68 -203z" />
<glyph unicode="a" horiz-adv-x="1048" d="M68 500q0 98 10.5 175.5t39 149.5t74 119.5t119.5 76t172 28.5q68 0 181.5 -9.5t192.5 -19.5l79 -10v-719l10 -287l-272 -10q-10 70 -10 129q-3 -6 -9.5 -16t-30 -35.5t-49.5 -45t-69.5 -35.5t-89.5 -16q-185 0 -266.5 129t-81.5 396zM346 500q0 -71 5.5 -120.5t19.5 -90 t41.5 -60.5t68.5 -20q30 0 59.5 14.5t50.5 35.5t37.5 41.5t25.5 35.5l8 14v453q-109 12 -154 12q-89 0 -125.5 -75.5t-36.5 -239.5z" />
<glyph unicode="b" horiz-adv-x="1046" d="M113 4v1430h274v-478q5 4 13.5 10t36 22t55 28.5t66.5 22.5t75 10q186 0 267 -129t81 -392q0 -201 -55 -323.5t-158.5 -175t-267.5 -52.5q-42 0 -138.5 6.5t-172.5 13.5zM387 221q94 -10 121 -10q115 0 154.5 70.5t39.5 246.5q0 61 -4.5 104t-17.5 89t-43 70t-76 24 q-40 0 -83.5 -19t-67.5 -38l-23 -19v-518z" />
<glyph unicode="c" horiz-adv-x="823" d="M66 514q0 269 99.5 401t301.5 132q68 0 141 -10.5t112 -21.5l40 -11l-8 -209q-135 14 -209 14q-114 0 -156.5 -69t-42.5 -226q0 -78 8 -130t29.5 -92.5t61.5 -59.5t100 -19q33 0 85 3t88 6l36 3l8 -202q-147 -48 -299 -48q-213 0 -304 136t-91 403z" />
<glyph unicode="d" horiz-adv-x="1048" d="M68 502q0 272 93.5 408.5t303.5 136.5q36 0 85.5 -7.5t80.5 -14.5l31 -7v416h274v-1434h-268l-4 88q-3 -5 -9.5 -12.5t-30.5 -27t-51 -34.5t-72.5 -27t-94.5 -12q-175 0 -256.5 132.5t-81.5 394.5zM346 502q0 -154 29.5 -223.5t111.5 -69.5q44 0 87.5 30.5t65.5 60.5 l22 30v465q-92 18 -164 18q-83 0 -117.5 -77t-34.5 -234z" />
<glyph unicode="e" horiz-adv-x="950" d="M63 475q0 95 14 177.5t46 156t81 125.5t123 82.5t167 30.5q201 0 302 -77.5t101 -246.5q0 -78 -22 -134t-60.5 -90.5t-102 -54.5t-135 -27t-171.5 -7h-68v-35q0 -73 49 -117.5t135 -44.5q62 0 144 6.5t133 12.5l51 6l4 -195q-17 -7 -48.5 -17.5t-123.5 -28t-180 -17.5 q-227 0 -333 120.5t-106 374.5zM340 610h66q121 0 171 21t50 88q0 62 -30.5 85t-102.5 23q-42 0 -72.5 -16.5t-47 -47.5t-24.5 -68t-10 -85z" />
<glyph unicode="f" horiz-adv-x="667" d="M59 791v233h93v41q0 204 69 298.5t213 94.5q28 0 81 -6t93 -12l39 -6l-4 -220q-76 11 -139 11q-21 0 -36 -9t-23 -22.5t-12.5 -37t-5.5 -43t-1 -50.5v-39h211v-233h-211v-791l-23 -430h-251v1221h-93z" />
<glyph unicode="g" horiz-adv-x="983" d="M53 -197q0 78 43 136t125 116q-30 28 -45.5 62t-15.5 88q0 32 21 73.5t42 67.5l21 25q-176 94 -176 309q0 184 100.5 276.5t288.5 92.5q28 0 74.5 -7.5t78.5 -15.5l33 -8l297 6v-221h-117q29 -49 29 -123q0 -178 -101.5 -269.5t-295.5 -91.5l-37 3q-12 -47 -12 -72 q0 -13 2 -20t12 -18.5t37.5 -17.5t70.5 -6q85 0 143 -5.5t116 -24.5t92.5 -52.5t55.5 -90.5t21 -138q0 -104 -63.5 -184.5t-168.5 -122t-232 -41.5q-218 0 -328.5 62.5t-110.5 211.5zM305 -139q0 -51 46.5 -75t156.5 -24q85 0 137.5 30.5t52.5 84.5q0 49 -41.5 64.5 t-134.5 15.5q-84 0 -166 10q-51 -55 -51 -106zM319 680q0 -66 35 -100.5t101 -34.5q145 0 145 135q0 74 -35 108.5t-108 34.5q-138 0 -138 -143z" />
<glyph unicode="h" horiz-adv-x="1067" d="M113 0v1434h274v-500q4 5 10.5 12.5t30.5 27.5t50 35t67.5 27.5t85.5 12.5q73 0 130.5 -22.5t95 -60t62.5 -91t35.5 -113t10.5 -127.5v-635h-275v565q0 138 -28 194t-99 56q-42 0 -86 -28.5t-67 -56.5l-23 -28v-702h-274z" />
<glyph unicode="i" horiz-adv-x="499" d="M111 1130v281h278v-281h-278zM113 0v1024h274v-1024h-274z" />
<glyph unicode="j" horiz-adv-x="499" d="M-88 -264q54 33 82.5 51.5t54.5 41t36 35t18 36.5t9 43t1 57v1024h274v-1024q0 -71 -3.5 -113.5t-17.5 -87t-36.5 -72t-67.5 -62t-102.5 -64.5t-149.5 -72zM113 1133v280h274v-280h-274z" />
<glyph unicode="k" horiz-adv-x="980" d="M113 0v1434h274v-816l74 17l196 389h301l-266 -483l273 -541h-301l-195 401l-82 -16v-385h-274z" />
<glyph unicode="l" horiz-adv-x="499" d="M113 0v1434h274v-1434h-274z" />
<glyph unicode="m" horiz-adv-x="1619" d="M113 0v1024h268l4 -100q4 5 11 13.5t31.5 30t51 38t68 30t84.5 13.5q57 0 105.5 -15t77 -37t49 -44t28.5 -37l8 -15q5 6 15 16t41 35.5t63 45t77.5 35.5t88.5 16q87 0 152.5 -34t104.5 -95t58 -140.5t19 -175.5v-604h-275v565q0 138 -28.5 194t-102.5 56 q-40 0 -79.5 -28.5t-58.5 -56.5l-20 -28q7 -76 7 -129v-573h-275v537q0 162 -25.5 220t-101.5 58q-40 0 -83 -30.5t-66 -60.5l-23 -30v-694h-274z" />
<glyph unicode="n" horiz-adv-x="1067" d="M113 0v1024h268l4 -100q4 5 11 13.5t31 30t50.5 38t68 30t85.5 13.5q90 0 156.5 -33.5t104 -92.5t55.5 -131t18 -159v-633h-275v565q0 138 -28.5 194t-102.5 56q-40 0 -83 -30.5t-66 -60.5l-23 -30v-694h-274z" />
<glyph unicode="o" horiz-adv-x="995" d="M63 512q0 535 435 535q434 0 434 -535q0 -93 -12 -169.5t-42.5 -146.5t-78.5 -117.5t-124.5 -75.5t-176.5 -28t-176.5 28t-125 75.5t-79 117.5t-42.5 146.5t-12 169.5zM326 512q0 -69 7 -120t25 -94.5t53 -66t87 -22.5q51 0 86 22.5t53 66t25.5 94.5t7.5 120q0 55 -4 97 t-15.5 82t-30 65.5t-49.5 41t-73 15.5t-73 -15.5t-49.5 -41t-30 -65.5t-15.5 -82t-4 -97z" />
<glyph unicode="p" horiz-adv-x="1048" d="M113 -430v1454h268l4 -88q4 5 11 12.5t30 27t48.5 34.5t64.5 27t79 12q192 0 277.5 -131.5t85.5 -395.5q0 -272 -93.5 -408.5t-303.5 -136.5q-40 0 -89 7.5t-79 14.5l-29 7v-436h-274zM387 227q92 -16 160 -16q86 0 120.5 74.5t34.5 236.5q0 154 -29.5 223.5t-111.5 69.5 q-40 0 -83.5 -30.5t-67.5 -60.5l-23 -30v-467z" />
<glyph unicode="q" horiz-adv-x="1046" d="M68 512q0 267 99.5 401t326.5 134q60 0 170.5 -9.5t191.5 -19.5l80 -10v-1411h-274v489q-3 -5 -8.5 -12t-27 -26.5t-46.5 -34t-67 -26.5t-89 -12q-185 0 -270.5 134.5t-85.5 402.5zM346 512q0 -160 29.5 -231.5t111.5 -71.5q43 0 86.5 31.5t66.5 62.5l22 31v467 q-91 12 -150 12q-92 0 -129 -72.5t-37 -228.5z" />
<glyph unicode="r" horiz-adv-x="675" d="M113 0v1024h272v-143q5 5 13 14t35.5 34t56.5 45.5t72 42.5t85 32v-285q-56 -14 -121 -42t-102 -50l-37 -21v-651h-274z" />
<glyph unicode="s" horiz-adv-x="884" d="M66 35l12 207q234 -33 330 -33q84 0 115.5 17t31.5 57q0 42 -26.5 59.5t-114.5 38.5q-92 21 -151.5 45t-105.5 61.5t-66.5 92t-20.5 131.5q0 86 30.5 152.5t82 105.5t114 58.5t133.5 19.5q89 0 180.5 -14.5t137.5 -28.5l47 -15l-9 -207q-202 31 -337 31q-43 0 -74 -20.5 t-31 -57.5q0 -44 28 -64.5t122 -45.5q56 -15 88 -24t72.5 -24.5t63 -30.5t47 -37.5t36.5 -50t20 -65t8 -84.5q0 -185 -100 -259.5t-295 -74.5q-81 0 -173 15t-143 30z" />
<glyph unicode="t" horiz-adv-x="677" d="M41 791v233h102v262h275v-262h223v-233h-223v-459q0 -62 13 -92.5t52 -30.5q31 0 68 2.5t59 4.5l21 3l12 -207q-131 -37 -201 -37q-90 0 -149.5 21t-92 67t-45 105t-12.5 147v476h-102z" />
<glyph unicode="u" horiz-adv-x="1069" d="M104 385v639h275v-565q0 -138 28.5 -194t102.5 -56q40 0 83 30.5t66 60.5l23 30v694h274v-1024h-268l-4 100q-4 -5 -11 -13.5t-31 -30t-50.5 -38t-68 -30t-85.5 -13.5q-174 0 -254 104.5t-80 305.5z" />
<glyph unicode="v" horiz-adv-x="933" d="M23 1024h270l156 -797h36l156 797h270l-237 -1024h-414z" />
<glyph unicode="w" horiz-adv-x="1544" d="M43 1024h270l119 -791h47l148 771h291l147 -771h47l119 791h270l-170 -1024h-450l-109 627l-108 -627h-451z" />
<glyph unicode="x" horiz-adv-x="886" d="M14 0l277 510l-271 514h283l148 -319l139 319h278l-268 -514l268 -510h-278l-144 315l-153 -315h-279z" />
<glyph unicode="y" horiz-adv-x="933" d="M27 1024h268l158 -797h32l164 797h260l-331 -1454h-256l112 430h-176z" />
<glyph unicode="z" horiz-adv-x="856" d="M70 0v229l422 562h-422v233h716v-225l-415 -566h415v-233h-716z" />
<glyph unicode="{" horiz-adv-x="684" d="M31 532v216q90 24 134 71.5t44 130.5q0 28 -6 114t-6 130q0 194 98 273t321 87v-235q-89 -7 -114 -26.5t-25 -78.5l15 -301q0 -116 -42 -175t-141 -97q183 -68 183 -287q0 -38 -7.5 -136.5t-7.5 -141.5q0 -60 33.5 -83t105.5 -30v-235q-72 3 -129 12.5t-113.5 33.5 t-93.5 61.5t-60 100.5t-23 146q0 39 7 125t7 131q0 137 -180 194z" />
<glyph unicode="|" horiz-adv-x="520" d="M123 -430v1864h274v-1864h-274z" />
<glyph unicode="}" horiz-adv-x="681" d="M66 -43q89 7 114 26t25 78l-15 301q0 116 42 175.5t141 97.5q-183 68 -183 287q0 38 7.5 136.5t7.5 141.5q0 60 -33.5 83t-105.5 30v235q72 -3 129 -12.5t113.5 -33.5t93.5 -61.5t60 -100.5t23 -146q0 -39 -7 -125t-7 -131q0 -138 180 -195v-215q-90 -24 -134 -71.5 t-44 -130.5q0 -28 6 -114t6 -130q0 -99 -24.5 -167t-78 -109.5t-129.5 -61t-187 -23.5v236z" />
<glyph unicode="~" d="M125 578q14 12 39 29.5t91.5 47t121.5 29.5q57 0 213 -45t203 -45q36 0 88 19.5t86 38.5l34 20l17 -219q-4 -4 -12.5 -11t-33.5 -25.5t-51 -32t-63.5 -25t-71.5 -11.5q-60 0 -221 45t-196 45q-44 0 -100 -20t-90 -40l-34 -20z" />
<glyph unicode="&#xa1;" horiz-adv-x="509" d="M115 -410l8 906h266l4 -906h-278zM115 711v313h278v-313h-278z" />
<glyph unicode="&#xa2;" d="M193 512q0 207 98.5 319t263.5 132v204h217v-215l148 -20l-9 -230q-151 7 -225 7q-123 0 -171 -43.5t-48 -153.5q0 -107 48.5 -153t172.5 -46l223 9l9 -228q-72 -14 -148 -24v-222h-217v211q-86 4 -156.5 44t-114.5 103.5t-67.5 142t-23.5 163.5z" />
<glyph unicode="&#xa3;" d="M152 0v233h182v441h-158v233h158v74q0 99 16.5 172t54 128t103 82.5t158.5 27.5q44 0 117 -13t124 -26l51 -13l-12 -206q-139 16 -237 16q-22 0 -38.5 -6.5t-26.5 -21t-16.5 -30t-9 -40.5t-3.5 -45.5t-1 -51.5v-47h308v-233h-308v-441h213l136 31l38 -227l-155 -37h-694z " />
<glyph unicode="&#xa4;" d="M61 193l150 149q-40 82 -40 173.5t40 174.5l-150 150l189 188l149 -149q82 38 174 38t175 -38l149 149l188 -188l-149 -150q38 -83 38 -174.5t-38 -173.5l149 -149l-188 -189l-149 150q-83 -40 -175 -40t-174 40l-149 -150zM421 516.5q0 -64.5 44 -108.5t108.5 -44 t108.5 44t44 108.5t-44 108.5t-108.5 44t-108.5 -44t-44 -108.5z" />
<glyph unicode="&#xa5;" d="M-10 1352h319l264 -494l263 494h319l-293 -545h137v-242h-274l-8 -14v-53h282v-242h-282v-256h-281v256h-291v242h291v53l-8 14h-283v242h138z" />
<glyph unicode="&#xa6;" horiz-adv-x="528" d="M127 348h274v-778h-274v778zM127 672v762h274v-762h-274z" />
<glyph unicode="&#xa7;" horiz-adv-x="980" d="M63 436q0 66 36 140.5t83 132.5q-47 42 -64.5 91.5t-17.5 127.5q0 377 422 377q60 0 145 -12.5t140 -24.5l55 -13l-12 -227q-219 33 -311 33q-110 0 -148.5 -26.5t-38.5 -86.5q0 -23 6.5 -37.5t20 -27.5t47 -25t74 -23.5t114.5 -29.5q81 -20 132.5 -42t90.5 -57.5 t55.5 -86.5t16.5 -125q0 -64 -27 -141t-67 -142q34 -32 52 -94t18 -127q0 -199 -99.5 -287t-318.5 -88q-59 0 -149.5 11.5t-151.5 22.5l-60 11l27 227q210 -28 316 -28q100 0 145 25t45 85q0 14 -3 25t-11.5 21t-16.5 17.5t-25 15.5t-30 13t-38.5 13t-42.5 13t-51 14.5 t-56 15.5q-67 19 -108.5 34.5t-82.5 40.5t-63 56.5t-35 78t-13 109.5zM326 487q0 -54 22 -77.5t92 -40.5q66 -17 170 -60q15 20 25 64t10 82q0 24 -9.5 43t-20 30t-37.5 22.5t-40 15.5t-49 14q-16 5 -47.5 12.5t-55 14t-30.5 9.5q-11 -19 -20.5 -59t-9.5 -70z" />
<glyph unicode="&#xa8;" horiz-adv-x="1052" d="M150 1231v276h227v-276h-227zM547 1231v276h225v-276h-225z" />
<glyph unicode="&#xa9;" horiz-adv-x="1286" d="M78 889q0 252 159.5 416.5t405.5 164.5q167 0 297 -80t198 -211.5t68 -289.5q0 -252 -155.5 -417t-411.5 -165q-158 0 -287 76.5t-201.5 210t-72.5 295.5zM205 889q0 -190 124.5 -324.5t309.5 -134.5q125 0 226.5 62t157.5 167t56 230q0 124 -56.5 229t-158 167.5 t-223.5 62.5q-185 0 -310.5 -134.5t-125.5 -324.5zM397 899q0 183 63 254.5t208 71.5q44 0 84.5 -7.5t59.5 -15.5l19 -8l-14 -176q-71 12 -137 12q-40 0 -56 -28.5t-16 -102.5q0 -82 17 -118t55 -36q29 0 63.5 2.5t54.5 5.5l19 3l14 -168q-6 -4 -19 -10t-57.5 -16.5 t-95.5 -10.5q-95 0 -149.5 28.5t-83.5 105t-29 214.5z" />
<glyph unicode="&#xaa;" horiz-adv-x="825" d="M74 868q0 100 64 150.5t196 56.5l137 6v45q0 31 -90 31q-40 0 -107 -3.5t-114 -7.5l-47 -3l-7 153q16 6 44 15t104.5 24t140.5 15q158 0 235 -50t77 -186v-289q16 -12 36 -16l-4 -168q-97 0 -151.5 9t-73 21.5t-35.5 37.5q-10 -7 -27 -18t-64.5 -29.5t-90.5 -18.5 q-108 0 -165.5 60t-57.5 165zM309 877q0 -54 64 -54q18 0 42.5 8.5t40.5 16.5l15 8v82l-96 -6q-34 -3 -50 -15.5t-16 -39.5z" />
<glyph unicode="&#xab;" horiz-adv-x="1124" d="M57 430v131l430 332v-246l-206 -149l206 -168v-246zM592 430v131l430 332v-246l-207 -149l207 -168v-246z" />
<glyph unicode="&#xac;" d="M115 487v246h893v-520h-246v274h-647z" />
<glyph unicode="&#xad;" horiz-adv-x="743" d="M102 420v246h539v-246h-539z" />
<glyph unicode="&#xae;" horiz-adv-x="1286" d="M78 889q0 252 159.5 416.5t403.5 164.5q168 0 298.5 -80t198.5 -211.5t68 -289.5q0 -123 -40 -230t-112.5 -185t-179 -122.5t-233.5 -44.5q-159 0 -288.5 76.5t-202 210t-72.5 295.5zM205 889q0 -123 57.5 -228.5t158 -168t220.5 -62.5q188 0 313 134t125 325 q0 124 -56.5 229t-158 167.5t-223.5 62.5q-184 0 -310 -135t-126 -324zM395 565v645h279q107 0 170 -52t63 -163q0 -79 -17 -123t-61 -81l84 -226h-204l-58 191h-59v-191h-197zM590 901h57q33 0 51.5 22t18.5 58q0 38 -18 60t-54 22h-55v-162z" />
<glyph unicode="&#xaf;" horiz-adv-x="946" d="M139 1284v223h633v-223h-633z" />
<glyph unicode="&#xb0;" d="M266 1110q0 136 85 221.5t222 85.5t222.5 -85.5t85.5 -221.5t-85.5 -220.5t-222.5 -84.5t-222 84.5t-85 220.5zM420 1110q0 -69 42 -112.5t111 -43.5t113.5 43.5t44.5 112.5t-44.5 113.5t-113.5 44.5q-68 0 -110.5 -44t-42.5 -114z" />
<glyph unicode="&#xb1;" d="M102 39v246h942v-246h-942zM102 553v246h347v221h245v-221h350v-246h-350v-205h-245v205h-347z" />
<glyph unicode="&#xb2;" horiz-adv-x="573" d="M43 979v184l150 121q52 41 73 67.5t21 49.5q0 18 -18 24.5t-58 6.5q-20 0 -59 -3t-68 -7l-29 -3l-8 203q150 18 242 18q126 0 176.5 -47t50.5 -157q0 -68 -26.5 -114t-88.5 -91l-77 -57h192v-195h-473z" />
<glyph unicode="&#xb3;" horiz-adv-x="573" d="M41 973l12 190q125 -12 193 -12q33 0 46 7t13 26q0 18 -11.5 23t-41.5 5h-135v174h131q41 0 41 29q0 31 -56 31q-34 0 -77 -2.5t-69 -5.5l-26 -2l-12 186q139 18 221 18q248 0 248 -182q0 -108 -59 -143q71 -30 71 -150q0 -104 -63 -156.5t-178 -52.5q-44 0 -106 4 t-102 8z" />
<glyph unicode="&#xb4;" horiz-adv-x="1144" d="M172 1393l496 192l80 -246l-504 -159z" />
<glyph unicode="&#xb5;" d="M147 -430v1454h275v-565q0 -138 28.5 -194t102.5 -56q40 0 83 30.5t66 60.5l23 30v694h274v-1024h-268l-4 100q-4 -5 -11 -13.5t-31 -30t-50.5 -38t-68 -30t-85.5 -13.5q-14 0 -59 5v-410h-275z" />
<glyph unicode="&#xb6;" horiz-adv-x="1144" d="M51 987q0 72 11.5 135.5t38.5 121.5t68 99.5t104 66t143 24.5h639v-217h-72v-1217h-219v1217h-119v-1217h-221v627q-157 0 -265 100t-108 260z" />
<glyph unicode="&#xb7;" horiz-adv-x="483" d="M102 424v346h279v-346h-279z" />
<glyph unicode="&#xb8;" horiz-adv-x="1619" d="M702 -446l9 165q59 -2 92 -2q74 0 74 50q0 23 -18.5 31.5t-55.5 8.5h-47v203h104v-78h12q46 0 82 -7.5t71 -26t54 -57t19 -95.5q0 -103 -57.5 -159t-157.5 -56q-37 0 -82.5 6t-72.5 11z" />
<glyph unicode="&#xb9;" horiz-adv-x="573" d="M23 1464l217 154h196v-639h-217v399l-96 -65z" />
<glyph unicode="&#xba;" horiz-adv-x="804" d="M70 1001q0 189 84 270t243 81q228 0 297 -140q43 -86 43 -211q0 -358 -340 -358q-131 0 -211.5 57t-105.5 185q-10 44 -10 116zM289 1001q0 -15 6 -69q6 -59 27.5 -76.5t74.5 -17.5q70 0 94.5 31.5t24.5 131.5q0 32 -4 64q-8 54 -34.5 72t-80.5 18q-62 0 -85 -31.5 t-23 -122.5z" />
<glyph unicode="&#xbb;" horiz-adv-x="1163" d="M102 84v246l207 149l-207 168v246l430 -346v-131zM676 84v246l207 149l-207 168v246l430 -346v-131z" />
<glyph unicode="&#xbc;" horiz-adv-x="1304" d="M0 1464l217 154h197v-639h-217v399l-97 -65zM205 41l545 1429l249 -88l-544 -1431zM758 72v180l80 387h241l-106 -373h55l29 185h186v-185h23v-194h-23v-72h-215v72h-270z" />
<glyph unicode="&#xbd;" horiz-adv-x="1368" d="M0 1464l217 154h197v-639h-217v399l-97 -65zM205 41l545 1429l249 -88l-544 -1431zM844 0v184l149 121q52 41 73 67.5t21 49.5q0 18 -17.5 24.5t-57.5 6.5q-20 0 -59 -3.5t-68 -6.5l-29 -3l-8 203q150 19 242 19q126 0 176.5 -47.5t50.5 -157.5q0 -68 -26.5 -114 t-88.5 -91l-78 -57h193v-195h-473z" />
<glyph unicode="&#xbe;" horiz-adv-x="1333" d="M47 973l12 190q125 -12 193 -12q33 0 46 7t13 26q0 18 -11.5 23t-41.5 5h-135v174h131q41 0 41 29q0 31 -55 31q-34 0 -77 -2.5t-69 -5.5l-26 -2l-13 186q139 18 221 18q248 0 248 -182q0 -108 -59 -143q72 -31 72 -150q0 -104 -63.5 -156.5t-178.5 -52.5q-44 0 -106 4 t-102 8zM233 41l545 1429l250 -88l-545 -1431zM786 72v180l80 387h242l-107 -373h56l28 185h187v-185h22v-194h-22v-72h-215v72h-271z" />
<glyph unicode="&#xbf;" horiz-adv-x="856" d="M49 -18q0 110 47.5 189.5t173.5 203.5q44 44 63 76t19 67v80h266q17 -67 17 -137q0 -40 -9 -72.5t-34.5 -68t-53 -64.5t-81.5 -82q-68 -64 -92.5 -102.5t-24.5 -89.5q0 -73 37.5 -101t118.5 -28q44 0 115.5 7.5t120.5 15.5l50 7l29 -213q-223 -63 -348 -63 q-216 0 -315 87t-99 288zM352 682v342h283v-342h-283z" />
<glyph unicode="&#xc0;" horiz-adv-x="1128" d="M27 0l290 1393h496l287 -1393h-283l-51 242h-401l-56 -242h-282zM248 1702l80 244l497 -185l-73 -217zM412 487h305l-137 660h-31z" />
<glyph unicode="&#xc1;" horiz-adv-x="1128" d="M27 0l290 1393h496l287 -1393h-283l-51 242h-401l-56 -242h-282zM305 1778l496 192l80 -246l-504 -157zM412 487h305l-137 660h-31z" />
<glyph unicode="&#xc2;" horiz-adv-x="1128" d="M27 0l290 1393h496l287 -1393h-283l-51 242h-401l-56 -242h-282zM199 1595l274 312h166l279 -312h-256l-103 125l-106 -125h-254zM412 487h305l-137 660h-31z" />
<glyph unicode="&#xc3;" horiz-adv-x="1128" d="M27 0l290 1393h496l287 -1393h-283l-51 242h-401l-56 -242h-282zM203 1794q4 5 12 14t31.5 31.5t47 40t55.5 31.5t61 14q52 0 121 -21.5t124.5 -43t75.5 -21.5q22 0 61.5 19.5t67.5 39.5l29 19l51 -191q-4 -5 -12 -14t-32 -31.5t-48 -40t-56 -31.5t-59 -14 q-53 0 -171.5 44t-153.5 44q-24 0 -63 -19.5t-66 -39.5l-27 -20zM412 487h305l-137 660h-31z" />
<glyph unicode="&#xc4;" horiz-adv-x="1128" d="M27 0l290 1393h496l287 -1393h-283l-51 242h-401l-56 -242h-282zM254 1614v276h225v-276h-225zM412 487h305l-137 660h-31zM662 1614v276h225v-276h-225z" />
<glyph unicode="&#xc5;" horiz-adv-x="1128" d="M27 0l286 1372q-14 41 -14 96q0 121 72 180.5t198 59.5q119 0 194 -60.5t75 -179.5q0 -58 -19 -104l281 -1364h-283l-51 242h-401l-56 -242h-282zM412 487h305l-137 660h-31zM477 1468q0 -30 24.5 -46.5t67.5 -16.5q90 0 90 63q0 30 -24 47t-66 17q-43 0 -67.5 -17.5 t-24.5 -46.5z" />
<glyph unicode="&#xc6;" horiz-adv-x="1536" d="M25 0l297 1413h1144v-268h-567v-322h451v-256h-451v-301h567v-266h-829v244h-295l-51 -244h-266zM397 510h240v637h-111z" />
<glyph unicode="&#xc7;" horiz-adv-x="1017" d="M82 702q0 381 117.5 548t382.5 167q64 0 157.5 -12.5t154.5 -24.5l62 -12l-12 -221q-209 24 -315 24q-138 0 -197 -106.5t-59 -362.5q0 -123 12 -207.5t41 -148.5t81 -94.5t130 -30.5q44 0 120.5 5.5t131.5 11.5l55 6l10 -224q-196 -45 -370 -45v-43h12q46 0 82 -7.5 t70.5 -26t53.5 -57t19 -95.5q0 -103 -57.5 -159t-157.5 -56q-37 0 -82 6t-72 11l-26 6l8 165q59 -2 92 -2q74 0 74 50q0 23 -18.5 31.5t-55.5 8.5h-47v177q-116 16 -194.5 70t-122.5 149t-62 214t-18 285z" />
<glyph unicode="&#xc8;" horiz-adv-x="1028" d="M131 0v1393h827v-246h-544v-328h430v-246h-430v-327h544v-246h-827zM176 1702l80 244l498 -185l-74 -217z" />
<glyph unicode="&#xc9;" horiz-adv-x="1028" d="M131 0v1393h827v-246h-544v-328h430v-246h-430v-327h544v-246h-827zM281 1778l495 192l80 -246l-504 -157z" />
<glyph unicode="&#xca;" horiz-adv-x="1028" d="M131 0v1393h827v-246h-544v-328h430v-246h-430v-327h544v-246h-827zM182 1602l275 311h166l278 -311h-256l-102 124l-107 -124h-254z" />
<glyph unicode="&#xcb;" horiz-adv-x="1028" d="M131 0v1393h827v-246h-544v-328h430v-246h-430v-327h544v-246h-827zM238 1614v276h225v-276h-225zM645 1614v276h225v-276h-225z" />
<glyph unicode="&#xcc;" horiz-adv-x="544" d="M-102 1702l79 244l498 -185l-74 -217zM131 0v1393h283v-1393h-283z" />
<glyph unicode="&#xcd;" horiz-adv-x="544" d="M68 1778l495 192l80 -246l-504 -157zM131 0v1393h283v-1393h-283z" />
<glyph unicode="&#xce;" horiz-adv-x="544" d="M-86 1602l274 311h166l279 -311h-256l-103 124l-106 -124h-254zM131 0v1393h283v-1393h-283z" />
<glyph unicode="&#xcf;" horiz-adv-x="544" d="M-49 1638v277h225v-277h-225zM131 0v1393h283v-1393h-283zM358 1638v277h226v-277h-226z" />
<glyph unicode="&#xd0;" horiz-adv-x="1222" d="M47 563v279h94v551h449q113 0 198 -17.5t146 -55t101.5 -89.5t63.5 -129t32.5 -164.5t9.5 -204.5q0 -152 -14 -261t-50 -202.5t-97.5 -150t-158 -88t-231.5 -31.5h-449v563h-94zM424 246h166q40 0 73.5 7.5t58.5 20.5t44.5 35t33 45t23 58t15 66.5t8 77.5t3.5 84t1 93 q0 68 -1.5 110.5t-7 91.5t-16.5 77.5t-29.5 57.5t-46.5 44t-67.5 24t-91.5 9h-166v-305h242v-279h-242v-317z" />
<glyph unicode="&#xd1;" horiz-adv-x="1329" d="M131 0v1393h442l334 -1092h23v1092h268v-1393h-426l-336 1112h-22v-1112h-283zM297 1792q4 5 12 14t31.5 31.5t47 40t55.5 31.5t61 14q52 0 121 -21.5t124.5 -43t75.5 -21.5q22 0 61.5 19.5t67.5 39.5l29 19l51 -191q-4 -5 -12 -14t-32 -31.5t-48 -40t-56 -31.5t-59 -14 q-53 0 -171.5 44t-153.5 44q-24 0 -63 -19.5t-66 -39.5l-27 -20z" />
<glyph unicode="&#xd2;" horiz-adv-x="1212" d="M80 711q0 265 52.5 419t170.5 222q113 65 303 65q197 0 311 -70t165 -222t51 -414q0 -277 -57 -440t-185 -234q-112 -62 -285 -62q-288 0 -407 171.5t-119 564.5zM279 1702l79 244l498 -185l-74 -217zM371 711q0 -285 46 -387.5t189 -102.5q69 0 117 25q68 37 93.5 142.5 t25.5 322.5q0 145 -9 229t-36 138.5t-71.5 73.5t-119.5 19q-68 0 -114 -18q-71 -30 -96 -127t-25 -315z" />
<glyph unicode="&#xd3;" horiz-adv-x="1212" d="M80 711q0 265 52.5 419t170.5 222q113 65 303 65q197 0 311 -70t165 -222t51 -414q0 -277 -57 -440t-185 -234q-112 -62 -285 -62q-288 0 -407 171.5t-119 564.5zM336 1778l495 192l80 -246l-503 -157zM371 711q0 -285 46 -387.5t189 -102.5q69 0 117 25 q68 37 93.5 142.5t25.5 322.5q0 145 -9 229t-36 138.5t-71.5 73.5t-119.5 19q-68 0 -114 -18q-71 -30 -96 -127t-25 -315z" />
<glyph unicode="&#xd4;" horiz-adv-x="1212" d="M80 711q0 265 52.5 419t170.5 222q113 65 303 65q197 0 311 -70t165 -222t51 -414q0 -277 -57 -440t-185 -234q-112 -62 -285 -62q-288 0 -407 171.5t-119 564.5zM248 1595l274 312h166l279 -312h-256l-103 125l-106 -125h-254zM371 711q0 -285 46 -387.5t189 -102.5 q69 0 117 25q68 37 93.5 142.5t25.5 322.5q0 145 -9 229t-36 138.5t-71.5 73.5t-119.5 19q-68 0 -114 -18q-71 -30 -96 -127t-25 -315z" />
<glyph unicode="&#xd5;" horiz-adv-x="1212" d="M80 711q0 265 52.5 419t170.5 222q113 65 303 65q197 0 311 -70t165 -222t51 -414q0 -277 -57 -440t-185 -234q-112 -62 -285 -62q-288 0 -407 171.5t-119 564.5zM242 1792q4 5 12 14t31.5 31.5t47 40t55.5 31.5t61 14q52 0 121 -21.5t124.5 -43t75.5 -21.5 q22 0 61.5 19.5t68.5 39.5l28 19l51 -191q-4 -5 -12 -14t-32 -31.5t-48 -40t-56 -31.5t-59 -14q-53 0 -172 44t-154 44q-24 0 -63 -19.5t-65 -39.5l-27 -20zM371 711q0 -285 46 -387.5t189 -102.5q69 0 117 25q68 37 93.5 142.5t25.5 322.5q0 145 -9 229t-36 138.5 t-71.5 73.5t-119.5 19q-68 0 -114 -18q-71 -30 -96 -127t-25 -315z" />
<glyph unicode="&#xd6;" horiz-adv-x="1212" d="M80 711q0 265 52.5 419t170.5 222q113 65 303 65q197 0 311 -70t165 -222t51 -414q0 -277 -57 -440t-185 -234q-112 -62 -285 -62q-288 0 -407 171.5t-119 564.5zM274 1620v276h248v-276h-248zM371 711q0 -285 46 -387.5t189 -102.5q69 0 117 25q68 37 93.5 142.5 t25.5 322.5q0 145 -9 229t-36 138.5t-71.5 73.5t-119.5 19q-68 0 -114 -18q-71 -30 -96 -127t-25 -315zM692 1620v276h246v-276h-246z" />
<glyph unicode="&#xd7;" d="M115 227l291 285l-289 283l174 174l282 -289l287 293l172 -174l-293 -287l293 -285l-174 -174l-285 291l-284 -289z" />
<glyph unicode="&#xd8;" horiz-adv-x="1212" d="M80 711q0 265 52.5 419t170.5 222q113 65 303 65q121 0 219 -28l115 260l164 -62l-127 -287q82 -81 119 -223.5t37 -365.5q0 -277 -57 -440t-185 -234q-112 -62 -285 -62q-118 0 -203 27l-110 -250l-154 82l111 254q-89 83 -129.5 235t-40.5 388zM371 711q0 -213 20 -305 l148 335l182 412q-47 18 -115 18t-114 -18q-71 -30 -96 -127t-25 -315zM506 236q44 -15 100 -15q69 0 117 25q68 37 93.5 142.5t25.5 322.5q0 152 -13 254l-133 -299z" />
<glyph unicode="&#xd9;" horiz-adv-x="1224" d="M123 473v920h283v-944q0 -124 45 -176t161 -52t161.5 52t45.5 176v944h283v-920q0 -262 -115 -380t-375 -118t-374.5 118t-114.5 380zM322 1702l79 244l498 -185l-74 -217z" />
<glyph unicode="&#xda;" horiz-adv-x="1224" d="M123 473v920h283v-944q0 -124 45 -176t161 -52t161.5 52t45.5 176v944h283v-920q0 -262 -115 -380t-375 -118t-374.5 118t-114.5 380zM315 1778l496 192l80 -246l-504 -157z" />
<glyph unicode="&#xdb;" horiz-adv-x="1224" d="M-115 2005l275 311h166l278 -311h-256l-102 125l-107 -125h-254zM123 473v920h283v-944q0 -124 45 -176t161 -52t161.5 52t45.5 176v944h283v-920q0 -262 -115 -380t-375 -118t-374.5 118t-114.5 380z" />
<glyph unicode="&#xdc;" horiz-adv-x="1224" d="M123 473v920h283v-944q0 -124 45 -176t161 -52t161.5 52t45.5 176v944h283v-920q0 -262 -115 -380t-375 -118t-374.5 118t-114.5 380zM281 1620v276h247v-276h-247zM698 1620v276h246v-276h-246z" />
<glyph unicode="&#xdd;" horiz-adv-x="1030" d="M-2 1393h299l217 -533l217 533h297l-381 -832v-561h-262v561zM281 1778l495 192l80 -246l-504 -157z" />
<glyph unicode="&#xde;" horiz-adv-x="1128" d="M131 0v1413h283v-199h180q104 0 191 -29.5t154.5 -88.5t105.5 -157t38 -226q0 -247 -128 -378.5t-361 -131.5h-180v-203h-283zM414 449h178q98 0 149.5 73t51.5 191q0 66 -20 122t-67 95t-114 39h-178v-520z" />
<glyph unicode="&#xdf;" horiz-adv-x="1138" d="M113 0v1040q0 228 108 323t338 95q234 0 337 -71t103 -246q0 -105 -41 -163.5t-143 -109.5q-64 -31 -86 -52.5t-22 -59.5q0 -35 33.5 -61t119.5 -66q131 -61 186.5 -122.5t55.5 -168.5q0 -105 -22 -176t-68 -112t-107.5 -58t-148.5 -17q-65 0 -144 10.5t-126 21.5l-46 11 l9 199q206 -8 239 -8q89 0 122.5 24.5t33.5 75.5q0 40 -32.5 67t-125.5 68q-123 55 -180 118t-57 167q0 116 29 168t120 98q86 43 114.5 70.5t28.5 62.5q0 56 -41 76.5t-141 20.5q-91 0 -139.5 -38t-48.5 -134v-1053h-258z" />
<glyph unicode="&#xe0;" horiz-adv-x="1048" d="M68 500q0 98 10.5 175.5t39 149.5t74 119.5t119.5 76t172 28.5q68 0 181.5 -9.5t192.5 -19.5l79 -10v-719l10 -287l-272 -10q-10 70 -10 129q-3 -6 -9.5 -16t-30 -35.5t-49.5 -45t-69.5 -35.5t-89.5 -16q-185 0 -266.5 129t-81.5 396zM244 1354l75 227l498 -184l-67 -203 zM346 500q0 -71 5.5 -120.5t19.5 -90t41.5 -60.5t68.5 -20q30 0 59.5 14.5t50.5 35.5t37.5 41.5t25.5 35.5l8 14v453q-109 12 -154 12q-89 0 -125.5 -75.5t-36.5 -239.5z" />
<glyph unicode="&#xe1;" horiz-adv-x="1048" d="M68 500q0 98 10.5 175.5t39 149.5t74 119.5t119.5 76t172 28.5q68 0 181.5 -9.5t192.5 -19.5l79 -10v-719l10 -287l-272 -10q-10 70 -10 129q-3 -6 -9.5 -16t-30 -35.5t-49.5 -45t-69.5 -35.5t-89.5 -16q-185 0 -266.5 129t-81.5 396zM330 1393l495 192l80 -246 l-504 -159zM346 500q0 -71 5.5 -120.5t19.5 -90t41.5 -60.5t68.5 -20q30 0 59.5 14.5t50.5 35.5t37.5 41.5t25.5 35.5l8 14v453q-109 12 -154 12q-89 0 -125.5 -75.5t-36.5 -239.5z" />
<glyph unicode="&#xe2;" horiz-adv-x="1048" d="M68 500q0 98 10.5 175.5t39 149.5t74 119.5t119.5 76t172 28.5q68 0 181.5 -9.5t192.5 -19.5l79 -10v-719l10 -287l-272 -10q-10 70 -10 129q-3 -6 -9.5 -16t-30 -35.5t-49.5 -45t-69.5 -35.5t-89.5 -16q-185 0 -266.5 129t-81.5 396zM184 1178l254 358h207l258 -358 h-276l-82 127l-86 -127h-275zM346 500q0 -71 5.5 -120.5t19.5 -90t41.5 -60.5t68.5 -20q30 0 59.5 14.5t50.5 35.5t37.5 41.5t25.5 35.5l8 14v453q-109 12 -154 12q-89 0 -125.5 -75.5t-36.5 -239.5z" />
<glyph unicode="&#xe3;" horiz-adv-x="1048" d="M68 500q0 98 10.5 175.5t39 149.5t74 119.5t119.5 76t172 28.5q68 0 181.5 -9.5t192.5 -19.5l79 -10v-719l10 -287l-272 -10q-10 70 -10 129q-3 -6 -9.5 -16t-30 -35.5t-49.5 -45t-69.5 -35.5t-89.5 -16q-185 0 -266.5 129t-81.5 396zM215 1405q4 5 12 14t31.5 32 t47 40.5t55.5 32t61 14.5q49 0 108.5 -22t107 -44t67.5 -22q23 0 62 20t67 40l28 20l51 -189q-4 -5 -12 -14t-32 -32t-47.5 -40.5t-55.5 -32t-59 -14.5q-53 0 -155.5 45t-131.5 45q-24 0 -63 -20t-66 -40l-27 -21zM346 500q0 -71 5.5 -120.5t19.5 -90t41.5 -60.5t68.5 -20 q30 0 59.5 14.5t50.5 35.5t37.5 41.5t25.5 35.5l8 14v453q-109 12 -154 12q-89 0 -125.5 -75.5t-36.5 -239.5z" />
<glyph unicode="&#xe4;" horiz-adv-x="1048" d="M68 500q0 98 10.5 175.5t39 149.5t74 119.5t119.5 76t172 28.5q68 0 181.5 -9.5t192.5 -19.5l79 -10v-719l10 -287l-272 -10q-10 70 -10 129q-3 -6 -9.5 -16t-30 -35.5t-49.5 -45t-69.5 -35.5t-89.5 -16q-185 0 -266.5 129t-81.5 396zM209 1231v276h248v-276h-248z M346 500q0 -71 5.5 -120.5t19.5 -90t41.5 -60.5t68.5 -20q30 0 59.5 14.5t50.5 35.5t37.5 41.5t25.5 35.5l8 14v453q-109 12 -154 12q-89 0 -125.5 -75.5t-36.5 -239.5zM627 1231v276h245v-276h-245z" />
<glyph unicode="&#xe5;" horiz-adv-x="1048" d="M68 500q0 98 10.5 175.5t39 149.5t74 119.5t119.5 76t172 28.5q68 0 181.5 -9.5t192.5 -19.5l79 -10v-719l10 -287l-272 -10q-10 70 -10 129q-3 -6 -9.5 -16t-30 -35.5t-49.5 -45t-69.5 -35.5t-89.5 -16q-185 0 -266.5 129t-81.5 396zM346 500q0 -71 5.5 -120.5t19.5 -90 t41.5 -60.5t68.5 -20q30 0 59.5 14.5t50.5 35.5t37.5 41.5t25.5 35.5l8 14v453q-109 12 -154 12q-89 0 -125.5 -75.5t-36.5 -239.5zM358 1341q0 101 55.5 161.5t151.5 60.5q92 0 148.5 -61t56.5 -161q0 -104 -56 -162.5t-149 -58.5q-98 0 -152.5 57.5t-54.5 163.5zM506 1341 q0 -27 16 -43t43 -16q25 0 41.5 16.5t16.5 42.5q0 24 -17 41t-41 17q-27 0 -43 -17t-16 -41z" />
<glyph unicode="&#xe6;" horiz-adv-x="1468" d="M51 307q0 265 248 314q97 18 274 22q0 25 -0.5 39t-5 38t-12.5 37t-25 23.5t-41 10.5q-64 0 -158 -7.5t-156 -14.5l-62 -7l-9 239q249 46 390 46q173 0 254 -84q96 84 251 84q151 0 246 -70.5t133 -200.5q25 -89 25 -237v-146h-567q0 -42 16 -82q40 -88 170 -88 q61 0 147.5 4.5t142.5 9.5l56 5l4 -209q-20 -6 -54.5 -16t-132.5 -26t-186 -16q-206 0 -307 101q-184 -101 -338 -101q-133 0 -218 97t-85 235zM311 322q0 -42 22.5 -76.5t63.5 -34.5q95 0 207 25q-31 69 -31 198q-81 0 -163 -8q-45 -5 -72 -32t-27 -72zM834 606h313 q0 78 -21 127q-37 78 -135 78q-85 0 -120 -53t-37 -152z" />
<glyph unicode="&#xe7;" horiz-adv-x="825" d="M68 514q0 269 99.5 401t301.5 132q68 0 141 -10.5t112 -21.5l40 -11l-8 -209q-135 14 -209 14q-114 0 -156.5 -69t-42.5 -226q0 -78 8 -130t29.5 -92.5t61.5 -59.5t100 -19q33 0 85 3t88 6l36 3l8 -202q-147 -48 -299 -48h-6v-43h12q46 0 82 -7.5t70.5 -26t53.5 -57 t19 -95.5q0 -103 -57.5 -159t-157.5 -56q-37 0 -82 6t-71 11l-27 6l8 165q59 -2 92 -2q74 0 74 50q0 23 -18.5 31.5t-55.5 8.5h-47v181q-152 32 -218 164t-66 362z" />
<glyph unicode="&#xe8;" horiz-adv-x="950" d="M63 475q0 95 14 177.5t46 156t81 125.5t123 82.5t167 30.5q201 0 302 -77.5t101 -246.5q0 -78 -22 -134t-60.5 -90.5t-102 -54.5t-135 -27t-171.5 -7h-68v-35q0 -73 49 -117.5t135 -44.5q62 0 144 6.5t133 12.5l51 6l4 -195q-17 -7 -48.5 -17.5t-123.5 -28t-180 -17.5 q-227 0 -333 120.5t-106 374.5zM166 1354l76 227l497 -184l-67 -203zM340 610h66q121 0 171 21t50 88q0 62 -30.5 85t-102.5 23q-42 0 -72.5 -16.5t-47 -47.5t-24.5 -68t-10 -85z" />
<glyph unicode="&#xe9;" horiz-adv-x="950" d="M63 475q0 95 14 177.5t46 156t81 125.5t123 82.5t167 30.5q201 0 302 -77.5t101 -246.5q0 -78 -22 -134t-60.5 -90.5t-102 -54.5t-135 -27t-171.5 -7h-68v-35q0 -73 49 -117.5t135 -44.5q62 0 144 6.5t133 12.5l51 6l4 -195q-17 -7 -48.5 -17.5t-123.5 -28t-180 -17.5 q-227 0 -333 120.5t-106 374.5zM225 1393l496 192l80 -246l-504 -159zM340 610h66q121 0 171 21t50 88q0 62 -30.5 85t-102.5 23q-42 0 -72.5 -16.5t-47 -47.5t-24.5 -68t-10 -85z" />
<glyph unicode="&#xea;" horiz-adv-x="950" d="M63 475q0 95 14 177.5t46 156t81 125.5t123 82.5t167 30.5q201 0 302 -77.5t101 -246.5q0 -78 -22 -134t-60.5 -90.5t-102 -54.5t-135 -27t-171.5 -7h-68v-35q0 -73 49 -117.5t135 -44.5q62 0 144 6.5t133 12.5l51 6l4 -195q-17 -7 -48.5 -17.5t-123.5 -28t-180 -17.5 q-227 0 -333 120.5t-106 374.5zM139 1178l254 358h207l258 -358h-276l-82 127l-86 -127h-275zM340 610h66q121 0 171 21t50 88q0 62 -30.5 85t-102.5 23q-42 0 -72.5 -16.5t-47 -47.5t-24.5 -68t-10 -85z" />
<glyph unicode="&#xeb;" horiz-adv-x="950" d="M63 475q0 95 14 177.5t46 156t81 125.5t123 82.5t167 30.5q201 0 302 -77.5t101 -246.5q0 -78 -22 -134t-60.5 -90.5t-102 -54.5t-135 -27t-171.5 -7h-68v-35q0 -73 49 -117.5t135 -44.5q62 0 144 6.5t133 12.5l51 6l4 -195q-17 -7 -48.5 -17.5t-123.5 -28t-180 -17.5 q-227 0 -333 120.5t-106 374.5zM193 1231v276h247v-276h-247zM340 610h66q121 0 171 21t50 88q0 62 -30.5 85t-102.5 23q-42 0 -72.5 -16.5t-47 -47.5t-24.5 -68t-10 -85zM610 1231v276h246v-276h-246z" />
<glyph unicode="&#xec;" horiz-adv-x="499" d="M-129 1354l76 227l497 -184l-67 -203zM113 0v1024h274v-1024h-274z" />
<glyph unicode="&#xed;" horiz-adv-x="499" d="M68 1393l495 192l80 -246l-504 -159zM113 0v1024h274v-1024h-274z" />
<glyph unicode="&#xee;" horiz-adv-x="499" d="M-109 1178l254 358h207l258 -358h-276l-82 127l-86 -127h-275zM113 0v1024h274v-1024h-274z" />
<glyph unicode="&#xef;" horiz-adv-x="499" d="M-82 1231v276h248v-276h-248zM113 0v1024h274v-1024h-274zM336 1231v276h246v-276h-246z" />
<glyph unicode="&#xf0;" horiz-adv-x="1081" d="M68 451q0 218 109 332t310 114q57 0 119 -11.5t96 -22.5l33 -11q-12 108 -60 167t-157 95l-190 -158l-117 154l72 59l-131 23l34 238q194 -12 346 -56l175 144l118 -150l-94 -78q281 -173 281 -567q0 -384 -115.5 -562.5t-376.5 -178.5q-226 0 -339 123.5t-113 345.5z M346 449q0 -91 42 -149t132 -58q215 0 215 364q-10 5 -31.5 13t-80.5 20t-119 12q-76 0 -117 -50.5t-41 -151.5z" />
<glyph unicode="&#xf1;" horiz-adv-x="1067" d="M113 0h274v694q3 5 9 13t25 29t38.5 37t47 29t52.5 13q74 0 102.5 -56t28.5 -194v-565h275v633q0 87 -18 159t-55.5 131t-104 92.5t-156.5 33.5q-44 0 -85 -13t-69 -31.5t-50 -36.5t-32 -31l-10 -13l-4 100h-268v-1024zM211 1405q4 5 12 14t31.5 32t47 40.5t55.5 32 t61 14.5q49 0 108.5 -22t106.5 -44t67 -22q23 0 62.5 20t67.5 40l28 20l51 -189q-4 -5 -12 -14t-32 -32t-48 -40.5t-56 -32t-59 -14.5q-53 0 -155 45t-131 45q-24 0 -63 -20t-66 -40l-27 -21z" />
<glyph unicode="&#xf2;" horiz-adv-x="995" d="M63 512q0 535 435 535q434 0 434 -535q0 -93 -12 -169.5t-42.5 -146.5t-78.5 -117.5t-124.5 -75.5t-176.5 -28t-176.5 28t-125 75.5t-79 117.5t-42.5 146.5t-12 169.5zM152 1354l75 227l498 -184l-68 -203zM326 512q0 -69 7 -120t25 -94.5t53 -66t87 -22.5q51 0 86 22.5 t53 66t25.5 94.5t7.5 120q0 55 -4 97t-15.5 82t-30 65.5t-49.5 41t-73 15.5t-73 -15.5t-49.5 -41t-30 -65.5t-15.5 -82t-4 -97z" />
<glyph unicode="&#xf3;" horiz-adv-x="995" d="M63 512q0 535 435 535q434 0 434 -535q0 -93 -12 -169.5t-42.5 -146.5t-78.5 -117.5t-124.5 -75.5t-176.5 -28t-176.5 28t-125 75.5t-79 117.5t-42.5 146.5t-12 169.5zM260 1393l496 192l80 -246l-504 -159zM326 512q0 -69 7 -120t25 -94.5t53 -66t87 -22.5q51 0 86 22.5 t53 66t25.5 94.5t7.5 120q0 55 -4 97t-15.5 82t-30 65.5t-49.5 41t-73 15.5t-73 -15.5t-49.5 -41t-30 -65.5t-15.5 -82t-4 -97z" />
<glyph unicode="&#xf4;" horiz-adv-x="995" d="M63 512q0 535 435 535q434 0 434 -535q0 -93 -12 -169.5t-42.5 -146.5t-78.5 -117.5t-124.5 -75.5t-176.5 -28t-176.5 28t-125 75.5t-79 117.5t-42.5 146.5t-12 169.5zM139 1178l254 358h207l258 -358h-276l-82 127l-86 -127h-275zM326 512q0 -69 7 -120t25 -94.5t53 -66 t87 -22.5q51 0 86 22.5t53 66t25.5 94.5t7.5 120q0 55 -4 97t-15.5 82t-30 65.5t-49.5 41t-73 15.5t-73 -15.5t-49.5 -41t-30 -65.5t-15.5 -82t-4 -97z" />
<glyph unicode="&#xf5;" horiz-adv-x="995" d="M63 512q0 535 435 535q434 0 434 -535q0 -93 -12 -169.5t-42.5 -146.5t-78.5 -117.5t-124.5 -75.5t-176.5 -28t-176.5 28t-125 75.5t-79 117.5t-42.5 146.5t-12 169.5zM152 1405q4 5 11.5 14t31 32t47 40.5t55.5 32t61 14.5q49 0 108.5 -22t107 -44t67.5 -22 q23 0 62.5 20t67.5 40l28 20l51 -189q-4 -5 -12 -14t-32 -32t-48 -40.5t-56 -32t-59 -14.5q-53 0 -155.5 45t-131.5 45q-24 0 -63 -20t-65 -40l-27 -21zM326 512q0 -69 7 -120t25 -94.5t53 -66t87 -22.5q51 0 86 22.5t53 66t25.5 94.5t7.5 120q0 55 -4 97t-15.5 82t-30 65.5 t-49.5 41t-73 15.5t-73 -15.5t-49.5 -41t-30 -65.5t-15.5 -82t-4 -97z" />
<glyph unicode="&#xf6;" horiz-adv-x="995" d="M63 512q0 535 435 535q434 0 434 -535q0 -93 -12 -169.5t-42.5 -146.5t-78.5 -117.5t-124.5 -75.5t-176.5 -28t-176.5 28t-125 75.5t-79 117.5t-42.5 146.5t-12 169.5zM184 1231v276h228v-276h-228zM326 512q0 -69 7 -120t25 -94.5t53 -66t87 -22.5q51 0 86 22.5t53 66 t25.5 94.5t7.5 120q0 55 -4 97t-15.5 82t-30 65.5t-49.5 41t-73 15.5t-73 -15.5t-49.5 -41t-30 -65.5t-15.5 -82t-4 -97zM582 1231v276h225v-276h-225z" />
<glyph unicode="&#xf7;" d="M102 391v246h942v-246h-942zM436 35v270h271v-270h-271zM436 721v270h271v-270h-271z" />
<glyph unicode="&#xf8;" horiz-adv-x="993" d="M63 516q0 535 435 535q48 0 108 -11l76 201l160 -61l-82 -203q172 -127 172 -461q0 -93 -12 -169.5t-42.5 -146t-78.5 -117t-124.5 -75.5t-176.5 -28q-68 0 -123 12l-78 -211l-158 61l86 215q-162 124 -162 459zM326 516q0 -107 16 -170l78 195l102 274q-8 2 -24 2 q-42 0 -73 -15.5t-49.5 -41t-30 -65.5t-15.5 -82t-4 -97zM461 215q10 -2 37 -2q51 0 86 22.5t53 66t25.5 94.5t7.5 120q0 111 -23 184l-84 -211z" />
<glyph unicode="&#xf9;" horiz-adv-x="1069" d="M104 385v639h275v-565q0 -138 28.5 -194t102.5 -56q40 0 83 30.5t66 60.5l23 30v694h274v-1024h-268l-4 100q-4 -5 -11 -13.5t-31 -30t-50.5 -38t-68 -30t-85.5 -13.5q-174 0 -254 104.5t-80 305.5zM209 1354l76 227l497 -184l-67 -203z" />
<glyph unicode="&#xfa;" horiz-adv-x="1069" d="M104 385v639h275v-565q0 -138 28.5 -194t102.5 -56q40 0 83 30.5t66 60.5l23 30v694h274v-1024h-268l-4 100q-4 -5 -11 -13.5t-31 -30t-50.5 -38t-68 -30t-85.5 -13.5q-174 0 -254 104.5t-80 305.5zM268 1393l496 192l80 -246l-504 -159z" />
<glyph unicode="&#xfb;" horiz-adv-x="1069" d="M104 385v639h275v-565q0 -138 28.5 -194t102.5 -56q40 0 83 30.5t66 60.5l23 30v694h274v-1024h-268l-4 100q-4 -5 -11 -13.5t-31 -30t-50.5 -38t-68 -30t-85.5 -13.5q-174 0 -254 104.5t-80 305.5zM176 1178l254 358h207l258 -358h-277l-81 127l-86 -127h-275z" />
<glyph unicode="&#xfc;" horiz-adv-x="1069" d="M104 385v639h275v-565q0 -138 28.5 -194t102.5 -56q40 0 83 30.5t66 60.5l23 30v694h274v-1024h-268l-4 100q-4 -5 -11 -13.5t-31 -30t-50.5 -38t-68 -30t-85.5 -13.5q-174 0 -254 104.5t-80 305.5zM203 1231v276h248v-276h-248zM621 1231v276h245v-276h-245z" />
<glyph unicode="&#xfd;" horiz-adv-x="933" d="M27 1024h268l158 -797h32l164 797h260l-331 -1454h-256l112 430h-176zM225 1393l496 192l80 -246l-504 -159z" />
<glyph unicode="&#xfe;" horiz-adv-x="1046" d="M113 -426v1856h274v-449q119 66 221 66q373 0 373 -525q0 -157 -29 -264t-88 -169t-139 -88t-193 -26l-145 7v-408h-274zM387 233l141 -12q96 0 135 75t39 226q0 46 -7 90.5t-22.5 89t-48 72t-77.5 27.5q-26 0 -66 -14.5t-67 -28.5l-27 -15v-510z" />
<glyph unicode="&#xff;" horiz-adv-x="933" d="M27 1024h268l158 -797h32l164 797h260l-331 -1454h-256l112 430h-176zM137 1231v276h248v-276h-248zM555 1231v276h246v-276h-246z" />
<glyph unicode="&#x152;" horiz-adv-x="1703" d="M78 707q0 379 124.5 555t377.5 176q79 0 229 -25h825v-268h-563v-322h449v-256h-449v-299h563v-268h-821q-154 -25 -233 -25q-180 0 -290.5 83t-162.5 249q-49 162 -49 400zM352 707q0 -167 23 -265q25 -103 82.5 -149.5t160.5 -46.5q59 0 191 12v897q-122 12 -195 12 q-137 0 -199.5 -104t-62.5 -356z" />
<glyph unicode="&#x153;" horiz-adv-x="1562" d="M63 512q0 535 435 535q189 0 305 -113q116 113 282 113q294 0 379 -246q33 -101 33 -213v-195h-567q0 -48 20 -90q42 -80 164 -80q63 0 150 4.5t142 9.5l56 5l4 -209q-19 -6 -53.5 -16t-132.5 -26t-186 -16q-193 0 -299 103q-118 -103 -297 -103q-290 0 -385 238 q-50 129 -50 299zM326 512q0 -141 32 -209q40 -84 140 -84q44 0 76 18.5t50 46t29 68.5t14 77.5t3 82.5q0 84 -15 166q-28 125 -157 125q-52 0 -87 -21.5t-53 -63.5t-25 -90.5t-7 -115.5zM928 606h315q0 86 -16 127q-13 34 -44 49t-87 15q-89 0 -127.5 -47.5t-40.5 -143.5z " />
<glyph unicode="&#x178;" horiz-adv-x="1030" d="M-2 1393h299l217 -533l217 533h297l-381 -832v-561h-262v561zM199 1593v277h225v-277h-225zM606 1593v277h225v-277h-225z" />
<glyph unicode="&#x2c6;" horiz-adv-x="1619" d="M451 1178l254 358h165l258 -358h-256l-81 127l-86 -127h-254z" />
<glyph unicode="&#x2dc;" horiz-adv-x="913" d="M74 1405q4 5 12 14t31.5 32t47 40.5t55.5 32t61 14.5q49 0 108.5 -22t106.5 -44t67 -22q23 0 62.5 20t67.5 40l28 20l51 -189q-4 -5 -12 -14t-32 -32t-48 -40.5t-56 -32t-59 -14.5q-53 0 -155 45t-131 45q-24 0 -63 -20t-66 -40l-27 -21z" />
<glyph unicode="&#x2000;" horiz-adv-x="1158" />
<glyph unicode="&#x2001;" horiz-adv-x="2316" />
<glyph unicode="&#x2002;" horiz-adv-x="1158" />
<glyph unicode="&#x2003;" horiz-adv-x="2316" />
<glyph unicode="&#x2004;" horiz-adv-x="772" />
<glyph unicode="&#x2005;" horiz-adv-x="579" />
<glyph unicode="&#x2006;" horiz-adv-x="386" />
<glyph unicode="&#x2007;" horiz-adv-x="386" />
<glyph unicode="&#x2008;" horiz-adv-x="289" />
<glyph unicode="&#x2009;" horiz-adv-x="463" />
<glyph unicode="&#x200a;" horiz-adv-x="128" />
<glyph unicode="&#x2010;" horiz-adv-x="743" d="M102 420v246h539v-246h-539z" />
<glyph unicode="&#x2011;" horiz-adv-x="743" d="M102 420v246h539v-246h-539z" />
<glyph unicode="&#x2012;" horiz-adv-x="743" d="M102 420v246h539v-246h-539z" />
<glyph unicode="&#x2013;" horiz-adv-x="1232" d="M104 428v234h1024v-234h-1024z" />
<glyph unicode="&#x2014;" horiz-adv-x="2256" d="M104 428v234h2048v-234h-2048z" />
<glyph unicode="&#x2018;" horiz-adv-x="460" d="M59 870l136 521h198l-74 -521h-260z" />
<glyph unicode="&#x2019;" horiz-adv-x="460" d="M76 872l74 521h260l-136 -521h-198z" />
<glyph unicode="&#x201a;" horiz-adv-x="466" d="M43 -336l74 520h260l-135 -520h-199z" />
<glyph unicode="&#x201c;" horiz-adv-x="854" d="M61 872l136 521h198l-73 -521h-261zM451 872l135 521h198l-73 -521h-260z" />
<glyph unicode="&#x201d;" horiz-adv-x="849" d="M76 872l74 521h260l-136 -521h-198zM465 872l74 521h260l-135 -521h-199z" />
<glyph unicode="&#x201e;" horiz-adv-x="827" d="M-10 -348l135 520h199l-74 -520h-260zM399 -348l136 520h198l-74 -520h-260z" />
<glyph unicode="&#x2022;" horiz-adv-x="892" d="M190 205v573h512v-573h-512z" />
<glyph unicode="&#x2026;" horiz-adv-x="1427" d="M102 0v313h279v-313h-279zM573 0v313h279v-313h-279zM1047 0v313h278v-313h-278z" />
<glyph unicode="&#x202f;" horiz-adv-x="463" />
<glyph unicode="&#x2039;" horiz-adv-x="589" d="M57 430v131l430 332v-246l-206 -149l206 -168v-246z" />
<glyph unicode="&#x203a;" horiz-adv-x="589" d="M102 84v246l207 168l-207 149v246l430 -332v-131z" />
<glyph unicode="&#x205f;" horiz-adv-x="579" />
<glyph unicode="&#x20ac;" d="M111 375v215h69q-2 29 -2 92v49h-67v215h84q37 226 149.5 328t319.5 102q63 0 153.5 -12t149.5 -24l59 -11l-10 -215q-203 23 -307 23q-90 0 -145 -45.5t-79 -145.5h424v-215h-448v-49q0 -63 2 -92h446v-215h-413q54 -160 221 -160q43 0 117.5 5.5t127.5 11.5l54 6 l10 -218q-194 -45 -362 -45q-209 0 -317.5 100t-145.5 300h-90z" />
<glyph unicode="&#x2122;" horiz-adv-x="1314" d="M145 1157v162h410v-162h-84v-477h-180v477h-146zM606 678v641h211l84 -324l92 324h209v-641h-168v356l-69 -313h-113l-78 313v-356h-168z" />
<glyph unicode="&#xe000;" horiz-adv-x="1024" d="M0 0v1024h1024v-1024h-1024z" />
</font>
</defs>
</svg>
