<?xml version="1.0" standalone="no"?>
<!DOCTYPE svg PUBLIC "-//W3C//DTD SVG 1.1//EN" "http://www.w3.org/Graphics/SVG/1.1/DTD/svg11.dtd" >
<svg xmlns="http://www.w3.org/2000/svg">
<metadata></metadata>
<defs>
<font id="TitilliumLtItalic" horiz-adv-x="1146" >
<font-face units-per-em="2048" ascent="1536" descent="-512" />
<missing-glyph horiz-adv-x="450" />
<glyph horiz-adv-x="0" />
<glyph horiz-adv-x="2048" />
<glyph unicode=" "  horiz-adv-x="450" />
<glyph unicode="&#x09;" horiz-adv-x="450" />
<glyph unicode="&#xa0;" horiz-adv-x="450" />
<glyph unicode="!" horiz-adv-x="423" d="M182 0l39 170h74l-39 -170h-74zM276 432l232 1002h67l-241 -1002h-58z" />
<glyph unicode="&#x22;" horiz-adv-x="649" d="M377 995l98 435h72l-103 -435h-67zM662 995l98 435h71l-102 -435h-67z" />
<glyph unicode="#" d="M145 389l17 66h246l114 463h-246l17 65h246l98 389h74l-99 -389h385l99 389h73l-98 -389h246l-17 -65h-245l-115 -463h246l-17 -66h-245l-95 -389h-73l94 389h-385l-94 -389h-74l94 389h-246zM481 455h385l115 463h-385z" />
<glyph unicode="$" d="M205 16l12 64q127 -19 254 -29l225 631q-72 21 -117.5 41t-84 50.5t-55.5 74t-17 104.5q0 206 130.5 313t352.5 107q6 0 18.5 -1t18.5 -1l88 248h68l-90 -252q54 -4 111 -12.5t87 -14.5l31 -6l-12 -59q-123 21 -240 31l-207 -576q59 -18 97.5 -33t75.5 -37.5t57.5 -50 t32.5 -67t12 -90.5q0 -215 -127 -342t-342 -127q-49 0 -74 2l-82 -230h-63l81 234q-56 4 -116.5 11t-92.5 12zM494 952q0 -45 12.5 -76t43.5 -54t68 -38.5t101 -35.5l201 561h-29q-187 0 -292 -90t-105 -267zM532 47h64q179 0 281 109t102 293q0 50 -10.5 83t-39.5 58 t-67.5 41t-105.5 35z" />
<glyph unicode="%" d="M352 1165q69 273 281 273q99 0 137.5 -66.5t3.5 -208.5t-109 -212t-171 -70q-98 0 -137.5 70t-4.5 214zM381 12l649 1424l66 -11l-650 -1423zM424 1165q-55 -219 86 -219q74 0 119.5 54t72.5 163q28 104 8.5 156.5t-94.5 52.5q-74 0 -119.5 -51t-72.5 -156zM709 285 q68 272 278 272q99 0 138.5 -66t4.5 -208t-109 -212.5t-171 -70.5q-98 0 -137 70.5t-4 214.5zM771.5 122.5q19.5 -56.5 92.5 -56.5q74 0 121 54.5t74 162.5q28 104 7.5 156.5t-95.5 52.5q-73 0 -118.5 -51t-72.5 -156q-28 -106 -8.5 -162.5z" />
<glyph unicode="&#x26;" horiz-adv-x="1292" d="M170 291q0 217 99 342.5t335 212.5q-28 60 -38.5 98.5t-10.5 93.5q0 188 97 301t272 113q247 0 247 -213q0 -165 -112.5 -284.5t-317.5 -194.5l275 -381q87 151 135 295h78q-58 -181 -164 -355l211 -276l-51 -49l-203 262q-106 -140 -223.5 -207t-266.5 -67 q-183 0 -272.5 72.5t-89.5 236.5zM248 291q0 -240 284 -240q265 0 443 264l-336 469q-215 -75 -303 -189.5t-88 -303.5zM633 1038q0 -114 74 -221q203 77 295 177t92 245q0 78 -45 112.5t-131 34.5q-139 0 -212 -97t-73 -251z" />
<glyph unicode="'" horiz-adv-x="364" d="M377 995l98 435h72l-103 -435h-67z" />
<glyph unicode="(" horiz-adv-x="456" d="M207 207q0 138 25 285.5t64.5 273.5t87.5 246t96 212t87.5 162.5t64.5 107.5l25 38h72q-18 -28 -48.5 -78t-108 -203t-137 -303.5t-108 -356t-48.5 -384.5q0 -129 7 -244.5t14 -166.5l7 -50h-67q-33 163 -33 461z" />
<glyph unicode=")" horiz-adv-x="454" d="M23 -242q18 28 48.5 78t108 203t137 303.5t108 356t48.5 384.5q0 129 -7.5 244.5t-14.5 166.5l-7 50h68q33 -163 33 -461q0 -138 -25 -285.5t-64.5 -273.5t-87.5 -246t-96.5 -212t-88 -162.5t-64.5 -107.5l-25 -38h-71z" />
<glyph unicode="*" horiz-adv-x="833" d="M373 938l225 164l-223 164l41 55l225 -166l86 264l66 -20l-86 -266h276v-70h-281l86 -264l-65 -21l-86 266l-225 -161z" />
<glyph unicode="+" d="M240 479v70h413v434h74v-434h418v-70h-418v-438h-74v438h-413z" />
<glyph unicode="," horiz-adv-x="387" d="M31 -264l176 434h82l-201 -434h-57z" />
<glyph unicode="-" horiz-adv-x="784" d="M262 516l17 72h499l-18 -72h-498z" />
<glyph unicode="." horiz-adv-x="366" d="M147 0l39 170h74l-39 -170h-74z" />
<glyph unicode="/" horiz-adv-x="790" d="M92 25l871 1409l67 -29l-870 -1407z" />
<glyph unicode="0" d="M217 348q0 109 17.5 224t50.5 230.5t87 217.5t122 181t160.5 125t197.5 46q189 0 289 -96.5t100 -282.5q0 -117 -19 -236.5t-54.5 -232.5t-91 -211t-125 -172t-160.5 -116.5t-193 -42.5q-180 0 -280.5 93t-100.5 273zM291 354q0 -154 81.5 -229.5t225.5 -75.5 q91 0 172.5 41t143 111.5t110.5 163.5t79.5 198.5t47 215t16.5 214.5q0 152 -81 232t-234 80q-81 0 -153.5 -33.5t-128 -91t-102.5 -134.5t-79 -163.5t-54.5 -179.5t-33 -181t-10.5 -168z" />
<glyph unicode="1" d="M524 1092l469 262h66l-309 -1354h-74l287 1257l-422 -231z" />
<glyph unicode="2" d="M143 0l15 61l602 498q93 76 154 132.5t120 125t88 135t29 133.5q0 222 -295 222q-75 0 -175.5 -13t-164.5 -26l-63 -13l4 64q24 6 64 15t145.5 24.5t189.5 15.5q369 0 369 -289q0 -76 -29.5 -149t-89 -144t-120 -127.5t-150.5 -129.5l-574 -467h760l-16 -68h-863z" />
<glyph unicode="3" d="M164 49l18 66q24 -7 64 -18t141 -29.5t176 -18.5q124 0 227.5 47t165.5 136t62 202q0 115 -68.5 181.5t-210.5 66.5h-268l18 68h267q79 0 164.5 41t149 121.5t63.5 177.5q0 114 -65 164.5t-206 50.5q-87 0 -187.5 -11.5t-158.5 -22.5l-57 -11l6 65q204 47 403 47 q338 0 338 -268q0 -142 -85.5 -240.5t-213.5 -140.5q185 -69 185 -283q0 -142 -73.5 -247.5t-193 -158t-266.5 -52.5q-87 0 -185.5 16.5t-153.5 33.5z" />
<glyph unicode="4" d="M168 270l14 60l697 1022h84l-699 -1014h600l113 491h74l-113 -491h188l-16 -68h-188l-62 -270h-74l62 270h-680z" />
<glyph unicode="5" d="M156 43l20 66q223 -56 389 -56q134 0 247.5 67.5t180 185t66.5 257.5q0 101 -73.5 156t-211.5 55q-76 0 -173 -28t-157 -56l-59 -28l-68 8l209 682h750l-16 -68h-685l-169 -545q24 12 63.5 29t140.5 45.5t176 28.5q166 0 256.5 -69t90.5 -210q0 -118 -45 -224.5 t-122 -184t-183.5 -123t-225.5 -45.5q-82 0 -182 14t-159 28z" />
<glyph unicode="6" d="M248 436q0 94 18 195.5t53 207.5t94.5 201t135.5 169.5t182.5 118.5t229.5 44q73 0 154 -10t126 -20l45 -9l-18 -63q-168 35 -326 35q-102 0 -190 -38t-148.5 -96t-110.5 -137.5t-79 -151.5t-49 -149q8 4 23.5 10.5t63 23.5t95.5 30t116 23.5t130 10.5q175 0 264.5 -81.5 t89.5 -225.5q0 -245 -144.5 -393.5t-394.5 -148.5q-176 0 -268 118t-92 336zM324 436q0 -187 70.5 -287t211.5 -100q114 0 204.5 36.5t147 99t86 142t29.5 169.5q0 136 -69 202t-232 66q-87 0 -193.5 -25.5t-169.5 -50.5l-63 -26q-22 -68 -22 -226z" />
<glyph unicode="7" d="M340 10l831 1202l17 70h-719l16 70h797l-37 -154l-839 -1216z" />
<glyph unicode="8" d="M135 242q0 79 21 145.5t55 115.5t85 90t104.5 68.5t119.5 51.5q-106 41 -147 96t-41 152q0 58 17 113.5t59 110.5t105.5 95.5t163 66t224.5 25.5q212 0 310 -69.5t98 -202.5q0 -57 -24 -116t-69 -113t-118.5 -97t-163.5 -61q57 -17 98 -39.5t66 -46t40 -53.5t20 -58.5 t5 -64.5q0 -25 -3.5 -53.5t-18 -76.5t-38.5 -91t-70.5 -90t-108.5 -80.5t-158 -55.5t-213 -22q-87 0 -158.5 13t-132 41.5t-94 80.5t-33.5 125zM215 250q0 -94 92 -147.5t264 -53.5q81 0 152 14.5t122.5 38.5t93.5 56.5t69 67.5t45.5 72t26 70t7.5 62q0 59 -16.5 100 t-54.5 68.5t-79 43.5t-110 34h-223q-73 -20 -136 -50.5t-123 -80t-95 -125.5t-35 -170zM406 958q0 -74 48.5 -128t166.5 -89h223q42 8 88.5 23.5t100.5 45t96.5 66.5t71 92.5t28.5 118.5q0 115 -81 166.5t-265 51.5q-107 0 -191.5 -20.5t-137 -54t-87 -79.5t-48 -93.5 t-13.5 -99.5z" />
<glyph unicode="9" d="M160 25l28 65q168 -39 326 -39q422 0 567 559q-30 -10 -79.5 -24t-164.5 -38t-186 -24q-198 0 -283.5 103.5t-35.5 308.5q34 133 118 233t197.5 151.5t239.5 51.5q230 0 300 -184t-18 -524q-47 -189 -115.5 -323.5t-156 -212t-185 -112t-216.5 -34.5q-68 0 -152 10.5 t-134 21.5zM410 936q-42 -172 27 -257t237 -85q65 0 172 22t182 44l74 22q43 193 38 331t-73.5 214t-198.5 76q-164 0 -290 -99t-168 -268z" />
<glyph unicode=":" horiz-adv-x="366" d="M147 0l39 170h74l-39 -170h-74zM311 721l39 170h74l-39 -170h-74z" />
<glyph unicode=";" horiz-adv-x="446" d="M66 -264h57l201 434h-82zM356 721l39 170h74l-39 -170h-74z" />
<glyph unicode="&#x3c;" d="M207 477v74l868 442v-80l-801 -399l801 -399v-84z" />
<glyph unicode="=" d="M258 305v70h868v-70h-868zM258 651v70h868v-70h-868z" />
<glyph unicode="&#x3e;" d="M303 31v84l801 399l-801 399v80l868 -442v-74z" />
<glyph unicode="?" horiz-adv-x="825" d="M317 2l35 168h76l-37 -168h-74zM387 385q4 45 12 88q15 76 67.5 146.5t149.5 148.5q101 82 153 129.5t93 101t54.5 103t13.5 117.5q0 163 -246 163q-49 0 -123.5 -11t-124.5 -23l-49 -11v66q178 49 309 49q68 0 123 -13t98 -39.5t67 -72.5t24 -108q0 -54 -6 -94.5 t-25 -81.5t-40.5 -72t-68.5 -76.5t-91 -83t-124 -102.5q-158 -129 -180 -244l-16 -80h-70z" />
<glyph unicode="@" horiz-adv-x="1875" d="M191 247.5q5 76.5 16 144.5t29 143q61 260 151.5 437t223 288t302.5 159.5t400 48.5q133 0 238.5 -23.5t178.5 -65t122 -102.5t74 -133t31.5 -160t-3 -179t-33.5 -195q-28 -122 -58 -217t-59 -161t-63.5 -112.5t-65.5 -73.5t-71 -42t-74 -19.5t-80 -4.5q-85 0 -131 30 t-49 101q-258 -129 -393 -129q-46 0 -82.5 9.5t-61.5 24t-42.5 40.5t-27.5 49t-14 58.5t-4.5 60.5t3 64t7 60.5t9.5 57.5q110 636 522 636q51 0 156.5 -13.5t175.5 -27.5q-44 -170 -111.5 -470t-67.5 -384q0 -64 28 -81t97 -17q51 0 88 10t79 44.5t76.5 96.5t71.5 169.5 t72 259.5q22 96 31 177t4.5 161t-26.5 143.5t-66.5 118t-111 91t-164 57t-222.5 20.5q-205 0 -357.5 -44.5t-273.5 -146t-206 -266t-144 -405.5q-37 -151 -47 -273.5t16 -236t94 -190t196 -122t313 -45.5q34 0 103.5 5t121.5 11l53 5l-10 -74q-193 -18 -285 -18 q-121 0 -220 18.5t-170.5 51t-125 80.5t-86.5 102.5t-52 122t-24.5 133.5t-0.5 142.5zM735 403q-72 -348 156 -348q140 0 379 125q5 53 60 310t104 456q-126 31 -258 31q-179 0 -280 -141.5t-161 -432.5z" />
<glyph unicode="A" horiz-adv-x="1138" d="M66 0l759 1434h183l77 -1434h-73l-25 442h-612l-234 -442h-75zM412 508h571l-43 858h-74z" />
<glyph unicode="B" horiz-adv-x="1187" d="M176 0l330 1434h440q167 0 245.5 -59.5t78.5 -203.5q0 -161 -84 -274.5t-205 -153.5q197 -52 197 -245q0 -235 -140.5 -366.5t-396.5 -131.5h-465zM266 68h391q211 0 327 114.5t116 313.5q0 61 -23.5 103.5t-68 64t-95 30t-118.5 8.5h-383zM426 770h385q171 0 277 116 t106 283q0 113 -60.5 155t-201.5 42h-369z" />
<glyph unicode="C" horiz-adv-x="1044" d="M248 389q0 111 19.5 230t57 239t98.5 226.5t137.5 189t180 130.5t220.5 48q70 0 153.5 -10t131.5 -20l48 -9l-16 -65q-179 34 -326 34q-101 0 -191 -45t-157 -122t-121 -177t-88 -211.5t-51.5 -223t-17.5 -214.5q0 -173 74.5 -255.5t236.5 -82.5q73 0 156.5 9.5 t130.5 19.5l47 10l-2 -67q-178 -41 -342 -41q-379 0 -379 407z" />
<glyph unicode="D" horiz-adv-x="1245" d="M176 0l332 1434h467q187 0 267.5 -102t80.5 -318q0 -106 -18 -219t-52 -227.5t-90 -216t-127 -180.5t-167.5 -125t-206.5 -46h-486zM268 68h412q89 0 169 43.5t140.5 117t110 169t81 201.5t48 212t16.5 203q0 184 -64.5 268t-219.5 84h-396z" />
<glyph unicode="E" horiz-adv-x="1044" d="M176 0l332 1434h772l-16 -68h-699l-137 -596h584l-17 -68h-583l-146 -634h699l-17 -68h-772z" />
<glyph unicode="F" horiz-adv-x="993" d="M176 0l332 1434h752l-17 -68h-678l-149 -651h588l-17 -68h-588l-149 -647h-74z" />
<glyph unicode="G" horiz-adv-x="1177" d="M248 358q0 125 19 251t56 249.5t97 230t137 188t182 128.5t226 47q87 0 186 -13t155 -25l56 -13l-21 -62q-209 45 -393 45q-89 0 -169.5 -34.5t-142 -94t-113.5 -140t-88 -173t-61 -193t-36.5 -199t-11.5 -192.5q0 -159 82.5 -234t246.5 -75q65 0 147.5 11.5t132.5 22.5 l50 11l127 547h-270l16 68h344l-155 -670q-24 -6 -64 -15.5t-144.5 -25.5t-187.5 -16q-403 0 -403 376z" />
<glyph unicode="H" horiz-adv-x="1282" d="M176 0l332 1434h74l-158 -682h782l158 682h74l-332 -1434h-74l158 684h-782l-158 -684h-74z" />
<glyph unicode="I" horiz-adv-x="425" d="M176 0l332 1434h74l-332 -1434h-74z" />
<glyph unicode="J" horiz-adv-x="518" d="M14 -145l13 67q55 0 91 4t67 19t49.5 34t36.5 58.5t30 83.5t29 117l276 1196h74l-281 -1215q-14 -62 -24.5 -101t-24.5 -80.5t-28 -64.5t-35 -46.5t-44.5 -35t-58.5 -21t-75 -12.5t-95 -3z" />
<glyph unicode="K" horiz-adv-x="1040" d="M176 0l332 1434h74l-162 -693h225l594 693h88l-622 -725l290 -709h-77l-275 674h-237l-156 -674h-74z" />
<glyph unicode="L" horiz-adv-x="903" d="M176 0l332 1434h74l-316 -1366h635l-16 -68h-709z" />
<glyph unicode="M" horiz-adv-x="1585" d="M176 0l332 1434h149l148 -1323l786 1323h150l-332 -1434h-74l318 1366h-27l-782 -1323h-94l-156 1323h-29l-315 -1366h-74z" />
<glyph unicode="N" horiz-adv-x="1263" d="M176 0l332 1434h166l307 -1366h49l316 1366h73l-332 -1434h-161l-310 1366h-51l-315 -1366h-74z" />
<glyph unicode="O" horiz-adv-x="1302" d="M250 403q0 259 87.5 504.5t242.5 390.5q164 154 368 154q218 0 325 -102.5t107 -319.5q0 -177 -37 -347.5t-115.5 -323t-189.5 -246.5q-157 -131 -356 -131q-236 0 -334 95t-98 326zM326 401q0 -192 81 -272t275 -80q153 0 279 92q113 85 193 240.5t114.5 320.5t34.5 330 q0 181 -86 266.5t-269 85.5q-138 0 -260 -88q-115 -85 -200 -243t-123.5 -326t-38.5 -326z" />
<glyph unicode="P" horiz-adv-x="1120" d="M176 0l332 1434h477q154 0 225.5 -74.5t71.5 -222.5q0 -124 -31.5 -233t-93 -194.5t-160.5 -135.5t-225 -50h-401l-121 -524h-74zM387 594h401q85 0 155 30t117.5 81.5t80.5 121.5t48 147.5t15 162.5q0 115 -55 171t-180 56h-404z" />
<glyph unicode="Q" horiz-adv-x="1302" d="M250 403q0 259 87.5 504.5t242.5 390.5q164 154 368 154q218 0 325 -102.5t107 -319.5q0 -177 -37 -347.5t-115.5 -323t-189.5 -246.5q-56 -46 -110 -74l98 -301l-70 -23l-96 295q-86 -28 -178 -28q-236 0 -334 95t-98 326zM326 401q0 -192 81 -272t275 -80q153 0 279 92 q113 85 193 240.5t114.5 320.5t34.5 330q0 181 -86 266.5t-269 85.5q-138 0 -260 -88q-115 -85 -200 -243t-123.5 -326t-38.5 -326z" />
<glyph unicode="R" horiz-adv-x="1163" d="M176 0l332 1434h455q164 0 244.5 -71t80.5 -235q0 -103 -26.5 -190t-67.5 -144t-95.5 -100t-105.5 -65t-102 -31l182 -598h-74l-180 590h-432l-137 -590h-74zM401 657h383q192 0 309 129t117 342q0 132 -62.5 185t-201.5 53h-381z" />
<glyph unicode="S" horiz-adv-x="1028" d="M123 16l14 68q242 -35 400 -35q190 0 297.5 116t107.5 310q0 103 -51.5 147.5t-196.5 84.5q-60 17 -100 30t-82.5 32t-69 40t-48.5 49.5t-32 65.5t-10 84q0 218 138.5 331t373.5 113q73 0 160.5 -11t138.5 -21l51 -11l-12 -61q-209 36 -352 36q-198 0 -310 -94.5 t-112 -281.5q0 -42 13 -73.5t32.5 -52.5t61.5 -41t80.5 -33t109.5 -34q80 -24 128.5 -45t90 -54.5t59 -81.5t17.5 -116q0 -227 -134.5 -361t-361.5 -134q-80 0 -180 8.5t-160 17.5z" />
<glyph unicode="T" horiz-adv-x="976" d="M336 1366l16 68h930l-16 -68h-428l-316 -1366h-73l315 1366h-428z" />
<glyph unicode="U" horiz-adv-x="1214" d="M244 264q0 78 20 160l234 1010h73l-233 -1010q-21 -89 -21 -158q0 -109 85 -162t239 -53q185 0 285 88t141 267l238 1028h73l-237 -1031q-49 -212 -166.5 -316.5t-337.5 -104.5q-185 0 -289 70t-104 212z" />
<glyph unicode="V" horiz-adv-x="1101" d="M387 1434h74l41 -1366h110l674 1366h74l-705 -1434h-221z" />
<glyph unicode="W" horiz-adv-x="1648" d="M350 0l49 1434h74l-51 -1366h72l610 1345h78l-19 -1345h68l590 1366h73l-618 -1434h-182l20 1272l-577 -1272h-187z" />
<glyph unicode="X" horiz-adv-x="1042" d="M41 0l604 717l-254 717h74l237 -658l541 658h90l-602 -729l256 -705h-74l-237 647l-545 -647h-90z" />
<glyph unicode="Y" horiz-adv-x="993" d="M365 1434h73l211 -740l553 740h82l-616 -818l-144 -616h-73l145 631z" />
<glyph unicode="Z" horiz-adv-x="1019" d="M80 0l35 152l1048 1155l15 59h-777l17 68h850l-37 -160l-1049 -1155l-12 -51h776l-16 -68h-850z" />
<glyph unicode="[" horiz-adv-x="606" d="M104 -250l418 1780h355l-15 -68h-284l-388 -1644h285l-18 -68h-353z" />
<glyph unicode="\" horiz-adv-x="792" d="M389 1407l78 29l266 -1407l-78 -29z" />
<glyph unicode="]" horiz-adv-x="606" d="M27 -248l14 68h285l387 1644h-285l18 68h353l-418 -1780h-354z" />
<glyph unicode="^" d="M322 662l368 690h74l387 -690h-82l-342 616l-324 -616h-81z" />
<glyph unicode="_" horiz-adv-x="1316" d="M145 -240l17 78h919l-20 -78h-916z" />
<glyph unicode="`" horiz-adv-x="1060" d="M623 1425l36 52l328 -195l-37 -45z" />
<glyph unicode="a" horiz-adv-x="987" d="M195 242q0 133 35 271.5t97.5 257.5t162 195t217.5 76q52 0 141.5 -10t153.5 -20l63 -11l-156 -667q-14 -58 -28.5 -141t-22.5 -137l-8 -54l-68 -4q35 213 45 260q-8 -11 -22.5 -29.5t-58.5 -66.5t-88 -84t-104.5 -66t-113.5 -30q-245 0 -245 260zM270 242 q0 -96 43.5 -144.5t141.5 -48.5q45 0 102 33.5t106 81t92 95t68 81.5l25 33l133 573q-149 31 -274 31q-83 0 -155.5 -47.5t-123 -124.5t-87 -174t-54 -197t-17.5 -192z" />
<glyph unicode="b" horiz-adv-x="985" d="M156 23l340 1472h71l-149 -643q7 8 20 20.5t52.5 45.5t79.5 58t96.5 45.5t107.5 20.5q76 0 127 -20.5t77.5 -62.5t37 -92.5t10.5 -123.5q0 -45 -8 -104.5t-26.5 -133t-45.5 -145.5t-69 -141t-93 -121t-121.5 -84t-150.5 -32q-59 0 -148 10t-148 20zM240 78 q176 -31 270 -31q69 0 130 31t104.5 81t79.5 115t59 132t38.5 133.5t22 117.5t6.5 86q0 58 -6.5 95t-26 71t-60 50t-103.5 16q-44 0 -97 -23t-97.5 -55.5t-82.5 -65.5t-60 -56l-22 -23z" />
<glyph unicode="c" horiz-adv-x="825" d="M203 264q0 99 14.5 193t43 181.5t74 160.5t103.5 127.5t136.5 85t168.5 30.5q44 0 100 -5.5t90 -10.5l34 -6l-19 -64q-117 21 -205 21q-116 0 -207.5 -60.5t-146 -162t-82.5 -225t-28 -259.5q0 -111 58 -167t189 -56q34 0 93 9.5t101 19.5l42 10v-66q-137 -38 -252 -38 q-159 0 -233 71.5t-74 210.5z" />
<glyph unicode="d" horiz-adv-x="985" d="M195 240q0 107 21.5 219t65.5 216.5t103.5 186t142 131t174.5 49.5q64 0 137 -8t115 -16l41 -8l113 485h72l-346 -1495h-70l53 233q-7 -10 -21 -27t-56.5 -60.5t-86 -76.5t-106 -60t-119.5 -27q-233 0 -233 258zM270 240q0 -193 179 -193q50 0 109 31.5t107.5 76t90 89.5 t64.5 76l24 32l137 594q-144 31 -279 31q-81 0 -152.5 -47.5t-121.5 -125t-86.5 -175t-54 -197.5t-17.5 -192z" />
<glyph unicode="e" horiz-adv-x="925" d="M199 268q0 105 20.5 211.5t64.5 208.5t106.5 180.5t154.5 126t200 47.5q125 0 196 -52t71 -159q0 -175 -141.5 -247t-436.5 -72h-129q-31 -127 -31 -229q0 -111 61 -171.5t167 -60.5q70 0 154 15t133 30l49 15v-68q-20 -7 -54 -17t-127.5 -27t-171.5 -17 q-131 0 -208.5 74t-77.5 212zM319 578h134q125 0 210.5 11t150 39t94.5 77.5t30 123.5q0 77 -49 112.5t-146 35.5q-299 0 -424 -399z" />
<glyph unicode="f" horiz-adv-x="608" d="M76 -471l330 1429h-132l17 66h129l29 121q49 203 124.5 285.5t206.5 82.5q30 0 69.5 -4t64.5 -8l24 -4l-16 -63q-86 14 -156 14q-98 0 -151 -68.5t-95 -238.5l-28 -117h315l-19 -66h-309l-223 -958l-121 -471h-59z" />
<glyph unicode="g" horiz-adv-x="937" d="M49 -229q0 58 26 111t72.5 96t89.5 72t97 59q-27 23 -27 75q0 40 26.5 90t52.5 80l26 31q-144 58 -144 238q0 68 26.5 140t74.5 135t128.5 103.5t176.5 40.5q48 0 88.5 -7.5t57.5 -14.5l16 -8l305 12l-17 -72h-225q51 -65 51 -164q0 -53 -14.5 -108.5t-48.5 -112.5 t-82.5 -101.5t-123.5 -72.5t-165 -28l-53 4q-9 -12 -23 -32t-37.5 -67t-23.5 -77q0 -40 38.5 -57.5t147.5 -29.5q186 -21 254 -72.5t68 -160.5q0 -67 -36.5 -131.5t-102 -116t-166.5 -83t-220 -31.5q-144 0 -228.5 73.5t-84.5 186.5zM125 -215q0 -94 66 -151.5t188 -57.5 q116 0 214.5 38t158 106.5t59.5 152.5q0 79 -53 113.5t-189 48.5q-124 12 -182 35q-107 -53 -184.5 -128.5t-77.5 -156.5zM342 627q0 -93 43.5 -145t146.5 -52q71 0 131.5 24t98.5 61.5t65 83.5t38.5 88.5t11.5 78.5q0 108 -48 159.5t-163 51.5q-76 0 -140 -35t-102.5 -88.5 t-60 -113t-21.5 -113.5z" />
<glyph unicode="h" horiz-adv-x="1001" d="M152 0l346 1495h71l-163 -707q7 10 20.5 27.5t55 61t84 77t103.5 61t117 27.5q110 0 173 -63.5t63 -173.5q0 -103 -41 -279l-123 -526h-70l123 528q39 165 39 271q0 84 -44.5 130t-131.5 46q-50 0 -109.5 -31t-108 -76t-90 -89.5t-64.5 -75.5l-23 -31l-156 -672h-71z" />
<glyph unicode="i" horiz-adv-x="372" d="M150 0l237 1024h72l-238 -1024h-71zM451 1307l28 123h74l-29 -123h-73z" />
<glyph unicode="j" horiz-adv-x="372" d="M-203 -428q74 37 115 59t81 52t58 52.5t38.5 65t32 84.5t28.5 115l237 1024h72l-238 -1024q-15 -64 -26 -106t-26.5 -84t-28.5 -67t-37 -53.5t-45.5 -46t-60.5 -41.5t-76.5 -43t-98.5 -48zM457 1315l26 119h72l-27 -119h-71z" />
<glyph unicode="k" horiz-adv-x="882" d="M152 0l346 1495h71l-207 -895h173l444 424h94l-483 -463l231 -561h-80l-223 535h-172l-123 -535h-71z" />
<glyph unicode="l" horiz-adv-x="399" d="M164 0l346 1495h72l-346 -1495h-72z" />
<glyph unicode="m" horiz-adv-x="1585" d="M150 0l237 1024h72l-53 -231q7 10 20 27t54.5 60t84 75.5t103 59.5t116.5 27q46 0 83 -11.5t60 -29.5t40.5 -40t26 -44t13.5 -40t6 -29l1 -12q7 8 20 22t53 49.5t80 62.5t96.5 49.5t106.5 22.5q110 0 173 -63.5t63 -173.5q0 -92 -41 -279l-123 -526h-72l123 528 q39 165 39 271q0 83 -46.5 129.5t-129.5 46.5q-45 0 -96.5 -23.5t-93 -56.5t-76.5 -66.5t-54 -56.5l-20 -24q-2 -79 -37 -222l-123 -526h-72l123 528q39 165 39 271q0 83 -45.5 129.5t-128.5 46.5q-51 0 -110 -31t-107.5 -74.5t-89 -87.5t-63.5 -75l-23 -31l-158 -676h-71z " />
<glyph unicode="n" horiz-adv-x="999" d="M150 0l237 1024h72l-53 -231q7 10 20 27t54.5 60t84 75.5t103 59.5t116.5 27q110 0 173 -63.5t63 -173.5q0 -95 -39 -273l-125 -532h-70l123 528q39 165 39 271q0 84 -45 130t-131 46q-51 0 -110 -31t-107.5 -74.5t-89 -87.5t-63.5 -75l-23 -31l-158 -676h-71z" />
<glyph unicode="o" horiz-adv-x="1009" d="M203 285q0 209 67 383t184.5 274t260.5 100q160 0 241.5 -81.5t81.5 -239.5q0 -206 -64.5 -374t-184.5 -266.5t-273 -98.5q-158 0 -235.5 74t-77.5 229zM276 285q0 -238 240 -238q132 0 235.5 91.5t158.5 244.5t55 338q0 117 -63 186.5t-187 69.5q-126 0 -228 -96 t-156.5 -254t-54.5 -342z" />
<glyph unicode="p" horiz-adv-x="983" d="M41 -471l346 1495h70l-54 -233q7 10 21 27t56 60.5t84.5 76.5t102 60t113.5 27q126 0 186 -67t60 -203q0 -100 -21 -208t-64.5 -212t-102.5 -186.5t-142.5 -133t-177.5 -50.5q-63 0 -136 8.5t-115 17.5l-42 8l-112 -487h-72zM240 80q143 -33 278 -33q82 0 154 49 t121.5 127t86 174.5t53.5 193t17 181.5q0 105 -44 154t-140 49q-34 0 -74 -16.5t-76.5 -43.5t-73 -59t-65.5 -64.5t-52 -59.5t-35 -44l-13 -16z" />
<glyph unicode="q" horiz-adv-x="980" d="M193 246q0 83 15 173.5t43.5 179.5t73 169t99 141t126 97t150.5 36q63 0 153.5 -10t150.5 -20l59 -11l-336 -1452h-70l156 682q-7 -10 -20.5 -27t-55 -60t-84 -75.5t-102.5 -59.5t-115 -27q-122 0 -182.5 68.5t-60.5 195.5zM268 250q0 -102 44.5 -151.5t142.5 -49.5 q47 0 104 31t105 75t89.5 88.5t64.5 75.5l24 31l137 596q-140 31 -279 31q-80 0 -150.5 -47t-121 -124t-87.5 -172.5t-55 -194.5t-18 -189z" />
<glyph unicode="r" horiz-adv-x="622" d="M150 0l239 1024h70l-35 -156q23 14 62.5 37t146 70.5t194.5 68.5l-16 -71q-68 -16 -168.5 -60t-167.5 -80l-67 -36l-185 -797h-73z" />
<glyph unicode="s" horiz-adv-x="874" d="M111 14l14 66q184 -33 301 -33q71 0 132.5 17t111 50.5t78 89t28.5 126.5q0 78 -47.5 107t-193.5 61q-72 16 -114 29.5t-79 36t-52.5 55.5t-15.5 81q0 144 108.5 243t281.5 99q57 0 136.5 -7t129.5 -14l51 -7l-18 -64q-183 27 -314 27q-133 0 -217 -78t-84 -186 q0 -62 42.5 -91t174.5 -59q64 -14 102 -25t77.5 -28t59.5 -38t33 -53t13 -75q0 -117 -60 -200.5t-156.5 -122.5t-217.5 -39q-59 0 -135.5 8t-122.5 16z" />
<glyph unicode="t" horiz-adv-x="636" d="M250 158q0 71 35 215l137 585h-150l17 66h151l80 332h72l-82 -332h334l-17 -66h-333l-138 -585q-30 -131 -30 -205q0 -56 32 -88.5t99 -32.5q24 0 67 3.5t74 7.5l31 3l-4 -63q-105 -16 -179 -16q-93 0 -144.5 43.5t-51.5 132.5z" />
<glyph unicode="u" horiz-adv-x="999" d="M215 219q0 95 39 273l125 532h70l-123 -528q-39 -165 -39 -271q0 -83 46.5 -129.5t129.5 -46.5q51 0 110 31t107.5 74.5t89 87.5t63.5 75l23 31l158 676h71l-237 -1024h-72l53 231q-7 -10 -20 -27t-54.5 -60t-84 -75.5t-103 -59.5t-116.5 -27q-109 0 -172.5 63.5 t-63.5 173.5z" />
<glyph unicode="v" horiz-adv-x="917" d="M301 1024h74l47 -958h82l508 958h78l-545 -1024h-193z" />
<glyph unicode="w" horiz-adv-x="1454" d="M307 1024h72l12 -958h33l483 938h92l41 -938h35l465 958h76l-496 -1024h-151l-35 915l-465 -915h-147z" />
<glyph unicode="x" horiz-adv-x="841" d="M55 0l437 512l-195 512h78l176 -465l389 465h88l-442 -518l192 -506h-80l-170 457l-385 -457h-88z" />
<glyph unicode="y" horiz-adv-x="917" d="M219 -467l252 467h-119l-51 1024h74l47 -958h82l508 958h78l-793 -1491h-78z" />
<glyph unicode="z" horiz-adv-x="860" d="M84 0l6 66l819 892h-606l16 66h695l-10 -66l-820 -892h609l-15 -66h-694z" />
<glyph unicode="{" horiz-adv-x="673" d="M197 598l16 72q136 37 188 94t76 180q5 25 16 88.5t21 109t21 79.5q52 158 145.5 232t265.5 81l-12 -74q-110 -5 -181 -40.5t-109 -97t-58 -159.5q-6 -32 -21 -116t-22 -119q-29 -132 -83 -193.5t-167 -97.5q131 -47 131 -178q0 -36 -51 -216t-51 -251q0 -87 54 -128.5 t169 -41.5l-21 -74q-143 6 -208.5 60.5t-65.5 162.5q0 76 51 254.5t51 210.5q0 70 -37 105t-118 57z" />
<glyph unicode="|" horiz-adv-x="606" d="M385 -471v1966h72v-1966h-72z" />
<glyph unicode="}" horiz-adv-x="673" d="M23 -258l12 74q110 5 181 40.5t109 97t58 159.5q6 32 21 116t22 119q29 132 83 193.5t167 97.5q-131 47 -131 178q0 36 51 216t51 251q0 87 -54 128.5t-169 41.5l20 74q143 -6 209 -60.5t66 -162.5q0 -76 -51.5 -254.5t-51.5 -210.5q0 -70 37 -105t119 -57l-16 -72 q-136 -37 -188 -94t-76 -180q-5 -25 -16 -88.5t-21 -109t-21 -79.5q-52 -158 -145.5 -232t-265.5 -81z" />
<glyph unicode="~" d="M268 543q14 12 38 30.5t85.5 49t106.5 30.5q50 0 131.5 -37.5t158 -74.5t113.5 -37q33 0 85 26.5t88 53.5l36 26l23 -63q-5 -5 -14.5 -12.5t-37 -27t-54 -34.5t-61 -27t-63.5 -12q-49 0 -131 37.5t-158.5 75t-113.5 37.5q-33 0 -85 -27t-88 -53l-36 -27z" />
<glyph unicode="&#xa1;" horiz-adv-x="387" d="M66 -410l241 1002h58l-232 -1002h-67zM346 854l39 170h74l-39 -170h-74z" />
<glyph unicode="&#xa2;" d="M358 506q55 211 167.5 321t271.5 113l63 268h68l-64 -266q39 -2 94 -7t90 -9l35 -4l-20 -72q-182 20 -256 20q-140 0 -235 -97.5t-136 -266.5q-11 -45 -17.5 -79t-8.5 -72t3.5 -66t21 -54t41.5 -42.5t67 -26.5t96 -10q41 0 109.5 4t116.5 8l48 4l-18 -70 q-16 -2 -42.5 -4.5t-88 -6.5t-98.5 -3l-62 -260h-69l61 256q-347 0 -238 422z" />
<glyph unicode="&#xa3;" d="M170 0l16 68h197l158 696h-148l17 67h147l29 127q15 63 26 105t28.5 92t36 81.5t46 64t60.5 50.5t77 29t98 11q50 0 116 -5.5t106 -11.5l41 -6l-15 -61q-151 16 -264 16q-70 0 -116.5 -22.5t-78.5 -84.5t-46 -106.5t-40 -152.5q-1 -5 -2 -7l-28 -119h448l-16 -67h-449 l-155 -696h346l166 32v-63l-166 -37h-635z" />
<glyph unicode="&#xa4;" d="M274 154l146 143q-78 95 -78 219t78 219l-146 144l54 53l143 -146q95 78 219 78t219 -78l144 146l53 -53l-145 -144q78 -95 78 -219t-78 -219l145 -143l-53 -54l-144 146q-95 -78 -219 -78t-219 78l-143 -146zM418 517q0 -115 78 -195q80 -78 195 -78t194 78 q78 80 78 195t-78 194q-79 78 -194 78t-195 -78q-78 -79 -78 -194z" />
<glyph unicode="&#xa5;" d="M221 375l17 67h393l47 201l-10 37h-375l16 68h332l-242 606h78l252 -637l545 637h94l-524 -606h321l-14 -68h-365l-34 -41l-45 -197h389l-17 -67h-389l-88 -375h-72l86 375h-395z" />
<glyph unicode="&#xa6;" horiz-adv-x="626" d="M395 299h72v-770h-72v770zM395 725v770h72v-770h-72z" />
<glyph unicode="&#xa7;" horiz-adv-x="940" d="M92 -223l23 73q209 -28 313 -28q77 0 141.5 31t103.5 79t60 101t21 102q0 68 -45 98t-185 50q-155 21 -217.5 75.5t-62.5 145.5q0 47 17.5 97.5t42 88.5t49 69.5t41.5 48.5l18 17q-23 33 -32 61t-9 85q0 74 27.5 141t79 120.5t134 85.5t183.5 32q53 0 126.5 -7t120.5 -13 l48 -7l-21 -74q-199 27 -291 27q-158 0 -240.5 -82t-82.5 -219q0 -36 8.5 -60.5t22.5 -40.5t45 -28t62 -19t87 -16q145 -24 206.5 -76t61.5 -131q0 -43 -15.5 -93.5t-37 -92.5t-43.5 -77.5t-38 -56.5l-15 -20q23 -27 29 -52t6 -69q0 -35 -12 -80.5t-43 -101.5t-76.5 -102 t-121.5 -77.5t-169 -31.5q-52 0 -132 7t-134 13zM319 530q0 -75 50 -114.5t186 -59.5t195 -55q5 7 13.5 19t30.5 47.5t39 69t30.5 75.5t13.5 74q0 60 -51.5 95.5t-174.5 55.5q-65 11 -121 26.5t-69 27.5q-6 -6 -15.5 -16t-34 -40.5t-43 -60.5t-34 -70t-15.5 -74z" />
<glyph unicode="&#xa8;" horiz-adv-x="1619" d="M532 1296l31 134h60l-31 -134h-60zM891 1296l27 134h59l-31 -134h-55z" />
<glyph unicode="&#xa9;" horiz-adv-x="1323" d="M344 889q0 149 67 274t187.5 198t267.5 73q148 0 268.5 -73t188.5 -198t68 -274t-68 -273.5t-188.5 -197t-268.5 -72.5t-268 72.5t-187 197t-67 273.5zM410 889q0 -200 130 -338.5t326 -138.5t327.5 138.5t131.5 338.5t-131.5 339.5t-327.5 139.5q-129 0 -234 -64.5 t-163.5 -174t-58.5 -240.5zM643 887q0 75 9.5 128.5t33 98t68.5 66.5t112 22q35 0 73 -3.5t59 -6.5l20 -4l-2 -66q-84 15 -150 15q-42 0 -71 -11.5t-46 -30t-26 -53t-11.5 -68.5t-2.5 -87q0 -128 32.5 -187t124.5 -59q25 0 62.5 4t62.5 8l25 4l2 -65q-89 -17 -152 -17 q-66 0 -110.5 22t-68.5 65t-34 97t-10 128z" />
<glyph unicode="&#xaa;" horiz-adv-x="724" d="M336 954q19 75 63 112.5t127 43.5l209 14l13 47q15 65 -3 91t-73 26q-31 0 -85 -3.5t-92 -6.5l-38 -4l8 59q145 17 221 17q89 0 119.5 -42.5t7.5 -138.5l-65 -280q12 -32 63 -43l-16 -55q-37 1 -58.5 11t-42.5 34q-139 -45 -254 -45q-64 0 -93.5 44.5t-10.5 118.5z M406 950q-23 -96 57 -96q41 0 95 9t88 19l34 9l41 174l-195 -12q-53 -3 -80.5 -27t-39.5 -76z" />
<glyph unicode="&#xab;" horiz-adv-x="864" d="M201 494l16 45l387 262l-24 -84l-295 -207l192 -225l-22 -72zM508 494l16 45l387 262l-24 -84l-295 -207l192 -225l-22 -72z" />
<glyph unicode="&#xac;" d="M266 610v70h864v-422h-73v352h-791z" />
<glyph unicode="&#xad;" horiz-adv-x="784" d="M262 516l17 72h499l-18 -72h-498z" />
<glyph unicode="&#xae;" horiz-adv-x="1323" d="M344 889q0 149 67 274t187.5 198t267.5 73q148 0 268.5 -73t188.5 -198t68 -274t-68 -273.5t-188.5 -197t-268.5 -72.5t-268 72.5t-187 197t-67 273.5zM410 889q0 -200 130 -338.5t326 -138.5t327.5 138.5t131.5 338.5t-131.5 339.5t-327.5 139.5q-129 0 -234 -64.5 t-163.5 -174t-58.5 -240.5zM657 586v604h191q121 0 176 -40.5t55 -141.5q0 -75 -28 -118.5t-93 -60.5l134 -243h-74l-129 237h-166v-237h-66zM723 887h164q69 0 98 26.5t29 94.5q0 67 -38.5 92.5t-125.5 25.5h-127v-239z" />
<glyph unicode="&#xaf;" horiz-adv-x="868" d="M485 1325l13 53h518l-15 -53h-516z" />
<glyph unicode="&#xb0;" d="M563 1174q0 124 77 201t202 77q124 0 201 -77t77 -201t-76.5 -200.5t-201.5 -76.5t-202 76.5t-77 200.5zM633 1174q0 -95 57 -153t152 -58t154 58t59 153t-59 153.5t-154 58.5t-152 -58t-57 -154z" />
<glyph unicode="&#xb1;" d="M215 102v70h905v-70h-905zM215 631v69h414v283h73v-283h418v-69h-418v-295h-73v295h-414z" />
<glyph unicode="&#xb2;" horiz-adv-x="573" d="M301 979l16 70l254 213q48 39 73.5 63.5t52.5 62t36 76.5q13 53 -13 78t-79 25q-31 0 -78.5 -6.5t-79.5 -12.5l-32 -6l12 68q113 26 199 26q188 0 145 -174q-17 -67 -63.5 -122t-133.5 -126l-196 -165h303l-17 -70h-399z" />
<glyph unicode="&#xb3;" horiz-adv-x="573" d="M297 983l22 66q107 -19 209 -19q65 0 105 32t53 87q33 125 -90 125h-133l16 69h133q36 0 80.5 39.5t57.5 90.5q11 48 -10.5 71t-86.5 23q-42 0 -92 -4.5t-79 -9.5l-29 -5l10 66q115 22 207 22q101 0 139 -39t16 -124q-11 -40 -32 -72.5t-46.5 -51t-37.5 -25.5t-23 -11 q23 -7 37.5 -13.5t27.5 -18.5t18 -28.5t4.5 -42t-9.5 -59.5q-48 -190 -254 -190q-44 0 -97.5 5.5t-84.5 11.5z" />
<glyph unicode="&#xb4;" horiz-adv-x="1099" d="M596 1300l416 195l12 -61l-418 -185z" />
<glyph unicode="&#xb5;" d="M109 -471l210 913l13 50l12 51l2 10l111 471h69l-110 -471h2l-33 -141q-20 -102 -20 -187q0 -83 46.5 -129.5t129.5 -46.5q51 0 110 31t107.5 74.5t89 87.5t63.5 75l23 31l158 676h71l-237 -1024h-72l53 231q-7 -10 -20.5 -27t-55 -60t-83.5 -75.5t-103 -59.5t-117 -27 q-78 0 -133.5 32t-81.5 92l-133 -577h-71z" />
<glyph unicode="&#xb6;" horiz-adv-x="1128" d="M305 985q0 104 57 206.5t163.5 172.5t232.5 70h633l-15 -74h-188l-324 -1360h-69l323 1360h-293l-325 -1360h-70l174 715q-76 1 -135 23.5t-94 60.5t-52.5 85t-17.5 101z" />
<glyph unicode="&#xb7;" horiz-adv-x="372" d="M274 553l37 170h78l-37 -170h-78z" />
<glyph unicode="&#xb8;" horiz-adv-x="1619" d="M668 -399l16 63q84 -8 150 -8q46 0 74 20.5t40 69.5q19 84 -71 84h-105l43 180h66l-31 -119h10q86 0 131 -34t27 -111q-18 -82 -66 -118t-129 -36q-38 0 -77 2t-58 4z" />
<glyph unicode="&#xb9;" horiz-adv-x="573" d="M432 1481l236 137h73l-157 -639h-74l139 559l-196 -115z" />
<glyph unicode="&#xba;" horiz-adv-x="694" d="M350 954q0 50 15 115q37 149 104.5 214t187.5 65q174 0 174 -160q0 -58 -16 -133q-30 -136 -100.5 -203.5t-188.5 -67.5q-85 0 -130.5 43t-45.5 127zM422 967q0 -56 29 -82.5t90 -26.5q83 0 129.5 48t74.5 163q13 56 13 105q0 55 -27 77.5t-88 22.5q-84 0 -132 -46 t-75 -159q-14 -57 -14 -102z" />
<glyph unicode="&#xbb;" horiz-adv-x="991" d="M188 213l25 84l295 207l-193 225l23 72l254 -281l-17 -45zM623 213l24 84l295 207l-192 225l22 72l254 -281l-16 -45z" />
<glyph unicode="&#xbc;" horiz-adv-x="1161" d="M229 25l871 1409l67 -29l-870 -1407zM391 1481l236 137h73l-157 -639h-74l139 559l-196 -115zM678 117l16 65l295 457h82l-291 -453h213l45 179h74l-45 -179h76l-17 -69h-75l-29 -117h-74l29 117h-299z" />
<glyph unicode="&#xbd;" horiz-adv-x="1222" d="M229 25l871 1409l67 -29l-870 -1407zM391 1481l236 137h73l-157 -639h-74l139 559l-196 -115zM737 0l17 70l254 213q47 39 73 63.5t52.5 62t35.5 76.5q13 53 -13 78t-79 25q-31 0 -78.5 -6t-79.5 -12l-32 -7l12 68q113 26 199 26q188 0 145 -174q-17 -67 -63 -121.5 t-133 -125.5l-197 -166h303l-16 -70h-400z" />
<glyph unicode="&#xbe;" horiz-adv-x="1216" d="M289 25l870 1409l68 -29l-871 -1407zM311 983l23 66q107 -19 209 -19q65 0 104.5 32t52.5 87q33 125 -90 125h-133l17 69h133q36 0 80 39.5t57 90.5q11 48 -10 71t-86 23q-42 0 -92 -4.5t-80 -9.5l-29 -5l10 66q115 22 207 22q101 0 139.5 -39t16.5 -124 q-11 -40 -31.5 -71.5t-46 -50.5t-37.5 -25.5t-25 -12.5q58 -17 78 -49.5t0 -112.5q-48 -190 -254 -190q-44 0 -97.5 5.5t-84.5 11.5zM737 117l17 65l295 457h81l-290 -453h213l45 179h73l-45 -179h76l-16 -69h-76l-29 -117h-73l28 117h-299z" />
<glyph unicode="&#xbf;" horiz-adv-x="800" d="M43 -193q0 65 11.5 114t31 89.5t68 91t98 94t145.5 121.5q159 130 181 244l16 80h70q-5 -45 -13 -88q-15 -76 -67.5 -146.5t-149.5 -148.5q-81 -66 -126.5 -106.5t-87 -84.5t-60 -81.5t-29 -80.5t-10.5 -98q0 -163 246 -163q49 0 123.5 11t123.5 23l50 11v-66 q-179 -49 -310 -49q-91 0 -158.5 22t-110 75.5t-42.5 135.5zM623 856l36 168h74l-35 -168h-75z" />
<glyph unicode="&#xc0;" horiz-adv-x="1138" d="M66 0l759 1434h183l77 -1434h-73l-25 442h-612l-234 -442h-75zM412 508h571l-43 858h-74zM682 1823l35 55l327 -199l-30 -45z" />
<glyph unicode="&#xc1;" horiz-adv-x="1138" d="M66 0l759 1434h183l77 -1434h-73l-25 442h-612l-234 -442h-75zM412 508h571l-43 858h-74zM825 1686l418 196l19 -59l-420 -189z" />
<glyph unicode="&#xc2;" horiz-adv-x="1138" d="M66 0l759 1434h183l77 -1434h-73l-25 442h-612l-234 -442h-75zM412 508h571l-43 858h-74zM664 1645l319 262h29l198 -262h-69l-150 198l-243 -198h-84z" />
<glyph unicode="&#xc3;" horiz-adv-x="1138" d="M66 0l759 1434h183l77 -1434h-73l-25 442h-612l-234 -442h-75zM412 508h571l-43 858h-74zM641 1755q15 13 39.5 32.5t78 52t81.5 32.5q36 0 92.5 -32t108 -64.5t77.5 -32.5q16 0 56.5 26t73.5 52l32 26l8 -51q-14 -13 -37 -32.5t-73.5 -52t-75.5 -32.5q-35 0 -91.5 32.5 t-109 65.5t-76.5 33q-18 0 -63.5 -28t-81.5 -56l-37 -28z" />
<glyph unicode="&#xc4;" horiz-adv-x="1138" d="M66 0l759 1434h183l77 -1434h-73l-25 442h-612l-234 -442h-75zM412 508h571l-43 858h-74zM743 1702l29 135h62l-35 -135h-56zM1110 1702l33 135h59l-33 -135h-59z" />
<glyph unicode="&#xc5;" horiz-adv-x="1138" d="M66 0l737 1391q-70 45 -39 155q25 90 81.5 136.5t139.5 46.5q82 0 118.5 -45.5t14.5 -137.5q-28 -108 -108 -153l75 -1393h-73l-25 442h-612l-234 -442h-75zM412 508h571l-43 858h-43h-8h-23zM817 1546q-9 -40 1.5 -70t41.5 -42h109q74 24 96 112q12 57 -11.5 90 t-82.5 33t-99 -31.5t-55 -91.5z" />
<glyph unicode="&#xc6;" horiz-adv-x="1632" d="M66 0l757 1434h1047l-12 -68l-703 4l-145 -600h587l-12 -68h-588l-149 -634h698l-12 -68h-772l100 440h-491l-234 -440h-71zM403 506h474l208 860h-229z" />
<glyph unicode="&#xc7;" horiz-adv-x="1044" d="M248 389q0 111 19.5 230t57 239t98.5 226.5t137.5 189t180 130.5t220.5 48q70 0 153.5 -10t131.5 -20l48 -9l-16 -65q-179 34 -326 34q-101 0 -191 -45t-157 -122t-121 -177t-88 -211.5t-51.5 -223t-17.5 -214.5q0 -173 74.5 -255.5t236.5 -82.5q73 0 156.5 9.5 t130.5 19.5l47 10l-2 -67q-178 -41 -342 -41h-4l-23 -91h10q86 0 131 -34t27 -111q-18 -82 -66 -118t-129 -36q-38 0 -77 2t-58 4l-20 3l16 63q84 -8 150 -8q46 0 74 20.5t40 69.5q19 84 -71 84h-105l37 156q-311 34 -311 403z" />
<glyph unicode="&#xc8;" horiz-adv-x="1044" d="M176 0l332 1434h772l-16 -68h-699l-137 -596h584l-17 -68h-583l-146 -634h699l-17 -68h-772zM766 1823l35 55l327 -199l-30 -45z" />
<glyph unicode="&#xc9;" horiz-adv-x="1044" d="M176 0l332 1434h772l-16 -68h-699l-137 -596h584l-17 -68h-583l-146 -634h699l-17 -68h-772zM793 1686l417 196l19 -59l-420 -189z" />
<glyph unicode="&#xca;" horiz-adv-x="1044" d="M176 0l332 1434h772l-16 -68h-699l-137 -596h584l-17 -68h-583l-146 -634h699l-17 -68h-772zM813 1634l320 262h28l199 -262h-70l-149 199l-244 -199h-84z" />
<glyph unicode="&#xcb;" horiz-adv-x="1044" d="M176 0l332 1434h772l-16 -68h-699l-137 -596h584l-17 -68h-583l-146 -634h699l-17 -68h-772zM741 1702l29 135h61l-34 -135h-56zM1108 1702l33 135h59l-33 -135h-59z" />
<glyph unicode="&#xcc;" horiz-adv-x="425" d="M176 0l332 1434h74l-332 -1434h-74zM313 1823l35 55l328 -199l-31 -45z" />
<glyph unicode="&#xcd;" horiz-adv-x="425" d="M176 0l332 1434h74l-332 -1434h-74zM485 1686l418 196l19 -59l-420 -189z" />
<glyph unicode="&#xce;" horiz-adv-x="425" d="M176 0l332 1434h74l-332 -1434h-74zM309 1634l320 262h28l199 -262h-70l-149 199l-244 -199h-84z" />
<glyph unicode="&#xcf;" horiz-adv-x="425" d="M176 0l332 1434h74l-332 -1434h-74zM375 1702l28 135h62l-35 -135h-55zM741 1702l33 135h60l-33 -135h-60z" />
<glyph unicode="&#xd0;" horiz-adv-x="1249" d="M180 0l158 680h-156l15 78h159l156 676h467q187 0 267.5 -102t80.5 -318q0 -106 -18 -219t-52 -227.5t-90 -216t-127 -180.5t-167.5 -125t-206.5 -46h-486zM272 68h412q89 0 169 43.5t140.5 117t110 169t81 201.5t48 212t16.5 203q0 184 -64.5 268t-219.5 84h-396 l-139 -608h332l-19 -78h-331z" />
<glyph unicode="&#xd1;" horiz-adv-x="1263" d="M176 0l332 1434h166l307 -1366h49l316 1366h73l-332 -1434h-161l-310 1366h-51l-315 -1366h-74zM715 1751q15 13 39 32.5t77.5 52t81.5 32.5q36 0 92.5 -32t108.5 -64.5t78 -32.5q16 0 56.5 26t73.5 52l32 26l8 -51q-14 -13 -37 -32.5t-73.5 -52t-75.5 -32.5 q-35 0 -91.5 32.5t-109 65.5t-76.5 33q-18 0 -63.5 -28t-81.5 -56l-37 -28z" />
<glyph unicode="&#xd2;" horiz-adv-x="1302" d="M250 403q0 259 87.5 504.5t242.5 390.5q164 154 368 154q218 0 325 -102.5t107 -319.5q0 -177 -37 -347.5t-115.5 -323t-189.5 -246.5q-157 -131 -356 -131q-236 0 -334 95t-98 326zM326 401q0 -192 81 -272t275 -80q153 0 279 92q113 85 193 240.5t114.5 320.5t34.5 330 q0 181 -86 266.5t-269 85.5q-138 0 -260 -88q-115 -85 -200 -243t-123.5 -326t-38.5 -326zM834 1823l34 55l328 -199l-31 -45z" />
<glyph unicode="&#xd3;" horiz-adv-x="1302" d="M250 403q0 259 87.5 504.5t242.5 390.5q164 154 368 154q218 0 325 -102.5t107 -319.5q0 -177 -37 -347.5t-115.5 -323t-189.5 -246.5q-157 -131 -356 -131q-236 0 -334 95t-98 326zM326 401q0 -192 81 -272t275 -80q153 0 279 92q113 85 193 240.5t114.5 320.5t34.5 330 q0 181 -86 266.5t-269 85.5q-138 0 -260 -88q-115 -85 -200 -243t-123.5 -326t-38.5 -326zM903 1686l418 196l18 -59l-419 -189z" />
<glyph unicode="&#xd4;" horiz-adv-x="1302" d="M250 403q0 259 87.5 504.5t242.5 390.5q164 154 368 154q218 0 325 -102.5t107 -319.5q0 -177 -37 -347.5t-115.5 -323t-189.5 -246.5q-157 -131 -356 -131q-236 0 -334 95t-98 326zM326 401q0 -192 81 -272t275 -80q153 0 279 92q113 85 193 240.5t114.5 320.5t34.5 330 q0 181 -86 266.5t-269 85.5q-138 0 -260 -88q-115 -85 -200 -243t-123.5 -326t-38.5 -326zM762 1645l319 262h29l199 -262h-70l-149 198l-244 -198h-84z" />
<glyph unicode="&#xd5;" horiz-adv-x="1302" d="M250 403q0 259 87.5 504.5t242.5 390.5q164 154 368 154q218 0 325 -102.5t107 -319.5q0 -177 -37 -347.5t-115.5 -323t-189.5 -246.5q-157 -131 -356 -131q-236 0 -334 95t-98 326zM326 401q0 -192 81 -272t275 -80q153 0 279 92q113 85 193 240.5t114.5 320.5t34.5 330 q0 181 -86 266.5t-269 85.5q-138 0 -260 -88q-115 -85 -200 -243t-123.5 -326t-38.5 -326zM750 1751q15 13 39 32.5t77.5 52t81.5 32.5q36 0 92.5 -32t108.5 -64.5t78 -32.5q16 0 56.5 26t72.5 52l33 26l8 -51q-15 -13 -38 -32.5t-73.5 -52t-75.5 -32.5q-35 0 -91.5 32.5 t-108.5 65.5t-76 33q-18 0 -63.5 -28t-82.5 -56l-36 -28z" />
<glyph unicode="&#xd6;" horiz-adv-x="1302" d="M250 403q0 259 87.5 504.5t242.5 390.5q164 154 368 154q218 0 325 -102.5t107 -319.5q0 -177 -37 -347.5t-115.5 -323t-189.5 -246.5q-157 -131 -356 -131q-236 0 -334 95t-98 326zM326 401q0 -192 81 -272t275 -80q153 0 279 92q113 85 193 240.5t114.5 320.5t34.5 330 q0 181 -86 266.5t-269 85.5q-138 0 -260 -88q-115 -85 -200 -243t-123.5 -326t-38.5 -326zM827 1706l31 133h70l-31 -133h-70zM1196 1706l27 133h69l-30 -133h-66z" />
<glyph unicode="&#xd7;" d="M283 156l360 358l-360 358l49 50l358 -361l359 361l49 -50l-361 -358l361 -358l-49 -50l-359 361l-358 -361z" />
<glyph unicode="&#xd8;" horiz-adv-x="1302" d="M162 -193l184 271q-96 96 -96 325q0 259 87.5 504.5t242.5 390.5q164 154 368 154q182 0 285 -72l164 240l61 -29l-174 -254q96 -107 96 -307q0 -177 -37 -347.5t-115.5 -323t-189.5 -246.5q-157 -131 -356 -131q-186 0 -285 57l-180 -264zM326 401q0 -174 65 -256 l387 568l414 606q-86 65 -244 65q-138 0 -260 -88q-115 -85 -200 -243t-123.5 -326t-38.5 -326zM440 102q82 -53 242 -53q153 0 279 92q113 85 193 240.5t114.5 320.5t34.5 330q0 155 -64 240l-401 -592z" />
<glyph unicode="&#xd9;" horiz-adv-x="1214" d="M244 264q0 78 20 160l234 1010h73l-233 -1010q-21 -89 -21 -158q0 -109 85 -162t239 -53q185 0 285 88t141 267l238 1028h73l-237 -1031q-49 -212 -166.5 -316.5t-337.5 -104.5q-185 0 -289 70t-104 212zM774 1823l35 55l328 -199l-31 -45z" />
<glyph unicode="&#xda;" horiz-adv-x="1214" d="M244 264q0 78 20 160l234 1010h73l-233 -1010q-21 -89 -21 -158q0 -109 85 -162t239 -53q185 0 285 88t141 267l238 1028h73l-237 -1031q-49 -212 -166.5 -316.5t-337.5 -104.5q-185 0 -289 70t-104 212zM807 1686l418 196l18 -59l-420 -189z" />
<glyph unicode="&#xdb;" horiz-adv-x="1214" d="M244 264q0 78 20 160l234 1010h73l-233 -1010q-21 -89 -21 -158q0 -109 85 -162t239 -53q185 0 285 88t141 267l238 1028h73l-237 -1031q-49 -212 -166.5 -316.5t-337.5 -104.5q-185 0 -289 70t-104 212zM696 1645l320 262h28l199 -262h-69l-150 198l-244 -198h-84z" />
<glyph unicode="&#xdc;" horiz-adv-x="1214" d="M244 264q0 78 20 160l234 1010h73l-233 -1010q-21 -89 -21 -158q0 -109 85 -162t239 -53q185 0 285 88t141 267l238 1028h73l-237 -1031q-49 -212 -166.5 -316.5t-337.5 -104.5q-185 0 -289 70t-104 212zM760 1706l31 133h69l-31 -133h-69zM1128 1706l27 133h70l-31 -133 h-66z" />
<glyph unicode="&#xdd;" horiz-adv-x="993" d="M365 1434h73l211 -740l553 740h82l-616 -818l-144 -616h-73l145 631zM688 1686l418 196l18 -59l-419 -189z" />
<glyph unicode="&#xde;" horiz-adv-x="1138" d="M174 0l336 1434h74l-58 -248h400q391 0 297 -434q-23 -105 -64 -190t-102 -150.5t-146 -101.5t-188 -36h-412l-63 -274h-74zM328 340h411q84 0 153 32t117.5 90.5t81.5 129.5t56 160q92 368 -238 368h-397z" />
<glyph unicode="&#xdf;" horiz-adv-x="1069" d="M150 0l256 1096q54 229 148 323t271 94q289 0 289 -213q0 -64 -15.5 -116t-44.5 -90.5t-64 -66t-81 -52.5q-91 -48 -125 -78t-34 -68q0 -42 22.5 -69.5t99.5 -73.5q53 -32 80.5 -50.5t55 -43t39.5 -48t19 -54.5t7 -74q0 -199 -122 -316.5t-343 -117.5q-41 0 -93.5 7 t-84.5 14l-33 7l11 66q128 -29 208 -29q179 0 281 99t102 268q0 72 -33.5 114t-142.5 109q-84 51 -114.5 91t-30.5 91q0 66 40 107.5t163 107.5q80 43 119.5 103.5t39.5 152.5q0 82 -50 120t-167 38q-153 0 -229 -80.5t-121 -277.5l-254 -1090h-69z" />
<glyph unicode="&#xe0;" horiz-adv-x="987" d="M195 242q0 133 35 271.5t97.5 257.5t162 195t217.5 76q52 0 141.5 -10t153.5 -20l63 -11l-156 -667q-14 -58 -28.5 -141t-22.5 -137l-8 -54l-68 -4q35 213 45 260q-8 -11 -22.5 -29.5t-58.5 -66.5t-88 -84t-104.5 -66t-113.5 -30q-245 0 -245 260zM270 242 q0 -96 43.5 -144.5t141.5 -48.5q45 0 102 33.5t106 81t92 95t68 81.5l25 33l133 573q-149 31 -274 31q-83 0 -155.5 -47.5t-123 -124.5t-87 -174t-54 -197t-17.5 -192zM639 1425l37 52l328 -195l-37 -45z" />
<glyph unicode="&#xe1;" horiz-adv-x="987" d="M195 242q0 133 35 271.5t97.5 257.5t162 195t217.5 76q52 0 141.5 -10t153.5 -20l63 -11l-156 -667q-14 -58 -28.5 -141t-22.5 -137l-8 -54l-68 -4q35 213 45 260q-8 -11 -22.5 -29.5t-58.5 -66.5t-88 -84t-104.5 -66t-113.5 -30q-245 0 -245 260zM270 242 q0 -96 43.5 -144.5t141.5 -48.5q45 0 102 33.5t106 81t92 95t68 81.5l25 33l133 573q-149 31 -274 31q-83 0 -155.5 -47.5t-123 -124.5t-87 -174t-54 -197t-17.5 -192zM692 1300l416 195l12 -61l-418 -185z" />
<glyph unicode="&#xe2;" horiz-adv-x="987" d="M195 242q0 133 35 271.5t97.5 257.5t162 195t217.5 76q52 0 141.5 -10t153.5 -20l63 -11l-156 -667q-14 -58 -28.5 -141t-22.5 -137l-8 -54l-68 -4q35 213 45 260q-8 -11 -22.5 -29.5t-58.5 -66.5t-88 -84t-104.5 -66t-113.5 -30q-245 0 -245 260zM270 242 q0 -96 43.5 -144.5t141.5 -48.5q45 0 102 33.5t106 81t92 95t68 81.5l25 33l133 573q-149 31 -274 31q-83 0 -155.5 -47.5t-123 -124.5t-87 -174t-54 -197t-17.5 -192zM532 1219l299 276h46l178 -276h-78l-131 206l-225 -206h-89z" />
<glyph unicode="&#xe3;" horiz-adv-x="987" d="M195 242q0 133 35 271.5t97.5 257.5t162 195t217.5 76q52 0 141.5 -10t153.5 -20l63 -11l-156 -667q-14 -58 -28.5 -141t-22.5 -137l-8 -54l-68 -4q35 213 45 260q-8 -11 -22.5 -29.5t-58.5 -66.5t-88 -84t-104.5 -66t-113.5 -30q-245 0 -245 260zM270 242 q0 -96 43.5 -144.5t141.5 -48.5q45 0 102 33.5t106 81t92 95t68 81.5l25 33l133 573q-149 31 -274 31q-83 0 -155.5 -47.5t-123 -124.5t-87 -174t-54 -197t-17.5 -192zM563 1366q13 11 34.5 26.5t70 41.5t75.5 26q38 0 133 -52t119 -52q16 0 51 21t62 42l27 21l10 -62 q-12 -10 -30.5 -24.5t-62 -39t-69.5 -24.5q-37 0 -135 52.5t-125 52.5q-17 0 -56 -23t-69 -46l-31 -23z" />
<glyph unicode="&#xe4;" horiz-adv-x="987" d="M195 242q0 133 35 271.5t97.5 257.5t162 195t217.5 76q52 0 141.5 -10t153.5 -20l63 -11l-156 -667q-14 -58 -28.5 -141t-22.5 -137l-8 -54l-68 -4q35 213 45 260q-8 -11 -22.5 -29.5t-58.5 -66.5t-88 -84t-104.5 -66t-113.5 -30q-245 0 -245 260zM270 242 q0 -96 43.5 -144.5t141.5 -48.5q45 0 102 33.5t106 81t92 95t68 81.5l25 33l133 573q-149 31 -274 31q-83 0 -155.5 -47.5t-123 -124.5t-87 -174t-54 -197t-17.5 -192zM578 1296l30 134h70l-31 -134h-69zM946 1296l27 134h69l-30 -134h-66z" />
<glyph unicode="&#xe5;" horiz-adv-x="987" d="M195 242q0 133 35 271.5t97.5 257.5t162 195t217.5 76q52 0 141.5 -10t153.5 -20l63 -11l-156 -667q-14 -58 -28.5 -141t-22.5 -137l-8 -54l-68 -4q35 213 45 260q-8 -11 -22.5 -29.5t-58.5 -66.5t-88 -84t-104.5 -66t-113.5 -30q-245 0 -245 260zM270 242 q0 -96 43.5 -144.5t141.5 -48.5q45 0 102 33.5t106 81t92 95t68 81.5l25 33l133 573q-149 31 -274 31q-83 0 -155.5 -47.5t-123 -124.5t-87 -174t-54 -197t-17.5 -192zM696 1366q13 75 74 130.5t148 55.5q64 0 98.5 -37t34.5 -106q0 -97 -66 -163t-158 -66q-83 0 -114 50.5 t-17 135.5zM754 1366q-11 -48 13.5 -87.5t74.5 -39.5q52 0 93.5 37t53.5 90q11 47 -12.5 85t-73.5 38q-52 0 -95 -36t-54 -87z" />
<glyph unicode="&#xe6;" horiz-adv-x="1581" d="M141.5 170q-4.5 54 8.5 113q14 74 46.5 127.5t84.5 87t112 52t142 30.5q174 24 327 36q11 34 17.5 56.5t15 62.5t8.5 67.5t-6.5 60.5t-24 53.5t-50.5 34.5t-81 14q-63 0 -154.5 -4.5t-151.5 -9.5l-60 -5l12 76q217 20 371 20q95 0 155.5 -51.5t63.5 -142.5 q132 194 383 194q139 0 209.5 -67t70.5 -211q0 -104 -28 -213l-19 -72l-675 4q-31 -141 -31 -213q0 -108 48.5 -161.5t164.5 -53.5q62 0 151.5 4.5t148.5 9.5l58 5l-14 -74q-222 -18 -361 -18q-188 0 -247 118q-116 -46 -259.5 -82t-240.5 -36q-66 0 -110 25t-62 67 t-22.5 96zM222.5 205.5q-0.5 -37.5 10.5 -72.5t42 -56.5t79 -21.5q86 0 217.5 34.5t245.5 76.5q-5 23 -7 48.5t-3 44t2 49.5t4 44t8.5 50t9 44.5t11 51t10.5 47.5q-247 -26 -363 -45q-105 -18 -168 -68.5t-88 -148.5q-10 -40 -10.5 -77.5zM932 553l602 -4q33 118 33 205 q0 113 -55.5 164t-168.5 51q-154 0 -256.5 -98t-154.5 -318z" />
<glyph unicode="&#xe7;" horiz-adv-x="825" d="M203 264q0 99 14.5 193t43 181.5t74 160.5t103.5 127.5t136.5 85t168.5 30.5q44 0 100 -5.5t90 -10.5l34 -6l-19 -64q-117 21 -205 21q-116 0 -207.5 -60.5t-146 -162t-82.5 -225t-28 -259.5q0 -111 58 -167t189 -56q34 0 93 9.5t101 19.5l42 10v-66q-137 -38 -252 -38 h-21l-22 -91h10q86 0 131 -34t27 -111q-18 -82 -66 -118t-129 -36q-38 0 -77 2t-59 4l-19 3l16 63q84 -8 150 -8q46 0 74 20.5t40 69.5q19 84 -71 84h-105l37 158q-223 32 -223 276z" />
<glyph unicode="&#xe8;" horiz-adv-x="925" d="M199 268q0 105 20.5 211.5t64.5 208.5t106.5 180.5t154.5 126t200 47.5q125 0 196 -52t71 -159q0 -175 -141.5 -247t-436.5 -72h-129q-31 -127 -31 -229q0 -111 61 -171.5t167 -60.5q70 0 154 15t133 30l49 15v-68q-20 -7 -54 -17t-127.5 -27t-171.5 -17 q-131 0 -208.5 74t-77.5 212zM319 578h134q125 0 210.5 11t150 39t94.5 77.5t30 123.5q0 77 -49 112.5t-146 35.5q-299 0 -424 -399zM487 1425l37 52l328 -195l-37 -45z" />
<glyph unicode="&#xe9;" horiz-adv-x="925" d="M199 268q0 105 20.5 211.5t64.5 208.5t106.5 180.5t154.5 126t200 47.5q125 0 196 -52t71 -159q0 -175 -141.5 -247t-436.5 -72h-129q-31 -127 -31 -229q0 -111 61 -171.5t167 -60.5q70 0 154 15t133 30l49 15v-68q-20 -7 -54 -17t-127.5 -27t-171.5 -17 q-131 0 -208.5 74t-77.5 212zM319 578h134q125 0 210.5 11t150 39t94.5 77.5t30 123.5q0 77 -49 112.5t-146 35.5q-299 0 -424 -399zM631 1300l416 195l12 -61l-418 -185z" />
<glyph unicode="&#xea;" horiz-adv-x="925" d="M199 268q0 105 20.5 211.5t64.5 208.5t106.5 180.5t154.5 126t200 47.5q125 0 196 -52t71 -159q0 -175 -141.5 -247t-436.5 -72h-129q-31 -127 -31 -229q0 -111 61 -171.5t167 -60.5q70 0 154 15t133 30l49 15v-68q-20 -7 -54 -17t-127.5 -27t-171.5 -17 q-131 0 -208.5 74t-77.5 212zM319 578h134q125 0 210.5 11t150 39t94.5 77.5t30 123.5q0 77 -49 112.5t-146 35.5q-299 0 -424 -399zM498 1219l299 276h45l178 -276h-78l-131 206l-225 -206h-88z" />
<glyph unicode="&#xeb;" horiz-adv-x="925" d="M199 268q0 105 20.5 211.5t64.5 208.5t106.5 180.5t154.5 126t200 47.5q125 0 196 -52t71 -159q0 -175 -141.5 -247t-436.5 -72h-129q-31 -127 -31 -229q0 -111 61 -171.5t167 -60.5q70 0 154 15t133 30l49 15v-68q-20 -7 -54 -17t-127.5 -27t-171.5 -17 q-131 0 -208.5 74t-77.5 212zM319 578h134q125 0 210.5 11t150 39t94.5 77.5t30 123.5q0 77 -49 112.5t-146 35.5q-299 0 -424 -399zM575 1296l31 134h70l-31 -134h-70zM944 1296l27 134h69l-30 -134h-66z" />
<glyph unicode="&#xec;" horiz-adv-x="372" d="M150 0l237 1024h72l-238 -1024h-71zM164 1425l37 52l327 -195l-36 -45z" />
<glyph unicode="&#xed;" horiz-adv-x="372" d="M150 0l237 1024h72l-238 -1024h-71zM403 1300l416 195l12 -61l-417 -185z" />
<glyph unicode="&#xee;" horiz-adv-x="372" d="M150 0l237 1024h72l-238 -1024h-71zM193 1219l299 276h45l178 -276h-78l-131 206l-225 -206h-88z" />
<glyph unicode="&#xef;" horiz-adv-x="372" d="M150 0l237 1024h72l-238 -1024h-71zM231 1296l31 134h70l-31 -134h-70zM600 1296l27 134h69l-30 -134h-66z" />
<glyph unicode="&#xf0;" horiz-adv-x="1044" d="M170 276q0 135 43.5 249t116.5 189t166.5 116.5t195.5 41.5q68 0 154 -22.5t138 -45.5l52 -22q53 319 -196 510l-262 -157l-33 57l233 141q-102 61 -225 105l39 69q152 -52 262 -127l229 140l33 -60l-205 -123q275 -230 191 -600q-48 -203 -110 -349t-138 -235 t-161.5 -130t-186.5 -41q-90 0 -157 24t-105 66t-56 92.5t-18 111.5zM252 285q0 -103 68 -164.5t202 -61.5q94 0 172.5 47.5t138.5 137t105 201t82 257.5q-12 7 -61 27t-133.5 43t-145.5 23q-180 0 -304 -147t-124 -363z" />
<glyph unicode="&#xf1;" horiz-adv-x="999" d="M150 0h71l158 676l24 32t61.5 72t91 91t105 71.5t111.5 32.5q86 0 131 -46t45 -130q0 -106 -39 -271l-123 -528h70l125 532q39 178 39 273q0 110 -63 173.5t-173 63.5q-56 0 -116 -25.5t-104.5 -62t-81.5 -73.5t-56 -63l-20 -25l53 231h-72zM526 1366q13 11 35 26.5 t70.5 41.5t75.5 26q38 0 132.5 -52t118.5 -52q16 0 51 21t62 42l27 21l10 -62q-12 -10 -30.5 -24.5t-62 -39t-69.5 -24.5q-37 0 -135 52.5t-125 52.5q-17 0 -56 -23t-70 -46l-30 -23z" />
<glyph unicode="&#xf2;" horiz-adv-x="1009" d="M203 285q0 209 67 383t184.5 274t260.5 100q160 0 241.5 -81.5t81.5 -239.5q0 -206 -64.5 -374t-184.5 -266.5t-273 -98.5q-158 0 -235.5 74t-77.5 229zM276 285q0 -238 240 -238q132 0 235.5 91.5t158.5 244.5t55 338q0 117 -63 186.5t-187 69.5q-126 0 -228 -96 t-156.5 -254t-54.5 -342zM543 1425l37 52l327 -195l-37 -45z" />
<glyph unicode="&#xf3;" horiz-adv-x="1009" d="M203 285q0 209 67 383t184.5 274t260.5 100q160 0 241.5 -81.5t81.5 -239.5q0 -206 -64.5 -374t-184.5 -266.5t-273 -98.5q-158 0 -235.5 74t-77.5 229zM276 285q0 -238 240 -238q132 0 235.5 91.5t158.5 244.5t55 338q0 117 -63 186.5t-187 69.5q-126 0 -228 -96 t-156.5 -254t-54.5 -342zM635 1300l416 195l12 -61l-418 -185z" />
<glyph unicode="&#xf4;" horiz-adv-x="1009" d="M203 285q0 209 67 383t184.5 274t260.5 100q160 0 241.5 -81.5t81.5 -239.5q0 -206 -64.5 -374t-184.5 -266.5t-273 -98.5q-158 0 -235.5 74t-77.5 229zM276 285q0 -238 240 -238q132 0 235.5 91.5t158.5 244.5t55 338q0 117 -63 186.5t-187 69.5q-126 0 -228 -96 t-156.5 -254t-54.5 -342zM530 1219l299 276h45l179 -276h-78l-131 206l-226 -206h-88z" />
<glyph unicode="&#xf5;" horiz-adv-x="1009" d="M203 285q0 209 67 383t184.5 274t260.5 100q160 0 241.5 -81.5t81.5 -239.5q0 -206 -64.5 -374t-184.5 -266.5t-273 -98.5q-158 0 -235.5 74t-77.5 229zM276 285q0 -238 240 -238q132 0 235.5 91.5t158.5 244.5t55 338q0 117 -63 186.5t-187 69.5q-126 0 -228 -96 t-156.5 -254t-54.5 -342zM510 1366q13 11 34.5 26.5t70 41.5t75.5 26q38 0 133 -52t119 -52q16 0 50.5 21t61.5 42l27 21l11 -62q-12 -10 -30.5 -24.5t-62 -39t-69.5 -24.5q-37 0 -135 52.5t-125 52.5q-17 0 -56 -23t-70 -46l-30 -23z" />
<glyph unicode="&#xf6;" horiz-adv-x="1009" d="M203 285q0 209 67 383t184.5 274t260.5 100q160 0 241.5 -81.5t81.5 -239.5q0 -206 -64.5 -374t-184.5 -266.5t-273 -98.5q-158 0 -235.5 74t-77.5 229zM276 285q0 -238 240 -238q132 0 235.5 91.5t158.5 244.5t55 338q0 117 -63 186.5t-187 69.5q-126 0 -228 -96 t-156.5 -254t-54.5 -342zM584 1296l30 134h60l-31 -134h-59zM942 1296l27 134h59l-31 -134h-55z" />
<glyph unicode="&#xf7;" d="M238 479v70h909v-70h-909zM653 80v164h78v-164h-78zM653 784v164h78v-164h-78z" />
<glyph unicode="&#xf8;" horiz-adv-x="1007" d="M129 -209l162 258q-86 74 -86 240q0 209 67 383t184.5 274.5t260.5 100.5q104 0 176 -35l141 225l56 -25l-148 -233q98 -79 98 -254q0 -206 -64.5 -374t-184.5 -266.5t-273 -98.5q-103 0 -178 32l-156 -249zM279 289q0 -114 55 -172l256 405l264 426q-61 33 -137 33 q-126 0 -227.5 -96t-156 -253.5t-54.5 -342.5zM379 82q57 -31 139 -31q132 0 235.5 91.5t158.5 244.5t55 338q0 119 -66 188l-264 -417z" />
<glyph unicode="&#xf9;" horiz-adv-x="999" d="M215 219q0 95 39 273l125 532h70l-123 -528q-39 -165 -39 -271q0 -83 46.5 -129.5t129.5 -46.5q51 0 110 31t107.5 74.5t89 87.5t63.5 75l23 31l158 676h71l-237 -1024h-72l53 231q-7 -10 -20 -27t-54.5 -60t-84 -75.5t-103 -59.5t-116.5 -27q-109 0 -172.5 63.5 t-63.5 173.5zM545 1425l37 52l327 -195l-37 -45z" />
<glyph unicode="&#xfa;" horiz-adv-x="999" d="M215 219q0 95 39 273l125 532h70l-123 -528q-39 -165 -39 -271q0 -83 46.5 -129.5t129.5 -46.5q51 0 110 31t107.5 74.5t89 87.5t63.5 75l23 31l158 676h71l-237 -1024h-72l53 231q-7 -10 -20 -27t-54.5 -60t-84 -75.5t-103 -59.5t-116.5 -27q-109 0 -172.5 63.5 t-63.5 173.5zM666 1300l415 195l13 -61l-418 -185z" />
<glyph unicode="&#xfb;" horiz-adv-x="999" d="M215 219q0 95 39 273l125 532h70l-123 -528q-39 -165 -39 -271q0 -83 46.5 -129.5t129.5 -46.5q51 0 110 31t107.5 74.5t89 87.5t63.5 75l23 31l158 676h71l-237 -1024h-72l53 231q-7 -10 -20 -27t-54.5 -60t-84 -75.5t-103 -59.5t-116.5 -27q-109 0 -172.5 63.5 t-63.5 173.5zM481 1219l299 276h45l179 -276h-78l-131 206l-226 -206h-88z" />
<glyph unicode="&#xfc;" horiz-adv-x="999" d="M215 219q0 95 39 273l125 532h70l-123 -528q-39 -165 -39 -271q0 -83 46.5 -129.5t129.5 -46.5q51 0 110 31t107.5 74.5t89 87.5t63.5 75l23 31l158 676h71l-237 -1024h-72l53 231q-7 -10 -20 -27t-54.5 -60t-84 -75.5t-103 -59.5t-116.5 -27q-109 0 -172.5 63.5 t-63.5 173.5zM553 1296l31 134h69l-30 -134h-70zM922 1296l26 134h70l-31 -134h-65z" />
<glyph unicode="&#xfd;" horiz-adv-x="917" d="M219 -467l252 467h-119l-51 1024h74l47 -958h82l508 958h78l-793 -1491h-78zM604 1300l416 195l12 -61l-418 -185z" />
<glyph unicode="&#xfe;" horiz-adv-x="972" d="M39 -467l463 1958h69l-143 -594q16 13 45.5 33t77.5 47.5t108.5 46t114.5 18.5q77 0 130.5 -34t77.5 -87t31 -122.5t-0.5 -135.5t-25.5 -131q-75 -280 -198.5 -415t-335.5 -135q-51 0 -108.5 5t-91.5 11t-34 8l-113 -473h-67zM233 80l232 -25q93 0 163 28.5t123 90.5 t92 148t75 213q18 65 22.5 136t-7.5 140t-56 113.5t-117 44.5q-48 0 -102.5 -17t-97 -40.5t-78.5 -47.5t-56 -40l-20 -15z" />
<glyph unicode="&#xff;" horiz-adv-x="917" d="M219 -467l252 467h-119l-51 1024h74l47 -958h82l508 958h78l-793 -1491h-78zM508 1296l31 134h69l-30 -134h-70zM877 1296l26 134h70l-31 -134h-65z" />
<glyph unicode="&#x152;" horiz-adv-x="1794" d="M236 350q0 142 51 357q35 147 77 259t99.5 206t129.5 154t167 93t211 33q18 0 143.5 -7.5t155.5 -10.5h762l-15 -78h-692l-141 -580h575l-14 -78l-576 4l-147 -624h692l-20 -80h-760q-200 -16 -309 -16q-206 0 -297.5 91.5t-91.5 276.5zM311 365q0 -155 76.5 -230.5 t253.5 -75.5q103 0 307 19l303 1282q-124 14 -297 14q-104 0 -186.5 -29t-144 -81.5t-111 -136.5t-84.5 -183.5t-66 -232.5q-51 -212 -51 -346z" />
<glyph unicode="&#x153;" horiz-adv-x="1691" d="M195 231q0 124 43 304q65 277 181 392t339 115q140 0 213 -59.5t82 -185.5q125 245 411 245q289 0 289 -280q0 -86 -31 -213l-18 -70l-684 4q-35 -144 -35 -213q0 -109 52.5 -162t168.5 -53q60 0 149 4.5t149 9.5l59 5l-11 -74q-221 -18 -364 -18q-131 0 -197 56t-78 163 q-60 -115 -155 -167t-248 -52q-165 0 -240 58t-75 191zM268 250q0 -104 59 -149.5t197 -45.5q61 0 110.5 11.5t86.5 30.5t68 53t52.5 68.5t42 89t34.5 102.5t32 120q48 190 21 297q-20 74 -75.5 108t-152.5 34q-180 0 -275.5 -95.5t-152.5 -338.5q-47 -193 -47 -285z M1036 553l609 -4q30 123 30 207q0 113 -56 163t-169 50q-153 0 -257.5 -98.5t-156.5 -317.5z" />
<glyph unicode="&#x178;" horiz-adv-x="993" d="M365 1434h73l211 -740l553 740h82l-616 -818l-144 -616h-73l145 631zM643 1700l29 135h61l-35 -135h-55zM1010 1700l32 135h60l-33 -135h-59z" />
<glyph unicode="&#x2c6;" horiz-adv-x="1619" d="M829 1219l299 276h29l178 -276h-69l-131 206l-226 -206h-80z" />
<glyph unicode="&#x2dc;" horiz-adv-x="847" d="M479 1366q13 11 34.5 26.5t70 41.5t75.5 26q38 0 133 -52t119 -52q16 0 51 21t62 42l27 21l10 -62q-12 -10 -30.5 -24.5t-62 -39t-69.5 -24.5q-37 0 -135 52.5t-125 52.5q-17 0 -56 -23t-69 -46l-31 -23z" />
<glyph unicode="&#x2000;" horiz-adv-x="953" />
<glyph unicode="&#x2001;" horiz-adv-x="1907" />
<glyph unicode="&#x2002;" horiz-adv-x="953" />
<glyph unicode="&#x2003;" horiz-adv-x="1907" />
<glyph unicode="&#x2004;" horiz-adv-x="635" />
<glyph unicode="&#x2005;" horiz-adv-x="476" />
<glyph unicode="&#x2006;" horiz-adv-x="317" />
<glyph unicode="&#x2007;" horiz-adv-x="317" />
<glyph unicode="&#x2008;" horiz-adv-x="238" />
<glyph unicode="&#x2009;" horiz-adv-x="381" />
<glyph unicode="&#x200a;" horiz-adv-x="105" />
<glyph unicode="&#x2010;" horiz-adv-x="784" d="M262 516l17 72h499l-18 -72h-498z" />
<glyph unicode="&#x2011;" horiz-adv-x="784" d="M262 516l17 72h499l-18 -72h-498z" />
<glyph unicode="&#x2012;" horiz-adv-x="784" d="M262 516l17 72h499l-18 -72h-498z" />
<glyph unicode="&#x2013;" horiz-adv-x="1310" d="M270 516v70h1024v-70h-1024z" />
<glyph unicode="&#x2014;" horiz-adv-x="2334" d="M270 516v70h2048v-70h-2048z" />
<glyph unicode="&#x2018;" horiz-adv-x="378" d="M350 1020l191 414h55l-168 -414h-78z" />
<glyph unicode="&#x2019;" horiz-adv-x="378" d="M356 1020l168 414h78l-190 -414h-56z" />
<glyph unicode="&#x201a;" horiz-adv-x="382" d="M41 -233l168 413h78l-191 -413h-55z" />
<glyph unicode="&#x201c;" horiz-adv-x="659" d="M350 1020l191 414h55l-168 -414h-78zM631 1020l190 414h56l-168 -414h-78z" />
<glyph unicode="&#x201d;" horiz-adv-x="659" d="M356 1020l168 414h78l-190 -414h-56zM637 1020l168 414h78l-191 -414h-55z" />
<glyph unicode="&#x201e;" horiz-adv-x="634" d="M27 -229l190 413h55l-168 -413h-77zM293 -229l190 413h56l-168 -413h-78z" />
<glyph unicode="&#x2022;" horiz-adv-x="1030" d="M379 225v594h512v-594h-512z" />
<glyph unicode="&#x2026;" horiz-adv-x="1347" d="M150 0l38 170h74l-39 -170h-73zM643 0l39 170h74l-39 -170h-74zM1126 0l39 170h74l-39 -170h-74z" />
<glyph unicode="&#x202f;" horiz-adv-x="381" />
<glyph unicode="&#x2039;" horiz-adv-x="557" d="M201 494l16 45l387 262l-24 -84l-295 -207l192 -225l-22 -72z" />
<glyph unicode="&#x203a;" horiz-adv-x="557" d="M188 213l25 84l295 207l-193 225l23 72l254 -281l-17 -45z" />
<glyph unicode="&#x205f;" horiz-adv-x="476" />
<glyph unicode="&#x20ac;" d="M217 465l16 65h91q16 144 57 267h-88l16 65h94q40 107 94.5 196.5t126.5 161.5t165 112t198 40q67 0 146 -9t125 -19l45 -9l-15 -61q-170 33 -309 33q-168 0 -294.5 -123t-203.5 -322h627l-14 -65h-637q-45 -137 -60 -267h635l-14 -65h-627q-4 -33 -4 -96q0 -164 71 -242 t224 -78q68 0 147 9.5t123 18.5l45 9l-2 -66q-167 -38 -323 -38q-359 0 -359 387q0 30 4 96h-100z" />
<glyph unicode="&#x2122;" horiz-adv-x="1445" d="M455 1208v64h409v-64h-170v-528h-67v528h-172zM936 678v594h102l172 -496l179 496h102v-594h-66v528l-180 -506h-71l-173 506v-528h-65z" />
<glyph unicode="&#xe000;" horiz-adv-x="1024" d="M0 0v1024h1024v-1024h-1024z" />
</font>
</defs>
</svg>
