<?xml version="1.0" standalone="no"?>
<!DOCTYPE svg PUBLIC "-//W3C//DTD SVG 1.1//EN" "http://www.w3.org/Graphics/SVG/1.1/DTD/svg11.dtd" >
<svg xmlns="http://www.w3.org/2000/svg">
<metadata></metadata>
<defs>
<font id="TitilliumBdRegular" horiz-adv-x="1126" >
<font-face units-per-em="2048" ascent="1536" descent="-512" />
<missing-glyph horiz-adv-x="440" />
<glyph horiz-adv-x="0" />
<glyph horiz-adv-x="2048" />
<glyph unicode=" "  horiz-adv-x="440" />
<glyph unicode="&#x09;" horiz-adv-x="440" />
<glyph unicode="&#xa0;" horiz-adv-x="440" />
<glyph unicode="!" horiz-adv-x="593" d="M49 1372h496l-29 -872h-438zM63 0v406h467v-406h-467z" />
<glyph unicode="&#x22;" horiz-adv-x="1114" d="M27 1372h489l-63 -512h-361zM596 1372h489l-63 -512h-360z" />
<glyph unicode="#" d="M10 231l15 363h108l4 164h-112l14 362h106l9 252h360l-8 -252h127l8 252h363l-9 -252h119l-14 -362h-113l-4 -164h115l-8 -363h-117l-6 -231h-363l6 231h-127l-6 -231h-360l6 231h-113zM494 594h127l4 164h-127z" />
<glyph unicode="$" d="M14 901q0 135 32.5 227t99 143.5t152.5 74t208 24.5v168h127v-168q90 -4 201 -16.5t177 -22.5l66 -10l-12 -363q-282 31 -479 31q-61 0 -82 -7.5t-21 -29.5q0 -21 24.5 -32.5t119.5 -32.5q80 -18 132 -31.5t106.5 -31t87 -35t65 -42t49.5 -53t31 -67.5t19 -85t5 -106 q0 -240 -121.5 -346.5t-367.5 -114.5v-149h-127v149q-114 5 -234 23t-184 34l-63 15l18 354q307 -45 504 -45q60 0 82 10.5t22 36.5q0 22 -24.5 30.5t-128.5 23.5q-192 30 -295 80.5t-146 135t-43 228.5z" />
<glyph unicode="%" horiz-adv-x="1363" d="M35 1004q0 199 65.5 281.5t229.5 82.5q170 0 232.5 -81.5t62.5 -282.5t-63.5 -284t-231.5 -83q-167 0 -231 83t-64 284zM293 1004q0 -71 3.5 -102.5t10.5 -38.5t23 -7q13 0 19 2.5t11 18t6 43.5t1 84q0 57 -1 84t-5.5 42.5t-10.5 18t-20 2.5q-17 0 -23.5 -7.5t-10 -37 t-3.5 -102.5zM467 -121l324 1557l90 -19l-326 -1554zM739 342q0 199 65.5 282t229.5 83q169 0 232 -82t63 -283t-63.5 -284t-231.5 -83q-167 0 -231 83t-64 284zM997 342q0 -71 3.5 -102t10 -38t23.5 -7t23.5 7.5t10 37t3.5 102.5q0 57 -1 84t-5.5 42.5t-10.5 18t-20 2.5 q-17 0 -23.5 -7.5t-10 -37t-3.5 -102.5z" />
<glyph unicode="&#x26;" horiz-adv-x="1437" d="M12 389q0 159 55.5 247.5t165.5 135.5q-33 49 -44 104t-11 148q0 182 122 278.5t390 96.5q90 0 162.5 -10t138.5 -36t110.5 -67t70.5 -106.5t26 -151.5q0 -61 -5.5 -99t-22.5 -75t-50 -62t-86 -48t-133 -44l121 -104q24 51 33 82l372 -14q-53 -202 -118 -320l133 -115 l-94 -256l-277 113q-182 -113 -483 -113q-155 0 -260 20t-177.5 68t-105.5 128t-33 200zM475 469q0 -60 40 -92.5t116 -32.5q38 0 71 8l-219 185q-8 -27 -8 -68zM623 1020q0 -68 51 -119q27 18 50.5 49.5t23.5 69.5q0 51 -15 71.5t-47 20.5q-63 0 -63 -92z" />
<glyph unicode="'" horiz-adv-x="544" d="M27 1372h489l-63 -512h-361z" />
<glyph unicode="(" horiz-adv-x="667" d="M33 616q0 149 21 298.5t50.5 256.5t59.5 193t51 129l21 43h415q-6 -19 -16.5 -53.5t-37 -140t-46.5 -209.5t-36.5 -247.5t-16.5 -269.5q0 -124 16 -259t38 -240t44.5 -192t38.5 -134l16 -47h-415q-8 14 -22 40t-49 113.5t-61.5 182t-48.5 241t-22 295.5z" />
<glyph unicode=")" horiz-adv-x="667" d="M16 -246q6 19 16.5 53.5t37 140t47 209.5t37 247.5t16.5 269.5q0 124 -16 259t-38.5 240t-45 192t-38.5 134l-16 47h416q8 -14 22 -40t49 -113.5t61.5 -182t48.5 -241t22 -295.5t-21 -298.5t-50.5 -256.5t-59.5 -193t-51 -129l-21 -43h-416z" />
<glyph unicode="*" horiz-adv-x="849" d="M39 1204l160 221l157 -133l52 203l260 -84l-78 -192l209 16v-274l-207 14l78 -195l-256 -84l-54 201l-159 -133l-160 219l174 111z" />
<glyph unicode="+" d="M90 336v369h289v284h369v-284h288v-369h-288v-289h-369v289h-289z" />
<glyph unicode="," horiz-adv-x="591" d="M27 -211l45 606h495l-161 -606h-379z" />
<glyph unicode="-" horiz-adv-x="729" d="M59 330v370h611v-370h-611z" />
<glyph unicode="." horiz-adv-x="577" d="M55 0v408h467v-408h-467z" />
<glyph unicode="/" d="M31 -61l620 1536l445 -91l-621 -1536z" />
<glyph unicode="0" d="M27 676q0 185 27.5 313.5t90 217t164.5 129t252 40.5q154 0 257.5 -40.5t165 -129.5t87 -216t25.5 -314t-26 -314.5t-87.5 -217t-165 -130.5t-256.5 -41t-256 41t-164.5 130.5t-87.5 217t-26 314.5zM492 676q0 -139 6 -205.5t20 -89.5t43 -23t43 23t20.5 89.5t6.5 205.5 q0 106 -2.5 165.5t-11 94.5t-21 45t-35.5 10t-35 -10t-20.5 -45.5t-11 -94t-2.5 -165.5z" />
<glyph unicode="1" d="M86 1071l479 279h391v-1350h-464v852l-283 -113z" />
<glyph unicode="2" d="M88 0v352l178 172q28 27 75.5 73t68 66t53 53.5t46 52.5t29.5 44t21.5 46.5t5.5 43.5q0 54 -30.5 68t-128.5 14q-58 0 -131.5 -7.5t-117.5 -15.5l-44 -8l-21 351q24 8 66 20.5t159 33.5t220 21q234 0 365.5 -105t131.5 -304q0 -120 -27 -203t-88.5 -153t-175.5 -150 l-137 -96h420v-369h-938z" />
<glyph unicode="3" d="M72 27l12 358q235 -20 360 -20q38 0 59.5 1.5t43 8t30.5 20t9 35.5q0 33 -23.5 47.5t-85.5 20.5h-289v362h271q59 0 84.5 15t25.5 49q0 35 -35.5 48t-105.5 13q-62 0 -146 -4.5t-137 -8.5l-53 -5l-10 350q236 59 379 59q150 0 253.5 -19t177 -63.5t108 -120t34.5 -186.5 q0 -112 -27 -170.5t-98 -109.5q77 -60 110.5 -118.5t33.5 -164.5t-23.5 -183.5t-67 -129t-112 -82.5t-151 -43.5t-191.5 -12.5q-84 0 -193 13.5t-176 27.5z" />
<glyph unicode="4" d="M37 164v332l184 854h537l-264 -801h100l41 231l422 15v-246h51v-385h-51v-164h-465v164h-555z" />
<glyph unicode="5" d="M35 53l35 334q276 -41 460 -41q105 0 105 55q0 31 -23 44.5t-75 13.5q-33 0 -74 -6.5t-65 -12.5l-25 -6l-303 37l28 879h938v-410h-579l-11 -90q89 31 183 31q117 0 199 -21t142 -70.5t88.5 -135t28.5 -210.5q0 -471 -512 -471q-96 0 -231 20t-222 40z" />
<glyph unicode="6" d="M33 662q0 166 29 291.5t79 205t124.5 129t156.5 69t184 19.5q76 0 190 -17t190 -35l75 -17l-33 -340q-229 34 -401 34q-80 0 -115 -34.5t-41 -104.5l21 8q20 9 63 19t86 10q234 0 344.5 -111.5t110.5 -353.5q0 -231 -137 -346t-377 -115q-282 0 -415.5 172t-133.5 517z M469 512q0 -94 22.5 -134t90.5 -40q96 0 96 100q0 52 -23 75.5t-69 23.5q-32 0 -61.5 -6.5t-42.5 -12.5z" />
<glyph unicode="7" d="M100 920v430h926v-453l-360 -924l-459 95l340 800v52h-447z" />
<glyph unicode="8" d="M25 362q0 92 19 151.5t55 96.5t104 78q-89 54 -121.5 123t-32.5 201q0 364 512 364q93 0 166 -9.5t140.5 -34t112 -65t71 -105.5t26.5 -152q0 -132 -31.5 -201t-123.5 -123q105 -52 140.5 -118.5t35.5 -209.5q0 -385 -537 -385q-536 0 -536 389zM479 410q0 -91 82 -91 q43 0 62.5 20t19.5 71q0 33 -13.5 63t-26.5 43l-13 14h-55q-6 -5 -15.5 -14.5t-25 -40.5t-15.5 -65zM496 942q0 -28 10 -53.5t20 -36.5l9 -12h55q39 41 39 102q0 46 -16 69t-54 23q-37 0 -50 -22.5t-13 -69.5z" />
<glyph unicode="9" d="M29 915q0 231 137 346t377 115q282 0 415.5 -172t133.5 -516q0 -139 -20 -249.5t-58 -188t-88 -132.5t-116.5 -86t-137 -45t-154.5 -14q-76 0 -190 17.5t-190 35.5l-75 17l33 340q230 -35 402 -35q79 0 114 34.5t41 104.5l-21 -9q-20 -8 -63 -17.5t-86 -9.5 q-234 0 -344 111t-110 353zM446 911q0 -52 23.5 -75t69.5 -23q32 0 61 6.5t42 12.5l13 6q0 95 -22 134.5t-90 39.5q-97 0 -97 -101z" />
<glyph unicode=":" horiz-adv-x="589" d="M61 0v408h467v-408h-467zM61 543v407h467v-407h-467z" />
<glyph unicode=";" horiz-adv-x="602" d="M27 -211l45 606h495l-161 -606h-379zM78 543v407h467v-407h-467z" />
<glyph unicode="&#x3c;" d="M156 297v453l790 309v-459l-489 -65l489 -89v-473z" />
<glyph unicode="=" d="M121 117v348h885v-348h-885zM121 578v348h885v-348h-885z" />
<glyph unicode="&#x3e;" d="M178 -27v473l490 89l-490 65v459l791 -309v-453z" />
<glyph unicode="?" horiz-adv-x="968" d="M35 1364q26 9 70 21.5t160.5 33.5t209.5 21q244 0 351.5 -96.5t107.5 -327.5q0 -105 -19 -171t-54.5 -106t-106.5 -90q-90 -63 -125 -100.5t-37 -65.5l-2 -39h-359q-5 7 -13 20.5t-21 55.5t-13 86q0 74 34 122.5t144 129.5q73 54 91 76.5t18 64.5q0 38 -29.5 55t-99.5 17 q-61 0 -134 -7.5t-116 -14.5l-43 -7zM180 0v369h467v-369h-467z" />
<glyph unicode="@" horiz-adv-x="2103" d="M47 535q0 217 46 381t130 273t214 177.5t285.5 97.5t356.5 29q255 0 436 -45t305.5 -145t184 -262.5t59.5 -395.5v-35q0 -144 -14.5 -243.5t-46.5 -172.5t-88.5 -114.5t-135 -60.5t-192.5 -19q-244 0 -356 109q-145 -109 -313 -109q-227 0 -328 119.5t-101 382.5 q0 532 377 532q64 0 124.5 -19.5t89.5 -38.5l28 -20v52h459v-394q0 -111 9 -170t26.5 -79.5t48.5 -20.5q24 0 37 9.5t21 41t10.5 79t2.5 136.5v37q0 111 -14 192t-47.5 141.5t-81.5 98.5t-123 61.5t-164 32.5t-213 9q-106 0 -186.5 -7t-157 -25t-131.5 -49t-101.5 -80 t-74.5 -117t-43.5 -160t-15.5 -209q0 -147 13.5 -251t49 -180t84.5 -122t131.5 -73t177 -36.5t234.5 -9.5q36 0 109.5 5t128.5 10l55 5l6 -313q-201 -19 -299 -19q-201 0 -352.5 24t-264.5 76.5t-188.5 129t-121.5 190t-65.5 249t-19.5 315.5zM952 512q0 -84 16 -115.5 t56 -31.5q36 0 94 22q-10 69 -10 184v84q-30 9 -57 9q-57 0 -78 -29.5t-21 -122.5z" />
<glyph unicode="A" horiz-adv-x="1308" d="M-10 0l303 1372h719l309 -1372h-479l-39 158h-314l-32 -158h-467zM551 520h203l-74 479h-51z" />
<glyph unicode="B" horiz-adv-x="1243" d="M61 0v1372h621q502 0 502 -340q0 -130 -27.5 -199t-114.5 -131q68 -29 103.5 -61.5t54.5 -92t19 -159.5q0 -389 -529 -389h-629zM537 317h110q71 0 96 23.5t25 91.5q0 62 -26.5 86.5t-94.5 24.5h-110v-226zM537 840h106q61 0 86 26.5t25 87.5q0 56 -27 80.5t-86 24.5 h-104v-219z" />
<glyph unicode="C" horiz-adv-x="1091" d="M37 690q0 139 11.5 241t40 183t73 133.5t113.5 87.5t158 49.5t210 14.5q68 0 173 -14t176 -28l71 -14l-12 -366q-169 20 -314 20q-49 0 -80 -3.5t-58 -16t-41 -32.5t-24.5 -56t-14 -82.5t-3.5 -116.5q0 -71 3.5 -119t14 -85t25 -57.5t41.5 -33t58 -16.5t79 -4q64 0 144 3 t128 6l48 3l6 -360q-24 -6 -66.5 -15t-158.5 -24t-215 -15q-116 0 -200.5 14t-151.5 48.5t-110.5 87t-71.5 134.5t-40 186.5t-12 246.5z" />
<glyph unicode="D" horiz-adv-x="1339" d="M61 0v1372h580q354 0 510 -159t156 -506q0 -176 -34 -304t-109.5 -220t-200 -137.5t-301.5 -45.5h-601zM537 387h84q48 0 83 9t57.5 30t36 44.5t19.5 65t8 77.5t2 94q0 79 -6.5 125t-27.5 84t-62.5 53.5t-109.5 15.5h-84v-598z" />
<glyph unicode="E" horiz-adv-x="1124" d="M61 0v1372h1029v-379h-553v-116h430v-375h-430v-123h553v-379h-1029z" />
<glyph unicode="F" horiz-adv-x="1067" d="M61 0v1372h990v-387h-514v-221h391v-387h-391v-377h-476z" />
<glyph unicode="G" horiz-adv-x="1267" d="M35 688q0 202 35.5 337t115 219t198.5 119.5t296 35.5q105 0 235.5 -17.5t208.5 -35.5l78 -17v-358q-295 26 -481 26q-62 0 -100 -11t-60.5 -27t-32 -60.5t-12 -84.5t-2.5 -126q0 -69 4 -116t16 -88t32.5 -64t53.5 -36t80 -13l70 2v102h-61l-2 332h505v-766 q-370 -59 -532 -59q-156 0 -267.5 27.5t-185 80t-116 140.5t-59.5 196.5t-17 261.5z" />
<glyph unicode="H" horiz-adv-x="1341" d="M61 0v1372h476v-506h268v506h475v-1372h-475v479h-268v-479h-476z" />
<glyph unicode="I" horiz-adv-x="598" d="M61 0v1372h476v-1372h-476z" />
<glyph unicode="J" horiz-adv-x="657" d="M31 -27v392q26 0 38 1t25.5 11.5t18 25.5t9 52t5 81t0.5 123v713h475v-1010q0 -54 -6 -99.5t-19.5 -81t-30.5 -64t-43.5 -50t-53 -37t-65 -26t-73.5 -16.5t-85 -9.5t-92.5 -4.5t-102.5 -1z" />
<glyph unicode="K" horiz-adv-x="1247" d="M61 0v1372h476v-485h81l154 485h471l-219 -663l240 -709h-478l-165 457h-84v-457h-476z" />
<glyph unicode="L" horiz-adv-x="1001" d="M61 0v1372h476v-985h446v-387h-922z" />
<glyph unicode="M" horiz-adv-x="1751" d="M61 0v1372h707l106 -524l89 524h727v-1372h-476v707h-22l-119 -693h-397l-117 693h-22v-707h-476z" />
<glyph unicode="N" horiz-adv-x="1409" d="M61 0v1372h467l316 -520h28v520h476v-1372h-469l-312 559h-30v-559h-476z" />
<glyph unicode="O" horiz-adv-x="1372" d="M33 686q0 375 155 544t498 169t498 -169t155 -544t-155 -544t-498 -169q-340 0 -496.5 169.5t-156.5 543.5zM512 686q0 -87 6 -141.5t24 -100t53 -66t91 -20.5q46 0 78 15t50.5 39.5t29 68.5t13.5 89.5t3 115.5q0 71 -3 116t-13 89.5t-28.5 68.5t-50.5 39t-79 15 q-56 0 -91 -20.5t-53 -66t-24 -100t-6 -141.5z" />
<glyph unicode="P" horiz-adv-x="1253" d="M61 0v1372h539q129 0 222.5 -14t172.5 -49.5t127 -96t74.5 -153.5t26.5 -221q0 -129 -26 -223t-74.5 -156t-126.5 -99.5t-173 -53t-223 -15.5h-63v-291h-476zM537 666h43q88 0 125.5 38.5t37.5 131.5q0 96 -35.5 128.5t-127.5 32.5h-43v-331z" />
<glyph unicode="Q" horiz-adv-x="1366" d="M33 686q0 380 151 546.5t496 166.5q346 0 499.5 -167t153.5 -546q0 -424 -196 -588l163 -243l-360 -179l-201 299q-18 -2 -59 -2q-342 0 -494.5 167t-152.5 546zM500 686q0 -169 38 -248.5t142 -79.5q45 0 76.5 15t50.5 40t29.5 68.5t14 90t3.5 114.5q0 69 -3.5 115 t-13.5 90t-29 68.5t-51 39.5t-77 15q-104 0 -142 -79.5t-38 -248.5z" />
<glyph unicode="R" horiz-adv-x="1263" d="M61 0v1372h578q126 0 215.5 -13t164.5 -46.5t119.5 -90.5t68.5 -145t24 -211q0 -275 -152 -399l135 -467h-483l-78 354h-2h-114v-354h-476zM535 729h116q101 0 101 137q0 131 -113 131h-104v-268z" />
<glyph unicode="S" horiz-adv-x="1183" d="M33 918q0 116 24.5 200.5t68 138t112.5 85.5t149 44.5t188 12.5q97 0 233 -13.5t223 -26.5l87 -13l-12 -369q-289 31 -490 31q-62 0 -83 -7.5t-21 -29.5q0 -23 25 -35t120 -33q81 -18 134.5 -32t109 -32t89 -35.5t66.5 -43t50.5 -54.5t32 -68.5t19.5 -87t5 -108.5 q0 -254 -134.5 -362.5t-407.5 -108.5q-130 0 -274.5 18.5t-224.5 36.5l-79 19l20 363q314 -46 515 -46q60 0 83 11t23 37q0 21 -24 29t-134 26q-147 23 -240 55t-150.5 86.5t-80 127.5t-22.5 184z" />
<glyph unicode="T" horiz-adv-x="1062" d="M18 985v387h1024v-387h-266v-985h-475v985h-283z" />
<glyph unicode="U" horiz-adv-x="1312" d="M53 492v880h475v-899q0 -59 29.5 -83.5t99.5 -24.5t98.5 24.5t28.5 83.5v899h476v-872q0 -148 -37.5 -250.5t-115.5 -163t-187 -87t-263 -26.5q-155 0 -263.5 25t-187 84.5t-116 160.5t-37.5 249z" />
<glyph unicode="V" horiz-adv-x="1224" d="M-14 1372h503l107 -893h37l96 893h504l-268 -1372h-701z" />
<glyph unicode="W" horiz-adv-x="1873" d="M12 1372h473l66 -893h37l92 873h518l102 -873h37l41 893h477l-151 -1372h-694l-68 844l-20 2l-70 -846h-678z" />
<glyph unicode="X" horiz-adv-x="1193" d="M-16 0l292 657l-292 715h483l125 -377l160 377h467l-297 -653l278 -719h-487l-121 365l-125 -365h-483z" />
<glyph unicode="Y" horiz-adv-x="1208" d="M-27 1372h504l129 -403l133 403h502l-401 -942v-430h-475v430z" />
<glyph unicode="Z" horiz-adv-x="1165" d="M39 0v369l455 581v35h-455v387h1085v-387l-444 -563v-35h444v-387h-1085z" />
<glyph unicode="[" horiz-adv-x="698" d="M68 -252v1786h591v-371h-131v-1044h131v-371h-591z" />
<glyph unicode="\" d="M31 1384l444 91l621 -1536l-445 -91z" />
<glyph unicode="]" horiz-adv-x="694" d="M35 119h131v1044h-131v371h592v-1786h-592v371z" />
<glyph unicode="^" horiz-adv-x="1296" d="M94 641l295 731h520l295 -731h-430l-121 444l-129 -444h-430z" />
<glyph unicode="_" horiz-adv-x="1228" d="M82 -119h1065v-260h-1065v260z" />
<glyph unicode="`" horiz-adv-x="866" d="M160 1481h485l88 -340h-350z" />
<glyph unicode="a" horiz-adv-x="1140" d="M20 322q0 79 20.5 135t55 90t92.5 54.5t118.5 28.5t148.5 11l147 6v19q0 39 -88 39q-81 0 -190.5 -6.5t-178.5 -13.5l-69 -7l-10 311q30 8 81 20t182 32t230 20q120 0 205 -15t155.5 -53.5t106 -111.5t35.5 -181v-389q17 -13 49 -22l-6 -291q-160 -25 -211 -25 q-43 0 -79 7.5t-57 18t-36 21t-21 18.5l-6 7q-14 -8 -40 -20t-103 -32t-152 -20q-195 0 -287 83.5t-92 265.5zM479 334q0 -45 45 -45q19 0 38.5 7.5t29.5 15.5l10 7v76l-70 -4q-25 -1 -39 -16.5t-14 -40.5z" />
<glyph unicode="b" horiz-adv-x="1165" d="M55 20v1393h459v-385q135 33 213 33q406 0 406 -526q0 -160 -27 -264t-93 -172.5t-172.5 -97t-269.5 -28.5q-74 0 -203 12t-221 23zM514 350q27 -6 66 -6q52 0 71 48t19 132q0 96 -21 131t-69 35q-8 0 -24.5 -3.5t-29.5 -6.5l-12 -4v-326z" />
<glyph unicode="c" horiz-adv-x="952" d="M33 518q0 157 28 261t92 167t157.5 89t234.5 26q70 0 162.5 -13.5t150.5 -26.5l57 -13l-14 -363q-211 17 -289 17q-64 0 -90 -32t-26 -112q0 -82 25 -112.5t91 -30.5q35 0 108 3.5t129 7.5l56 3l15 -358q-22 -6 -59.5 -16t-137 -26t-178.5 -16q-101 0 -177.5 13 t-133.5 42t-95.5 71t-62 104.5t-33.5 138t-10 176.5z" />
<glyph unicode="d" horiz-adv-x="1167" d="M33 516q0 545 452 545q25 0 66.5 -3t70.5 -6l29 -3v364h459v-1413h-453l-4 45q-13 -8 -34.5 -20t-78.5 -32t-102 -20q-116 0 -196.5 37.5t-125.5 111.5t-64 169t-19 225zM496 516q0 -39 3 -66.5t12 -53.5t28 -39t49 -13l63 6v334q-45 6 -65 6q-29 0 -47.5 -13.5 t-27.5 -40t-12 -54t-3 -66.5z" />
<glyph unicode="e" horiz-adv-x="1130" d="M31 498q0 278 128.5 420.5t407.5 142.5q268 0 401.5 -116.5t133.5 -358.5l-21 -203h-592q2 -38 25.5 -55t75.5 -17q84 0 204 4.5t198 9.5l79 5l10 -297q-31 -7 -83 -17t-190.5 -26.5t-250.5 -16.5q-287 0 -406.5 124t-119.5 401zM487 633h156q0 59 -17.5 83.5t-58.5 24.5 q-44 0 -61 -24.5t-19 -83.5z" />
<glyph unicode="f" horiz-adv-x="733" d="M37 664v370h55v8q0 112 15.5 184t56 122t108 71t172.5 21q58 0 127 -7t109 -13l39 -7v-332q-96 0 -132 -5.5t-36 -20.5v-21h164v-370h-164v-664h-459v664h-55z" />
<glyph unicode="g" horiz-adv-x="1150" d="M25 -166q0 74 28.5 131t102.5 115q-34 23 -54 64.5t-20 88.5q0 23 30 60.5t60 63.5l29 26q-166 79 -166 309q0 202 117.5 285.5t390.5 83.5q39 0 92 -5.5t86 -11.5l33 -6l379 6v-268h-97q19 -55 19 -84q0 -92 -19.5 -156.5t-56 -106.5t-99 -65.5t-138 -32.5t-183.5 -9 q-41 0 -78 6q-8 -13 -8 -25t53.5 -16t214.5 -4q216 0 300.5 -71.5t84.5 -256.5q0 -195 -139.5 -300.5t-386.5 -105.5q-93 0 -161.5 4t-138 14.5t-116.5 30.5t-85 51t-56 77.5t-18 107.5zM399 -109q0 -26 162 -26q86 0 118 7t32 26q0 20 -26 25t-110 5q-40 0 -79 2t-58 4 l-20 3q-12 -7 -15.5 -16.5t-3.5 -29.5zM465 694q0 -40 19 -56.5t61 -16.5t61 16.5t19 56.5t-19 57t-61 17t-61 -17t-19 -57z" />
<glyph unicode="h" horiz-adv-x="1183" d="M57 0v1413h459v-387q143 35 219 35q223 0 312.5 -117t89.5 -409v-535h-459v487q0 94 -18.5 136.5t-59.5 42.5q-16 0 -37 -3t-34 -7l-13 -3v-653h-459z" />
<glyph unicode="i" horiz-adv-x="573" d="M55 1100v313h463v-313h-463zM57 0v1034h459v-1034h-459z" />
<glyph unicode="j" horiz-adv-x="573" d="M-125 -102q48 23 71.5 34.5t48.5 29t34 29t17 35t9.5 46.5t1.5 63v899h459v-884q0 -80 -4 -139t-16.5 -111t-28 -88t-46.5 -69.5t-63 -56t-87 -47.5t-109.5 -44.5t-138.5 -45.5zM55 1102v311h463v-311h-463z" />
<glyph unicode="k" horiz-adv-x="1132" d="M57 0v1413h459v-711h59l93 332h452l-147 -499l160 -535h-459l-96 303h-62v-303h-459z" />
<glyph unicode="l" horiz-adv-x="573" d="M57 0v1413h459v-1413h-459z" />
<glyph unicode="m" horiz-adv-x="1763" d="M57 0v1034h457v-53q15 9 40.5 22.5t92.5 35.5t119 22q142 0 227 -92q16 10 44.5 25.5t109.5 41t153 25.5q99 0 171.5 -22.5t119.5 -64t75 -109.5t39 -149.5t11 -193.5v-522h-459v467q0 199 -67 199q-18 0 -40 -3t-35 -7l-13 -3q14 -43 14 -178v-475h-459v467 q0 199 -65 199q-18 0 -37 -3t-29 -5l-10 -3v-655h-459z" />
<glyph unicode="n" horiz-adv-x="1183" d="M57 0v1034h457v-53q14 9 38.5 22.5t84 35.5t102.5 22q221 0 309.5 -120t88.5 -423v-518h-459v487q0 179 -74 179q-17 0 -39 -4t-35 -8l-14 -3v-651h-459z" />
<glyph unicode="o" horiz-adv-x="1155" d="M31 518q0 287 136.5 415t410.5 128t410 -128t136 -415q0 -291 -135.5 -418t-410.5 -127t-411 127t-136 418zM494 518q0 -99 18.5 -136.5t65.5 -37.5t65.5 37.5t18.5 136.5t-18 135.5t-66 36.5q-47 0 -65.5 -37t-18.5 -135z" />
<glyph unicode="p" horiz-adv-x="1167" d="M57 -399v1433h453l4 -53q11 9 31 22.5t76.5 35.5t107.5 22q217 0 311.5 -139.5t94.5 -413.5q0 -276 -103.5 -405.5t-347.5 -129.5q-29 0 -71 6.5t-69 13.5l-28 7v-399h-459zM516 350q27 -6 66 -6q52 0 71 48.5t19 131.5q0 97 -21 131.5t-69 34.5q-8 0 -24.5 -3.5 t-29.5 -6.5l-12 -4v-326z" />
<glyph unicode="q" horiz-adv-x="1167" d="M33 502q0 156 32.5 263t103 173.5t174 95.5t251.5 29q74 0 203 -8.5t221 -17.5l92 -9v-1425h-459v405q-135 -35 -213 -35q-405 0 -405 529zM496 512q0 -96 21 -131t69 -35q10 0 26.5 3t27.5 6l11 3v328q-26 6 -65 6q-52 0 -71 -48t-19 -132z" />
<glyph unicode="r" horiz-adv-x="753" d="M57 0v1034h459v-96q5 5 14.5 13.5t36.5 29.5t52 37t57 29.5t57 13.5v-426q-35 0 -89 -18.5t-91 -36.5l-37 -19v-561h-459z" />
<glyph unicode="s" horiz-adv-x="1001" d="M39 684q0 108 33.5 183.5t97.5 117t143 59t185 17.5q116 0 229.5 -13.5t168.5 -26.5l56 -13l-16 -322q-254 29 -373 29q-65 0 -65 -17q0 -4 4 -6.5t18.5 -5.5t40 -6t70.5 -8q188 -20 262 -94.5t74 -243.5q0 -192 -112.5 -276.5t-342.5 -84.5q-128 0 -245 14t-169 28 l-53 14l10 309q254 -35 383 -35q70 0 70 19q0 7 -26.5 12t-123.5 18q-173 23 -246 97.5t-73 234.5z" />
<glyph unicode="t" horiz-adv-x="759" d="M20 664v370h80v205h459v-205h166v-370h-166v-213q0 -51 13 -68.5t55 -17.5l92 2l6 -357q-176 -37 -270 -37q-96 0 -160 17t-109.5 59t-65.5 113.5t-20 181.5v320h-80z" />
<glyph unicode="u" horiz-adv-x="1181" d="M47 500v534h459v-504q0 -92 15.5 -126.5t53.5 -34.5q20 0 42.5 3t35.5 6l13 3v653h458v-1034h-454v49q-15 -9 -39.5 -21.5t-87 -33.5t-107.5 -21q-111 0 -186 32t-120 99.5t-64 163t-19 232.5z" />
<glyph unicode="v" horiz-adv-x="1120" d="M2 1034h487l74 -651h27l69 651h459l-174 -1034h-768z" />
<glyph unicode="w" horiz-adv-x="1622" d="M20 1034h506l21 -651h24l47 625h416l66 -625h24l23 651h452l-104 -1034h-653l-35 446l-39 -446h-625z" />
<glyph unicode="x" horiz-adv-x="1101" d="M-2 0l203 512l-203 522h491l82 -291l82 291h451l-182 -514l176 -520h-496l-82 260l-67 -260h-455z" />
<glyph unicode="y" horiz-adv-x="1118" d="M2 1034h487l74 -651h29l65 651h461l-244 -1433h-503l129 399h-324z" />
<glyph unicode="z" horiz-adv-x="1024" d="M49 0v375l303 260h-303v399h924v-354l-314 -281h320v-399h-930z" />
<glyph unicode="{" horiz-adv-x="739" d="M31 471v346q43 7 66.5 26t23.5 44q0 26 -13.5 149.5t-13.5 163.5q0 55 9.5 100t25.5 79.5t43 61t56 45.5t72 32.5t84 21.5t97.5 12t106 5.5t117.5 1.5v-369q-94 -8 -120 -30.5t-26 -98.5q0 -35 3 -86.5t3 -79.5q0 -106 -23.5 -153.5t-90.5 -84.5q65 -36 89.5 -84.5 t24.5 -140.5q0 -30 -3 -98t-3 -103q0 -78 27 -104t119 -33v-368q-87 0 -150.5 3t-131 11.5t-114.5 24t-90 42t-69 63t-41 89t-15 119.5q0 44 13.5 166.5t13.5 144.5q0 64 -90 82z" />
<glyph unicode="|" horiz-adv-x="585" d="M70 -451v1891h446v-1891h-446z" />
<glyph unicode="}" horiz-adv-x="735" d="M31 86q94 8 119.5 30.5t25.5 98.5q0 35 -3 86.5t-3 79.5q0 105 23.5 152t91.5 85q-66 37 -90.5 86t-24.5 140q0 30 3 97.5t3 102.5q0 78 -26.5 104.5t-118.5 33.5v368q87 0 150.5 -3t131 -11.5t114 -24t90 -42t69 -63t40.5 -89t15 -119.5q0 -44 -13.5 -166.5 t-13.5 -144.5q0 -63 91 -82v-346q-44 -7 -67.5 -26t-23.5 -44q0 -26 13.5 -149.5t13.5 -163.5q0 -70 -15.5 -124.5t-41 -92t-69.5 -64t-89.5 -42t-114.5 -23.5t-130.5 -10.5t-149.5 -2.5v369z" />
<glyph unicode="~" d="M125 639q4 4 12.5 11.5t35.5 26.5t55.5 33t71.5 26t85 12q53 0 196 -45.5t191 -45.5q36 0 88 20t86 40l35 20l16 -350l-11.5 -11.5t-32 -26t-50.5 -33t-65 -26t-78 -11.5q-56 0 -205.5 45t-185.5 45q-44 0 -100 -20.5t-90 -40.5l-34 -21z" />
<glyph unicode="&#xa1;" horiz-adv-x="593" d="M49 -338l29 873h438l29 -873h-496zM63 629v405h467v-405h-467z" />
<glyph unicode="&#xa2;" d="M84 520q0 236 100.5 332t323.5 102v256h123v-258q96 -3 194.5 -12.5t148.5 -17.5l50 -9l-12 -307q-209 8 -375 8q-55 0 -76.5 -22t-21.5 -72q0 -51 21 -72.5t77 -21.5q74 0 168.5 2t152.5 4l58 2l12 -303q-170 -35 -397 -43v-264h-123v262q-235 6 -329.5 105.5 t-94.5 328.5z" />
<glyph unicode="&#xa3;" d="M68 0v375h127v293h-127v123h127v83q0 103 10.5 179t35.5 132t59.5 92t88.5 57t117.5 29.5t150.5 8.5q71 0 161.5 -11t145.5 -21l54 -11l-12 -340q-146 8 -205 8q-119 0 -157 -32t-38 -117v-57h281v-123h-281v-293h191l241 31l37 -373l-248 -33h-759z" />
<glyph unicode="&#xa4;" d="M80 135l115 113q-97 123 -97 281.5t97 281.5l-115 115l88 88l115 -117q121 94 277.5 92.5t277.5 -98.5l120 123l89 -88l-123 -121q92 -121 92 -275t-92 -274l123 -121l-89 -88l-120 121q-121 -95 -277.5 -96.5t-277.5 90.5l-115 -115zM370 530q0 -80 54 -133 q52 -54 132 -54t132 54q56 53 56 133t-56 132q-52 56 -132 56t-132 -56q-54 -52 -54 -132z" />
<glyph unicode="&#xa5;" horiz-adv-x="1189" d="M33 1346h483l76 -424l84 424h483l-241 -611h163v-123h-213l-49 -127v-61h262v-123h-262v-301h-463v301h-258v123h258v61l-49 127h-209v123h164z" />
<glyph unicode="&#xa6;" horiz-adv-x="581" d="M68 348h446v-799h-446v799zM68 631v809h446v-809h-446z" />
<glyph unicode="&#xa7;" horiz-adv-x="1218" d="M45 461q0 130 88 235q-32 38 -47.5 78.5t-17.5 66t-2 79.5q0 106 25.5 186t69.5 130t110 81t139 43t165 12q99 0 238 -21t228 -42l89 -21l-12 -327q-348 40 -446 40q-89 0 -118.5 -11t-29.5 -40q0 -21 14 -33t57.5 -25t137.5 -32q104 -21 172 -40.5t123.5 -45.5t85 -60 t45 -80t15.5 -110q0 -187 -93 -276q41 -46 56.5 -89.5t15.5 -135.5q0 -422 -506 -422q-123 0 -265.5 26t-223.5 52l-82 26l35 328q16 -7 210 -35.5t265 -28.5q110 0 110 58q0 26 -45 41.5t-205 46.5q-235 46 -318 116t-83 230zM496 498q0 -23 15.5 -33t76.5 -29 q123 -37 135 -43q18 40 18 82q0 29 -31.5 44.5t-93.5 27.5q-72 16 -98 26q-22 -37 -22 -75z" />
<glyph unicode="&#xa8;" horiz-adv-x="856" d="M49 1145v315h336v-315h-336zM479 1145v315h336v-315h-336z" />
<glyph unicode="&#xa9;" horiz-adv-x="1222" d="M47 889q0 252 159.5 416.5t405.5 164.5q167 0 297.5 -79.5t198.5 -211t68 -290.5q0 -252 -156 -417t-412 -165q-158 0 -287 76.5t-201.5 210t-72.5 295.5zM174 889q0 -190 124.5 -324.5t309.5 -134.5q190 0 315.5 133t125.5 326q0 124 -57 229t-158.5 167.5t-223.5 62.5 q-123 0 -223.5 -62.5t-156.5 -167.5t-56 -229zM367 899q0 184 62.5 255t207.5 71q53 0 119 -17l45 -14l-15 -176l-45 6q-81 6 -92 6q-41 0 -56 -28t-15 -103q0 -82 16.5 -118t54.5 -36q25 0 92 5l45 6l15 -168l-43 -19q-56 -18 -129 -18q-95 0 -149.5 28.5t-83.5 105 t-29 214.5z" />
<glyph unicode="&#xaa;" horiz-adv-x="718" d="M33 965q0 52 19 87t56.5 52.5t79 24t101.5 8.5l96 4v10q0 20 -49 20q-52 0 -120 -3.5t-110 -7.5l-43 -3l-4 168q146 39 285 39q163 0 235 -45t72 -150v-211q7 -5 33 -10l-4 -160q-90 -12 -119 -12q-36 0 -70 10t-51 20l-16 9q-74 -39 -166 -39q-107 0 -166 46.5 t-59 142.5zM301 971q0 -13 8.5 -18t34.5 -5q11 0 21.5 4t14.5 8l5 5v41l-37 -2q-47 -3 -47 -33z" />
<glyph unicode="&#xab;" horiz-adv-x="1277" d="M29 492v43l329 481l328 -152l-233 -346l233 -346l-332 -152zM582 492v43l329 481l328 -152l-233 -346l233 -346l-332 -152z" />
<glyph unicode="&#xac;" d="M2 803v309h1098v-639h-309v330h-789z" />
<glyph unicode="&#xad;" horiz-adv-x="729" d="M59 330v370h611v-370h-611z" />
<glyph unicode="&#xae;" horiz-adv-x="1222" d="M47 889q0 252 159.5 416.5t403.5 164.5q167 0 298 -79.5t199.5 -211t68.5 -290.5q0 -165 -69 -297t-199 -208.5t-298 -76.5q-159 0 -288.5 76.5t-202 210t-72.5 295.5zM174 889q0 -123 57.5 -228.5t158 -168t220.5 -62.5q124 0 225.5 61.5t157.5 166.5t56 231 q0 124 -57 229t-158.5 167.5t-223.5 62.5q-183 0 -309.5 -135t-126.5 -324zM365 565v645h278q107 0 170.5 -52t63.5 -163q0 -79 -17 -123t-61 -81l84 -226h-205l-57 191h-60v-191h-196zM559 901h57q34 0 52 21.5t18 58.5q0 38 -18 60t-54 22h-55v-162z" />
<glyph unicode="&#xaf;" horiz-adv-x="907" d="M123 1153v295h670v-295h-670z" />
<glyph unicode="&#xb0;" d="M256 1106q0 136 85 221.5t222 85.5t222 -85.5t85 -221.5t-85 -220.5t-222 -84.5t-222 84.5t-85 220.5zM492 1106q0 -33 19.5 -53.5t51.5 -20.5q34 0 55 21t21 53q0 34 -21 55t-55 21q-32 0 -51.5 -21t-19.5 -55z" />
<glyph unicode="&#xb1;" d="M90 0v348h946v-348h-946zM90 514v348h289v172h369v-172h288v-348h-288v-145h-369v145h-289z" />
<glyph unicode="&#xb2;" horiz-adv-x="716" d="M88 559v229l113 103q25 24 61 57t50.5 47.5t32 34.5t23 36t5.5 34q0 24 -20.5 35.5t-73.5 11.5q-35 0 -78.5 -2.5t-70.5 -4.5l-26 -3l-12 211q135 32 250 32q152 0 220.5 -60t68.5 -183q0 -23 -1.5 -41.5t-7.5 -37.5t-10 -31.5t-17.5 -31t-19.5 -27.5t-27.5 -31 t-30.5 -31t-38.5 -36.5t-42.5 -40.5l-41 -30h221v-240h-528z" />
<glyph unicode="&#xb3;" horiz-adv-x="716" d="M68 592l6 207q137 -13 211 -13q29 0 44 2t26.5 10.5t11.5 26.5q0 19 -14 27.5t-50 11.5h-168v209h158q63 0 63 37t-82 37q-36 0 -84.5 -2.5t-79.5 -4.5l-30 -3l-6 202q153 33 235 33q176 0 255 -49.5t79 -175.5q0 -64 -16.5 -98.5t-57.5 -63.5q45 -35 64.5 -69t19.5 -95 q0 -148 -76.5 -205t-238.5 -57q-49 0 -116.5 8.5t-110.5 16.5z" />
<glyph unicode="&#xb4;" horiz-adv-x="1705" d="M360 1141l89 340h485l-223 -340h-351z" />
<glyph unicode="&#xb5;" d="M43 -508v1542h459v-504q0 -94 11 -127.5t42 -33.5q20 0 42.5 3t34.5 6l13 3v653h459v-1034h-455l-2 45q-59 -39 -145 -45v-508h-459z" />
<glyph unicode="&#xb6;" horiz-adv-x="1183" d="M33 930q0 136 64.5 252t177 184t245.5 68h621v-387h-144v-1047h-467v430h-14q-134 0 -245 67t-174.5 182t-63.5 251z" />
<glyph unicode="&#xb7;" horiz-adv-x="542" d="M61 305v410h420v-410h-420z" />
<glyph unicode="&#xb8;" horiz-adv-x="1705" d="M737 -451l8 160q64 -2 99 -2q44 0 61 10.5t17 34.5q0 25 -16 33t-62 8h-19v230h150v-91q82 -1 131.5 -8t85.5 -27t50.5 -55.5t14.5 -93.5q0 -115 -64.5 -168t-195.5 -53q-61 0 -126 5.5t-99 11.5z" />
<glyph unicode="&#xb9;" horiz-adv-x="716" d="M43 1204l289 168h276v-813h-321v453l-170 -70z" />
<glyph unicode="&#xba;" horiz-adv-x="722" d="M31 1071q0 157 77.5 225t253.5 68t253 -68t77 -225q0 -160 -77 -227.5t-253 -67.5t-253.5 67.5t-77.5 227.5zM299 1071q0 -50 15 -70t48 -20t47.5 20t14.5 70t-14.5 69t-47.5 19q-34 0 -48.5 -19.5t-14.5 -68.5z" />
<glyph unicode="&#xbb;" horiz-adv-x="1277" d="M39 172l233 346l-233 346l332 152l325 -471v-43l-329 -482zM592 172l233 346l-233 346l332 152l325 -471v-43l-329 -482z" />
<glyph unicode="&#xbc;" horiz-adv-x="1982" d="M43 1204l289 168h276v-813h-321v453l-170 -70zM528 10l621 1536l301 -131l-621 -1536zM1223 98v201l110 514h324l-160 -483h59v112l302 37v-149h30v-232h-30v-98h-302v98h-333z" />
<glyph unicode="&#xbd;" horiz-adv-x="1964" d="M43 1204l289 168h276v-813h-321v453l-170 -70zM528 10l621 1536l301 -131l-621 -1536zM1321 0v229l113 103q25 24 61 57t50.5 47.5t32 34.5t23 36t5.5 34q0 24 -21 35.5t-74 11.5q-35 0 -78.5 -2.5t-69.5 -5.5l-26 -2l-12 210q135 33 250 33q152 0 220.5 -60t68.5 -183 q0 -23 -1.5 -41.5t-7.5 -37.5t-10 -31.5t-17.5 -31t-19.5 -27.5t-27.5 -31t-30.5 -31t-38.5 -36.5t-42.5 -40.5l-41 -30h221v-240h-528z" />
<glyph unicode="&#xbe;" horiz-adv-x="3379" d="M88 592l6 207q137 -13 211 -13q29 0 44 2t26.5 10.5t11.5 26.5q0 19 -13.5 27.5t-49.5 11.5h-168v209h157q64 0 64 37t-82 37q-36 0 -85 -2.5t-80 -4.5l-30 -3l-6 202q154 33 236 33q176 0 255 -49.5t79 -175.5q0 -64 -16.5 -98.5t-57.5 -63.5q45 -35 64.5 -69t19.5 -95 q0 -148 -77 -205t-239 -57q-49 0 -116.5 8.5t-110.5 16.5zM528 10l621 1536l301 -131l-621 -1536zM1223 98v201l110 514h324l-160 -483h59v112l302 37v-149h30v-232h-30v-98h-302v98h-333z" />
<glyph unicode="&#xbf;" horiz-adv-x="964" d="M33 18q0 105 19 171t54.5 106t106.5 90q90 63 125 100.5t37 65.5l2 39h358q5 -7 13 -20.5t21 -55.5t13 -86q0 -74 -34 -122.5t-144 -129.5q-72 -54 -90 -76.5t-18 -64.5q0 -38 29.5 -55t99.5 -17q61 0 134 7.5t116 14.5l43 7l14 -322q-26 -9 -70 -21.5t-160.5 -33.5 t-209.5 -21q-244 0 -351.5 96.5t-107.5 327.5zM319 666v368h467v-368h-467z" />
<glyph unicode="&#xc0;" horiz-adv-x="1308" d="M-10 0l303 1372h719l309 -1372h-479l-39 158h-314l-32 -158h-467zM301 1739h496l69 -279h-352zM551 520h203l-74 479h-51z" />
<glyph unicode="&#xc1;" horiz-adv-x="1308" d="M-10 0l303 1372h719l309 -1372h-479l-39 158h-314l-32 -158h-467zM377 1460l88 279h496l-224 -279h-360zM551 520h203l-74 479h-51z" />
<glyph unicode="&#xc2;" horiz-adv-x="1308" d="M-10 0l303 1372h719l309 -1372h-479l-39 158h-314l-32 -158h-467zM283 1460l206 279h312l229 -279h-346l-31 127l-24 -127h-346zM551 520h203l-74 479h-51z" />
<glyph unicode="&#xc3;" horiz-adv-x="1308" d="M-10 0l303 1372h719l309 -1372h-479l-39 158h-314l-32 -158h-467zM281 1694q4 5 12.5 13t33 29t49.5 37t59 29t65 13q71 0 176 -33t125 -33q24 0 66 11.5t72 23.5l30 12l59 -219q-4 -5 -12 -13t-33 -28.5t-49.5 -36t-59 -28.5t-65.5 -13q-58 0 -167 35t-138 35 q-25 0 -66 -13t-70 -25l-28 -13zM551 520h203l-74 479h-51z" />
<glyph unicode="&#xc4;" horiz-adv-x="1308" d="M-10 0l303 1372h719l309 -1372h-479l-39 158h-314l-32 -158h-467zM279 1460v295h329v-295h-329zM551 520h203l-74 479h-51zM702 1460v295h330v-295h-330z" />
<glyph unicode="&#xc5;" horiz-adv-x="1308" d="M-10 0l303 1372h113q-31 42 -31 107q0 101 75.5 148.5t204.5 47.5q128 0 204.5 -47.5t76.5 -148.5q0 -59 -33 -107h109l309 -1372h-479l-39 158h-314l-32 -158h-467zM551 520h203l-74 479h-51zM594 1479q0 -22 18 -33.5t45 -11.5t44.5 11.5t17.5 33.5q0 21 -18 32t-44 11 q-27 0 -45 -11t-18 -32z" />
<glyph unicode="&#xc6;" horiz-adv-x="1806" d="M-10 0l303 1372h1479v-379h-560v-123h437v-362h-437v-129h560v-379h-1022v158h-261l-32 -158h-467zM553 524h197v469h-121z" />
<glyph unicode="&#xc7;" horiz-adv-x="1091" d="M37 690q0 139 11.5 241t40 183t73 133.5t113.5 87.5t158 49.5t210 14.5q68 0 173 -14t176 -28l71 -14l-12 -366q-169 20 -314 20q-49 0 -80 -3.5t-58 -16t-41 -32.5t-24.5 -56t-14 -82.5t-3.5 -116.5q0 -71 3.5 -119t14 -85t25 -57.5t41.5 -33t58 -16.5t79 -4q64 0 144 3 t128 6l48 3l6 -360q-184 -46 -387 -52v-20q82 -1 131.5 -8t85.5 -27t50.5 -55.5t14.5 -93.5q0 -115 -64.5 -168.5t-195.5 -53.5q-61 0 -126 6t-100 11l-34 6l8 160q64 -2 99 -2q44 0 61 10.5t17 34.5q0 25 -16 33t-62 8h-19v161q-143 9 -235 48t-150 124.5t-81 214 t-23 326.5z" />
<glyph unicode="&#xc8;" horiz-adv-x="1124" d="M61 0v1372h1029v-379h-553v-116h430v-375h-430v-123h553v-379h-1029zM231 1739h496l70 -279h-353z" />
<glyph unicode="&#xc9;" horiz-adv-x="1124" d="M61 0v1372h1029v-379h-553v-116h430v-375h-430v-123h553v-379h-1029zM297 1460l88 279h496l-224 -279h-360z" />
<glyph unicode="&#xca;" horiz-adv-x="1124" d="M61 0v1372h1029v-379h-553v-116h430v-375h-430v-123h553v-379h-1029zM193 1460l206 279h312l229 -279h-346l-31 127l-24 -127h-346z" />
<glyph unicode="&#xcb;" horiz-adv-x="1124" d="M61 0v1372h1029v-379h-553v-116h430v-375h-430v-123h553v-379h-1029zM199 1460v295h329v-295h-329zM623 1460v295h329v-295h-329z" />
<glyph unicode="&#xcc;" horiz-adv-x="585" d="M-61 1739h495l70 -279h-352zM61 0v1372h463v-1372h-463z" />
<glyph unicode="&#xcd;" horiz-adv-x="598" d="M61 0v1372h476v-1372h-476zM82 1460l88 279h496l-224 -279h-360z" />
<glyph unicode="&#xce;" horiz-adv-x="585" d="M-80 1460l207 279h311l230 -279h-346l-31 127l-25 -127h-346zM61 0v1372h463v-1372h-463z" />
<glyph unicode="&#xcf;" horiz-adv-x="598" d="M-78 1460v295h330v-295h-330zM61 0v1372h476v-1372h-476zM346 1460v295h330v-295h-330z" />
<glyph unicode="&#xd0;" horiz-adv-x="1353" d="M-2 553v281h78v538h579q354 0 510 -159t156 -506q0 -176 -34 -304t-109.5 -220t-200 -137.5t-301.5 -45.5h-600v553h-78zM551 387h84q57 0 96 15t61 38.5t33 68.5t14 86.5t3 111.5q0 79 -6.5 125t-28 84t-63 53.5t-109.5 15.5h-84v-151h113v-281h-113v-166z" />
<glyph unicode="&#xd1;" horiz-adv-x="1409" d="M61 0v1372h467l316 -520h28v520h476v-1372h-469l-312 559h-30v-559h-476zM330 1694q4 5 12.5 13t33 29t49.5 37t59 29t65 13q71 0 176 -33t125 -33q24 0 66 11.5t72 23.5l30 12l59 -219q-4 -5 -12 -13t-33 -28.5t-49.5 -36t-59 -28.5t-65.5 -13q-58 0 -167 35t-138 35 q-25 0 -66 -13t-69 -25l-29 -13z" />
<glyph unicode="&#xd2;" horiz-adv-x="1372" d="M33 686q0 375 155 544t498 169t498 -169t155 -544t-155 -544t-498 -169q-340 0 -496.5 169.5t-156.5 543.5zM322 1739h495l70 -279h-352zM512 686q0 -87 6 -141.5t24 -100t53 -66t91 -20.5q46 0 78 15t50.5 39.5t29 68.5t13.5 89.5t3 115.5q0 71 -3 116t-13 89.5 t-28.5 68.5t-50.5 39t-79 15q-56 0 -91 -20.5t-53 -66t-24 -100t-6 -141.5z" />
<glyph unicode="&#xd3;" horiz-adv-x="1372" d="M33 686q0 375 155 544t498 169t498 -169t155 -544t-155 -544t-498 -169q-340 0 -496.5 169.5t-156.5 543.5zM416 1460l88 279h495l-223 -279h-360zM512 686q0 -87 6 -141.5t24 -100t53 -66t91 -20.5q46 0 78 15t50.5 39.5t29 68.5t13.5 89.5t3 115.5q0 71 -3 116 t-13 89.5t-28.5 68.5t-50.5 39t-79 15q-56 0 -91 -20.5t-53 -66t-24 -100t-6 -141.5z" />
<glyph unicode="&#xd4;" horiz-adv-x="1372" d="M33 686q0 375 155 544t498 169t498 -169t155 -544t-155 -544t-498 -169q-340 0 -496.5 169.5t-156.5 543.5zM313 1460l207 279h311l230 -279h-346l-31 127l-25 -127h-346zM512 686q0 -87 6 -141.5t24 -100t53 -66t91 -20.5q46 0 78 15t50.5 39.5t29 68.5t13.5 89.5 t3 115.5q0 71 -3 116t-13 89.5t-28.5 68.5t-50.5 39t-79 15q-56 0 -91 -20.5t-53 -66t-24 -100t-6 -141.5z" />
<glyph unicode="&#xd5;" horiz-adv-x="1372" d="M33 686q0 375 155 544t498 169t498 -169t155 -544t-155 -544t-498 -169q-340 0 -496.5 169.5t-156.5 543.5zM313 1694q4 5 12.5 13t33 29t49.5 37t59 29t65 13q71 0 176.5 -33t125.5 -33q24 0 65.5 11.5t71.5 23.5l30 12l60 -219q-4 -5 -12 -13t-33 -28.5t-49.5 -36 t-59 -28.5t-65.5 -13q-58 0 -167 35t-138 35q-25 0 -66 -13t-69 -25l-29 -13zM512 686q0 -87 6 -141.5t24 -100t53 -66t91 -20.5q46 0 78 15t50.5 39.5t29 68.5t13.5 89.5t3 115.5q0 71 -3 116t-13 89.5t-28.5 68.5t-50.5 39t-79 15q-56 0 -91 -20.5t-53 -66t-24 -100 t-6 -141.5z" />
<glyph unicode="&#xd6;" horiz-adv-x="1372" d="M33 686q0 375 155 544t498 169t498 -169t155 -544t-155 -544t-498 -169q-340 0 -496.5 169.5t-156.5 543.5zM309 1460v295h330v-295h-330zM512 686q0 -87 6 -141.5t24 -100t53 -66t91 -20.5q46 0 78 15t50.5 39.5t29 68.5t13.5 89.5t3 115.5q0 71 -3 116t-13 89.5 t-28.5 68.5t-50.5 39t-79 15q-56 0 -91 -20.5t-53 -66t-24 -100t-6 -141.5zM733 1460v295h330v-295h-330z" />
<glyph unicode="&#xd7;" d="M51 256l258 262l-258 262l252 250l258 -260l260 260l254 -252l-260 -260l260 -260l-252 -252l-262 258l-258 -258z" />
<glyph unicode="&#xd8;" horiz-adv-x="1372" d="M33 686q0 375 155 544t498 169q10 0 29 -1t28 -1l37 86l445 -90l-60 -146q174 -168 174 -561q0 -375 -155 -544t-498 -169h-39l-33 -84l-444 91l53 129q-190 169 -190 577zM512 686q0 -87 6 -141.5t24 -100t53 -66t91 -20.5q46 0 78 15t50.5 39.5t29 68.5t13.5 89.5 t3 115.5q0 71 -3 116t-13 89.5t-28.5 68.5t-50.5 39t-79 15q-56 0 -91 -20.5t-53 -66t-24 -100t-6 -141.5z" />
<glyph unicode="&#xd9;" horiz-adv-x="1298" d="M53 492v880h463v-899q0 -59 30 -83.5t103 -24.5t103 24.5t30 83.5v899h463v-872q0 -148 -36.5 -250t-113.5 -163t-185 -87.5t-261 -26.5q-154 0 -261.5 25.5t-184.5 85t-113.5 160t-36.5 248.5zM348 1739h496l69 -279h-352z" />
<glyph unicode="&#xda;" horiz-adv-x="1312" d="M53 492v880h475v-899q0 -59 29.5 -83.5t99.5 -24.5t98.5 24.5t28.5 83.5v899h476v-872q0 -148 -37.5 -250.5t-115.5 -163t-187 -87t-263 -26.5q-155 0 -263.5 25t-187 84.5t-116 160.5t-37.5 249zM381 1460l88 279h496l-224 -279h-360z" />
<glyph unicode="&#xdb;" horiz-adv-x="1298" d="M53 492v880h463v-899q0 -59 30 -83.5t103 -24.5t103 24.5t30 83.5v899h463v-872q0 -148 -36.5 -250t-113.5 -163t-185 -87.5t-261 -26.5q-154 0 -261.5 25.5t-184.5 85t-113.5 160t-36.5 248.5zM276 1460l207 279h312l229 -279h-346l-31 127l-24 -127h-347z" />
<glyph unicode="&#xdc;" horiz-adv-x="1312" d="M53 492v880h475v-899q0 -59 29.5 -83.5t99.5 -24.5t98.5 24.5t28.5 83.5v899h476v-872q0 -148 -37.5 -250.5t-115.5 -163t-187 -87t-263 -26.5q-155 0 -263.5 25t-187 84.5t-116 160.5t-37.5 249zM279 1460v295h329v-295h-329zM702 1460v295h330v-295h-330z" />
<glyph unicode="&#xdd;" horiz-adv-x="1208" d="M-27 1372h504l129 -403l133 403h502l-401 -942v-430h-475v430zM395 1460l88 279h496l-223 -279h-361z" />
<glyph unicode="&#xde;" horiz-adv-x="1251" d="M61 0v1372h463v-143h70q105 0 186 -10t152.5 -33t121 -63t86 -99t53.5 -141t17 -189t-17 -190t-52.5 -143t-85.5 -101.5t-121 -66.5t-153 -35.5t-187 -10.5h-70v-147h-463zM524 522h49q93 0 131.5 38.5t38.5 131.5q0 96 -37 129t-133 33h-49v-332z" />
<glyph unicode="&#xdf;" horiz-adv-x="1427" d="M57 0v928q0 151 32.5 248t111 156.5t196 83.5t299.5 24q306 0 435 -81t129 -257q0 -70 -10 -106.5t-35 -61t-82 -55.5q-77 -41 -99 -59t-22 -38q0 -30 29 -48t133 -54q147 -53 195 -116.5t48 -205.5q0 -207 -87 -296t-306 -89q-106 0 -212.5 12.5t-159.5 24.5l-54 13 l14 301q160 -21 285 -21q78 0 78 39q0 15 -36 32.5t-161 65.5q-108 41 -148 92.5t-40 131.5q0 74 25.5 119t91.5 98q59 47 74.5 68t15.5 42q0 64 -103 64q-90 0 -134 -25.5t-44 -87.5v-942h-459z" />
<glyph unicode="&#xe0;" horiz-adv-x="1140" d="M20 322q0 79 20.5 135t55 90t92.5 54.5t118.5 28.5t148.5 11l147 6v19q0 39 -88 39q-81 0 -190.5 -6.5t-178.5 -13.5l-69 -7l-10 311q30 8 81 20t182 32t230 20q120 0 205 -15t155.5 -53.5t106 -111.5t35.5 -181v-389q17 -13 49 -22l-6 -291q-160 -25 -211 -25 q-43 0 -79 7.5t-57 18t-36 21t-21 18.5l-6 7q-14 -8 -40 -20t-103 -32t-152 -20q-195 0 -287 83.5t-92 265.5zM193 1481h485l88 -340h-350zM479 334q0 -45 45 -45q19 0 38.5 7.5t29.5 15.5l10 7v76l-70 -4q-25 -1 -39 -16.5t-14 -40.5z" />
<glyph unicode="&#xe1;" horiz-adv-x="1140" d="M20 322q0 79 20.5 135t55 90t92.5 54.5t118.5 28.5t148.5 11l147 6v19q0 39 -88 39q-81 0 -190.5 -6.5t-178.5 -13.5l-69 -7l-10 311q30 8 81 20t182 32t230 20q120 0 205 -15t155.5 -53.5t106 -111.5t35.5 -181v-389q17 -13 49 -22l-6 -291q-160 -25 -211 -25 q-43 0 -79 7.5t-57 18t-36 21t-21 18.5l-6 7q-14 -8 -40 -20t-103 -32t-152 -20q-195 0 -287 83.5t-92 265.5zM365 1141l88 340h485l-223 -340h-350zM479 334q0 -45 45 -45q19 0 38.5 7.5t29.5 15.5l10 7v76l-70 -4q-25 -1 -39 -16.5t-14 -40.5z" />
<glyph unicode="&#xe2;" horiz-adv-x="1140" d="M20 322q0 79 20.5 135t55 90t92.5 54.5t118.5 28.5t148.5 11l147 6v19q0 39 -88 39q-81 0 -190.5 -6.5t-178.5 -13.5l-69 -7l-10 311q30 8 81 20t182 32t230 20q120 0 205 -15t155.5 -53.5t106 -111.5t35.5 -181v-389q17 -13 49 -22l-6 -291q-160 -25 -211 -25 q-43 0 -79 7.5t-57 18t-36 21t-21 18.5l-6 7q-14 -8 -40 -20t-103 -32t-152 -20q-195 0 -287 83.5t-92 265.5zM207 1141l186 340h324l209 -340h-332l-31 147l-24 -147h-332zM479 334q0 -45 45 -45q19 0 38.5 7.5t29.5 15.5l10 7v76l-70 -4q-25 -1 -39 -16.5t-14 -40.5z" />
<glyph unicode="&#xe3;" horiz-adv-x="1140" d="M20 322q0 79 20.5 135t55 90t92.5 54.5t118.5 28.5t148.5 11l147 6v19q0 39 -88 39q-81 0 -190.5 -6.5t-178.5 -13.5l-69 -7l-10 311q30 8 81 20t182 32t230 20q120 0 205 -15t155.5 -53.5t106 -111.5t35.5 -181v-389q17 -13 49 -22l-6 -291q-160 -25 -211 -25 q-43 0 -79 7.5t-57 18t-36 21t-21 18.5l-6 7q-14 -8 -40 -20t-103 -32t-152 -20q-195 0 -287 83.5t-92 265.5zM193 1366q4 5 12.5 14t33 31.5t49.5 40t59 31.5t65 14q54 0 117 -22t112.5 -44t71.5 -22q24 0 66 20t72 40l30 20l59 -240q-4 -5 -12 -14t-33 -31t-49.5 -39 t-59 -31t-65.5 -14q-58 0 -167 45t-138 45q-25 0 -66 -20.5t-70 -41.5l-28 -20zM479 334q0 -45 45 -45q19 0 38.5 7.5t29.5 15.5l10 7v76l-70 -4q-25 -1 -39 -16.5t-14 -40.5z" />
<glyph unicode="&#xe4;" horiz-adv-x="1140" d="M20 322q0 79 20.5 135t55 90t92.5 54.5t118.5 28.5t148.5 11l147 6v19q0 39 -88 39q-81 0 -190.5 -6.5t-178.5 -13.5l-69 -7l-10 311q30 8 81 20t182 32t230 20q120 0 205 -15t155.5 -53.5t106 -111.5t35.5 -181v-389q17 -13 49 -22l-6 -291q-160 -25 -211 -25 q-43 0 -79 7.5t-57 18t-36 21t-21 18.5l-6 7q-14 -8 -40 -20t-103 -32t-152 -20q-195 0 -287 83.5t-92 265.5zM182 1145v315h336v-315h-336zM479 334q0 -45 45 -45q19 0 38.5 7.5t29.5 15.5l10 7v76l-70 -4q-25 -1 -39 -16.5t-14 -40.5zM612 1145v315h336v-315h-336z" />
<glyph unicode="&#xe5;" horiz-adv-x="1140" d="M20 322q0 79 20.5 135t55 90t92.5 54.5t118.5 28.5t148.5 11l147 6v19q0 39 -88 39q-81 0 -190.5 -6.5t-178.5 -13.5l-69 -7l-10 311q30 8 81 20t182 32t230 20q120 0 205 -15t155.5 -53.5t106 -111.5t35.5 -181v-389q17 -13 49 -22l-6 -291q-160 -25 -211 -25 q-43 0 -79 7.5t-57 18t-36 21t-21 18.5l-6 7q-14 -8 -40 -20t-103 -32t-152 -20q-195 0 -287 83.5t-92 265.5zM291 1315q0 102 73.5 152.5t200.5 50.5q126 0 200.5 -50.5t74.5 -152.5q0 -97 -73 -150t-202 -53q-127 0 -200.5 50.5t-73.5 152.5zM479 334q0 -45 45 -45 q19 0 38.5 7.5t29.5 15.5l10 7v76l-70 -4q-25 -1 -39 -16.5t-14 -40.5zM504 1315q0 -22 18 -33.5t45 -11.5t44.5 11.5t17.5 33.5q0 21 -18 32t-44 11q-27 0 -45 -11t-18 -32z" />
<glyph unicode="&#xe6;" horiz-adv-x="1652" d="M20 322q0 59 9.5 104t25.5 77.5t45.5 55.5t60.5 37.5t80.5 23.5t95 13.5t114.5 7.5l139 6v19q0 39 -88 39q-81 0 -187.5 -6.5t-172.5 -13.5l-66 -7l-10 311q29 8 78 20t176.5 32t226.5 20q208 0 289 -53q95 53 254 53q268 0 401 -116.5t133 -358.5l-20 -203h-592 q2 -38 25 -55t75 -17q84 0 204 4.5t198 9.5l79 5l11 -297q-31 -7 -83 -17t-191 -26.5t-251 -16.5q-201 0 -295 70q-32 -10 -81 -23.5t-145 -30t-171 -16.5q-174 0 -270.5 86t-96.5 263zM467 334q0 -45 45 -45q19 0 38.5 7.5t29.5 15.5l10 7v76l-70 -4q-25 -1 -39 -16.5 t-14 -40.5zM1010 633h159q0 60 -18.5 84t-60.5 24q-44 0 -61 -24.5t-19 -83.5z" />
<glyph unicode="&#xe7;" horiz-adv-x="954" d="M35 518q0 157 28 261t92 167t157.5 89t234.5 26q70 0 163 -13.5t150 -26.5l58 -13l-15 -363q-211 17 -289 17q-64 0 -90 -32t-26 -112q0 -82 25 -112.5t91 -30.5q35 0 108 3.5t129 7.5l56 3l15 -358q-177 -52 -347 -58v-41q82 -1 131.5 -8t86 -27t51 -55.5t14.5 -93.5 q0 -115 -64.5 -168t-195.5 -53q-61 0 -126 5.5t-100 11.5l-34 5l8 160q63 -2 98 -2q44 0 61 10.5t17 34.5q0 25 -16 33t-62 8h-18v187q-222 23 -306.5 146t-84.5 392z" />
<glyph unicode="&#xe8;" horiz-adv-x="1130" d="M31 498q0 278 128.5 420.5t407.5 142.5q268 0 401.5 -116.5t133.5 -358.5l-21 -203h-592q2 -38 25.5 -55t75.5 -17q84 0 204 4.5t198 9.5l79 5l10 -297q-31 -7 -83 -17t-190.5 -26.5t-250.5 -16.5q-287 0 -406.5 124t-119.5 401zM215 1481h485l88 -340h-350zM487 633h156 q0 59 -17.5 83.5t-58.5 24.5q-44 0 -61 -24.5t-19 -83.5z" />
<glyph unicode="&#xe9;" horiz-adv-x="1130" d="M31 498q0 278 128.5 420.5t407.5 142.5q268 0 401.5 -116.5t133.5 -358.5l-21 -203h-592q2 -38 25.5 -55t75.5 -17q84 0 204 4.5t198 9.5l79 5l10 -297q-31 -7 -83 -17t-190.5 -26.5t-250.5 -16.5q-287 0 -406.5 124t-119.5 401zM342 1141l88 340h485l-223 -340h-350z M487 633h156q0 59 -17.5 83.5t-58.5 24.5q-44 0 -61 -24.5t-19 -83.5z" />
<glyph unicode="&#xea;" horiz-adv-x="1130" d="M31 498q0 278 128.5 420.5t407.5 142.5q268 0 401.5 -116.5t133.5 -358.5l-21 -203h-592q2 -38 25.5 -55t75.5 -17q84 0 204 4.5t198 9.5l79 5l10 -297q-31 -7 -83 -17t-190.5 -26.5t-250.5 -16.5q-287 0 -406.5 124t-119.5 401zM207 1141l186 340h324l209 -340h-332 l-31 147l-24 -147h-332zM487 633h156q0 59 -17.5 83.5t-58.5 24.5q-44 0 -61 -24.5t-19 -83.5z" />
<glyph unicode="&#xeb;" horiz-adv-x="1130" d="M31 498q0 278 128.5 420.5t407.5 142.5q268 0 401.5 -116.5t133.5 -358.5l-21 -203h-592q2 -38 25.5 -55t75.5 -17q84 0 204 4.5t198 9.5l79 5l10 -297q-31 -7 -83 -17t-190.5 -26.5t-250.5 -16.5q-287 0 -406.5 124t-119.5 401zM182 1145v315h336v-315h-336zM487 633 h156q0 59 -17.5 83.5t-58.5 24.5q-44 0 -61 -24.5t-19 -83.5zM612 1145v315h336v-315h-336z" />
<glyph unicode="&#xec;" horiz-adv-x="573" d="M-78 1481h486l88 -340h-351zM57 0v1034h459v-1034h-459z" />
<glyph unicode="&#xed;" horiz-adv-x="573" d="M57 0v1034h459v-1034h-459zM78 1141l88 340h485l-223 -340h-350z" />
<glyph unicode="&#xee;" horiz-adv-x="573" d="M-72 1141l187 340h323l209 -340h-332l-30 147l-25 -147h-332zM57 0v1034h459v-1034h-459z" />
<glyph unicode="&#xef;" horiz-adv-x="573" d="M-98 1145v315h336v-315h-336zM57 0v1034h459v-1034h-459zM332 1145v315h336v-315h-336z" />
<glyph unicode="&#xf0;" horiz-adv-x="1083" d="M12 444q0 214 112.5 336.5t342.5 122.5q56 0 84 -0.5t78.5 -9.5t72.5 -27q-11 79 -42 133t-97 93l-272 -183l-129 183l137 90q-110 22 -205 37l39 225q286 -10 463 -66l190 127q22 -30 63.5 -91.5t63.5 -90.5l-88 -59q224 -175 224 -557q0 -365 -130.5 -545t-414.5 -180 q-247 0 -369.5 112t-122.5 350zM360 444q0 -83 31.5 -127.5t112.5 -44.5q93 0 144.5 77t51.5 237q-45 16 -79 23t-56.5 8t-79.5 1q-64 0 -94.5 -52.5t-30.5 -121.5z" />
<glyph unicode="&#xf1;" horiz-adv-x="1183" d="M57 0v1034h457v-53q14 9 38.5 22.5t84 35.5t102.5 22q221 0 309.5 -120t88.5 -423v-518h-459v487q0 179 -74 179q-17 0 -39 -4t-35 -8l-14 -3v-651h-459zM233 1366q5 5 13 14t33 31.5t50 40t59 31.5t65 14q54 0 117 -22t112.5 -44t71.5 -22q24 0 66 20t72 40l30 20 l59 -240q-4 -5 -12 -14t-33 -31t-49.5 -39t-59 -31t-65.5 -14q-58 0 -167 45t-138 45q-25 0 -66 -20.5t-69 -41.5l-29 -20z" />
<glyph unicode="&#xf2;" horiz-adv-x="1155" d="M31 518q0 287 136.5 415t410.5 128t410 -128t136 -415q0 -291 -135.5 -418t-410.5 -127t-411 127t-136 418zM205 1481h485l88 -340h-350zM494 518q0 -99 18.5 -136.5t65.5 -37.5t65.5 37.5t18.5 136.5t-18 135.5t-66 36.5q-47 0 -65.5 -37t-18.5 -135z" />
<glyph unicode="&#xf3;" horiz-adv-x="1155" d="M31 518q0 287 136.5 415t410.5 128t410 -128t136 -415q0 -291 -135.5 -418t-410.5 -127t-411 127t-136 418zM377 1141l88 340h485l-223 -340h-350zM494 518q0 -99 18.5 -136.5t65.5 -37.5t65.5 37.5t18.5 136.5t-18 135.5t-66 36.5q-47 0 -65.5 -37t-18.5 -135z" />
<glyph unicode="&#xf4;" horiz-adv-x="1155" d="M31 518q0 287 136.5 415t410.5 128t410 -128t136 -415q0 -291 -135.5 -418t-410.5 -127t-411 127t-136 418zM219 1141l187 340h323l209 -340h-332l-31 147l-24 -147h-332zM494 518q0 -99 18.5 -136.5t65.5 -37.5t65.5 37.5t18.5 136.5t-18 135.5t-66 36.5 q-47 0 -65.5 -37t-18.5 -135z" />
<glyph unicode="&#xf5;" horiz-adv-x="1155" d="M31 518q0 287 136.5 415t410.5 128t410 -128t136 -415q0 -291 -135.5 -418t-410.5 -127t-411 127t-136 418zM205 1366q4 5 12.5 14t33 31.5t49.5 40t59 31.5t65 14q54 0 117 -22t112.5 -44t71.5 -22q24 0 66 20t72 40l30 20l59 -240q-4 -5 -12 -14t-33 -31t-49.5 -39 t-59 -31t-65.5 -14q-58 0 -167 45t-138 45q-25 0 -66 -20.5t-70 -41.5l-28 -20zM494 518q0 -99 18.5 -136.5t65.5 -37.5t65.5 37.5t18.5 136.5t-18 135.5t-66 36.5q-47 0 -65.5 -37t-18.5 -135z" />
<glyph unicode="&#xf6;" horiz-adv-x="1155" d="M31 518q0 287 136.5 415t410.5 128t410 -128t136 -415q0 -291 -135.5 -418t-410.5 -127t-411 127t-136 418zM195 1145v315h335v-315h-335zM494 518q0 -99 18.5 -136.5t65.5 -37.5t65.5 37.5t18.5 136.5t-18 135.5t-66 36.5q-47 0 -65.5 -37t-18.5 -135zM625 1145v315h336 v-315h-336z" />
<glyph unicode="&#xf7;" d="M88 348v348h950v-348h-950zM358 20v287h410v-287h-410zM358 737v287h410v-287h-410z" />
<glyph unicode="&#xf8;" horiz-adv-x="1155" d="M-10 -61l127 221q-86 130 -86 358q0 287 136.5 415t410.5 128q35 0 53 -2q16 28 38.5 67.5t34 59t11.5 20.5t111 -21t222 -45l111 -22l-131 -231q96 -131 96 -369q0 -291 -135.5 -418t-410.5 -127q-13 0 -37 1t-35 1l-72 -127zM494 518q0 -99 18.5 -136.5t65.5 -37.5 t65.5 37.5t18.5 136.5t-18 135.5t-66 36.5q-47 0 -65.5 -37t-18.5 -135z" />
<glyph unicode="&#xf9;" horiz-adv-x="1181" d="M47 500v534h459v-504q0 -92 15.5 -126.5t53.5 -34.5q20 0 42.5 3t35.5 6l13 3v653h458v-1034h-454v49q-15 -9 -39.5 -21.5t-87 -33.5t-107.5 -21q-111 0 -186 32t-120 99.5t-64 163t-19 232.5zM240 1481h485l88 -340h-350z" />
<glyph unicode="&#xfa;" horiz-adv-x="1181" d="M47 500v534h459v-504q0 -92 15.5 -126.5t53.5 -34.5q20 0 42.5 3t35.5 6l13 3v653h458v-1034h-454v49q-15 -9 -39.5 -21.5t-87 -33.5t-107.5 -21q-111 0 -186 32t-120 99.5t-64 163t-19 232.5zM381 1141l88 340h485l-223 -340h-350z" />
<glyph unicode="&#xfb;" horiz-adv-x="1181" d="M47 500v534h459v-504q0 -92 15.5 -126.5t53.5 -34.5q20 0 42.5 3t35.5 6l13 3v653h458v-1034h-454v49q-15 -9 -39.5 -21.5t-87 -33.5t-107.5 -21q-111 0 -186 32t-120 99.5t-64 163t-19 232.5zM238 1141l186 340h324l208 -340h-331l-31 147l-25 -147h-331z" />
<glyph unicode="&#xfc;" horiz-adv-x="1181" d="M47 500v534h459v-504q0 -92 15.5 -126.5t53.5 -34.5q20 0 42.5 3t35.5 6l13 3v653h458v-1034h-454v49q-15 -9 -39.5 -21.5t-87 -33.5t-107.5 -21q-111 0 -186 32t-120 99.5t-64 163t-19 232.5zM213 1145v315h336v-315h-336zM643 1145v315h336v-315h-336z" />
<glyph unicode="&#xfd;" horiz-adv-x="1118" d="M2 1034h487l74 -651h29l65 651h461l-244 -1433h-503l129 399h-324zM369 1141l88 340h485l-223 -340h-350z" />
<glyph unicode="&#xfe;" horiz-adv-x="1165" d="M55 -399v1839h459v-412q137 33 213 33q217 0 311.5 -139.5t94.5 -413.5q0 -276 -103.5 -405.5t-347.5 -129.5q-29 0 -71 6.5t-69 13.5l-28 7v-399h-459zM514 350q27 -6 66 -6q52 0 71 48.5t19 131.5q0 97 -21 131.5t-69 34.5q-8 0 -24.5 -3.5t-29.5 -6.5l-12 -4v-326z " />
<glyph unicode="&#xff;" horiz-adv-x="1118" d="M2 1034h487l74 -651h29l65 651h461l-244 -1433h-503l129 399h-324zM176 1145v315h336v-315h-336zM606 1145v315h336v-315h-336z" />
<glyph unicode="&#x152;" horiz-adv-x="1814" d="M37 696q0 198 27.5 327.5t95 216t177.5 123t279 36.5q41 0 134.5 -6.5t167.5 -13.5l73 -7h789v-379h-490v-119h367v-370h-367v-125h490v-379h-789q-233 -27 -395 -27q-132 0 -226.5 27.5t-159 81t-103 143t-54.5 202.5t-16 269zM504 696q0 -47 0.5 -74.5t2.5 -63.5 t6.5 -56t12.5 -44.5t19.5 -37.5t28.5 -27t39.5 -20.5t51.5 -10.5t66 -4h84v652q-58 4 -84 4q-76 0 -119.5 -13.5t-68.5 -53t-32 -95t-7 -156.5z" />
<glyph unicode="&#x153;" horiz-adv-x="1761" d="M31 518q0 287 136.5 415t410.5 128q233 0 327 -98q89 98 293 98q268 0 401.5 -116.5t133.5 -358.5l-21 -203h-592q2 -38 25.5 -55t75.5 -17q84 0 204 4.5t199 9.5l78 5l10 -297q-31 -7 -83 -17t-190.5 -26.5t-250.5 -16.5q-215 0 -299 90q-97 -90 -311 -90 q-275 0 -411 127t-136 418zM494 518q0 -99 18.5 -136.5t65.5 -37.5t65.5 37.5t18.5 136.5t-18 135.5t-66 36.5q-47 0 -65.5 -37t-18.5 -135zM1118 633h160q0 60 -19 84t-61 24q-44 0 -61 -24.5t-19 -83.5z" />
<glyph unicode="&#x178;" horiz-adv-x="1208" d="M-27 1372h504l129 -403l133 403h502l-401 -942v-430h-475v430zM229 1460v295h330v-295h-330zM653 1460v295h330v-295h-330z" />
<glyph unicode="&#x2c6;" horiz-adv-x="1705" d="M489 1141l187 340h323l209 -340h-331l-31 147l-25 -147h-332z" />
<glyph unicode="&#x2dc;" horiz-adv-x="985" d="M76 1366q4 5 12.5 14t33 31.5t49.5 40t59 31.5t65 14q54 0 117 -22t112.5 -44t71.5 -22q24 0 66 20t72 40l30 20l59 -240q-4 -5 -12 -14t-33 -31t-49.5 -39t-59 -31t-65.5 -14q-58 0 -167 45t-138 45q-25 0 -66 -20.5t-69 -41.5l-29 -20z" />
<glyph unicode="&#x2000;" horiz-adv-x="907" />
<glyph unicode="&#x2001;" horiz-adv-x="1815" />
<glyph unicode="&#x2002;" horiz-adv-x="907" />
<glyph unicode="&#x2003;" horiz-adv-x="1815" />
<glyph unicode="&#x2004;" horiz-adv-x="605" />
<glyph unicode="&#x2005;" horiz-adv-x="453" />
<glyph unicode="&#x2006;" horiz-adv-x="302" />
<glyph unicode="&#x2007;" horiz-adv-x="302" />
<glyph unicode="&#x2008;" horiz-adv-x="226" />
<glyph unicode="&#x2009;" horiz-adv-x="363" />
<glyph unicode="&#x200a;" horiz-adv-x="100" />
<glyph unicode="&#x2010;" horiz-adv-x="729" d="M59 330v370h611v-370h-611z" />
<glyph unicode="&#x2011;" horiz-adv-x="729" d="M59 330v370h611v-370h-611z" />
<glyph unicode="&#x2012;" horiz-adv-x="729" d="M59 330v370h611v-370h-611z" />
<glyph unicode="&#x2013;" horiz-adv-x="1146" d="M61 317v404h1024v-404h-1024z" />
<glyph unicode="&#x2014;" horiz-adv-x="2170" d="M61 317v404h2048v-404h-2048z" />
<glyph unicode="&#x2018;" horiz-adv-x="569" d="M16 797l154 575h360l-43 -575h-471z" />
<glyph unicode="&#x2019;" horiz-adv-x="563" d="M39 797l43 575h471l-154 -575h-360z" />
<glyph unicode="&#x201a;" horiz-adv-x="561" d="M23 -221l43 575h471l-154 -575h-360z" />
<glyph unicode="&#x201c;" horiz-adv-x="1114" d="M16 797l154 575h360l-43 -575h-471zM561 797l154 575h360l-43 -575h-471z" />
<glyph unicode="&#x201d;" horiz-adv-x="1107" d="M39 797l43 575h471l-154 -575h-360zM584 797l43 575h471l-154 -575h-360z" />
<glyph unicode="&#x201e;" horiz-adv-x="1105" d="M23 -221l43 575h471l-154 -575h-360zM567 -221l43 575h471l-153 -575h-361z" />
<glyph unicode="&#x2022;" horiz-adv-x="772" d="M104 287v553h564v-553h-564z" />
<glyph unicode="&#x2026;" horiz-adv-x="1794" d="M55 0v408h467v-408h-467zM664 0v408h466v-408h-466zM1272 0v408h467v-408h-467z" />
<glyph unicode="&#x202f;" horiz-adv-x="363" />
<glyph unicode="&#x2039;" horiz-adv-x="724" d="M29 500v43l329 481l328 -152l-233 -346l233 -346l-332 -151z" />
<glyph unicode="&#x203a;" horiz-adv-x="724" d="M39 164l233 346l-233 346l332 152l325 -471v-43l-329 -482z" />
<glyph unicode="&#x205f;" horiz-adv-x="453" />
<glyph unicode="&#x20ac;" d="M31 502v123h51v53v74h-51v122h57q13 143 49 236.5t107 153t174.5 84t257.5 24.5q67 0 169.5 -13t172.5 -27l69 -13l-12 -361q-166 21 -307 21q-95 0 -139 -21t-62 -84h447v-122h-463v-74v-53h463v-123h-453q16 -82 60.5 -107.5t146.5 -25.5q63 0 141 2.5t125 4.5l47 3 l6 -352q-24 -6 -65.5 -15t-155.5 -24t-211 -15q-150 0 -250 25t-169 87.5t-103.5 162.5t-46.5 254h-55z" />
<glyph unicode="&#x2122;" horiz-adv-x="1212" d="M84 1157v162h410v-162h-84v-477h-181v477h-145zM545 678v641h211l84 -324l92 324h209v-641h-168v356l-70 -313h-112l-78 313v-356h-168z" />
<glyph unicode="&#xe000;" horiz-adv-x="1034" d="M0 0v1034h1034v-1034h-1034z" />
</font>
</defs>
</svg>
